<svg xmlns="http://www.w3.org/2000/svg" viewBox="0 -0.5 32 64" shape-rendering="crispEdges">
  <path stroke="#000000" d="M13 1h1M14 1h1M15 1h1M16 1h1M17 1h1M18 1h1M19 1h1M20 1h1M21 1h1M12 2h1M22 2h1M11 3h1M23 3h1M10 4h1M24 4h1M10 5h1M17 5h1M18 5h1M19 5h1M20 5h1M21 5h1M24 5h1M10 6h1M16 6h1M21 6h1M24 6h1M10 7h1M15 7h1M21 7h1M23 7h1M9 8h1M15 8h1M21 8h1M23 8h1M9 9h1M15 9h1M21 9h1M23 9h1M9 10h1M15 10h1M21 10h1M23 10h1M8 11h1M15 11h1M21 11h1M23 11h1M8 12h1M15 12h1M21 12h1M23 12h1M8 13h1M15 13h1M20 13h1M22 13h1M8 14h1M9 14h1M15 14h1M20 14h1M22 14h1M9 15h1M15 15h1M20 15h1M21 15h1M22 15h1M9 16h1M15 16h1M23 16h1M8 17h1M10 17h1M14 17h1M24 17h1M7 18h1M11 18h1M12 18h1M13 18h1M25 18h1M6 19h1M11 19h1M25 19h1M6 20h1M10 20h1M11 20h1M25 20h1M6 21h1M10 21h1M25 21h1M26 21h1M5 22h1M9 22h1M10 22h1M26 22h1M5 23h1M9 23h1M26 23h1M5 24h1M9 24h1M26 24h1M5 25h1M9 25h1M26 25h1M5 26h1M10 26h1M27 26h1M6 27h1M7 27h1M11 27h1M12 27h1M27 27h1M7 28h1M13 28h1M14 28h1M15 28h1M16 28h1M17 28h1M18 28h1M27 28h1M8 29h1M18 29h1M27 29h1M9 30h1M17 30h1M27 30h1M10 31h1M11 31h1M12 31h1M17 31h1M27 31h1M10 32h1M13 32h1M14 32h1M15 32h1M16 32h1M17 32h1M23 32h1M24 32h1M25 32h1M26 32h1M27 32h1M10 33h1M23 33h1M27 33h1M10 34h1M23 34h1M27 34h1M10 35h1M19 35h1M24 35h1M25 35h1M27 35h1M9 36h1M19 36h1M25 36h1M27 36h1M9 37h1M19 37h1M25 37h1M26 37h1M9 38h1M18 38h1M26 38h1M9 39h1M18 39h1M26 39h1M9 40h1M17 40h1M19 40h1M26 40h1M8 41h1M17 41h1M19 41h1M26 41h1M8 42h1M17 42h1M19 42h1M26 42h1M8 43h1M17 43h1M19 43h1M26 43h1M8 44h1M17 44h1M19 44h1M26 44h1M27 44h1M8 45h1M16 45h1M19 45h1M27 45h1M8 46h1M16 46h1M19 46h1M27 46h1M8 47h1M16 47h1M19 47h1M27 47h1M8 48h1M16 48h1M19 48h1M27 48h1M7 49h1M16 49h1M19 49h1M26 49h1M7 50h1M15 50h1M19 50h1M26 50h1M7 51h1M14 51h1M19 51h1M26 51h1M7 52h1M14 52h1M18 52h1M26 52h1M7 53h1M14 53h1M18 53h1M26 53h1M7 54h1M14 54h1M18 54h1M26 54h1M7 55h1M14 55h1M18 55h1M26 55h1M7 56h1M14 56h1M18 56h1M26 56h1M8 57h1M11 57h1M12 57h1M13 57h1M14 57h1M18 57h1M25 57h1M8 58h1M9 58h1M10 58h1M13 58h1M18 58h1M23 58h1M24 58h1M7 59h1M8 59h1M13 59h1M19 59h1M20 59h1M21 59h1M22 59h1M24 59h1M6 60h1M13 60h1M19 60h1M24 60h1M5 61h1M13 61h1M19 61h1M25 61h1M5 62h1M13 62h1M19 62h1M26 62h1M5 63h1M6 63h1M7 63h1M8 63h1M9 63h1M10 63h1M11 63h1M12 63h1M13 63h1M19 63h1M20 63h1M21 63h1M22 63h1M23 63h1M24 63h1M25 63h1M26 63h1" />
<path stroke="#8f563b" d="M13 2h1M14 2h1M15 2h1M16 2h1M17 2h1M18 2h1M19 2h1M20 2h1M21 2h1M12 3h1M13 3h1M14 3h1M15 3h1M16 3h1M17 3h1M18 3h1M19 3h1M20 3h1M21 3h1M22 3h1M11 4h1M12 4h1M13 4h1M14 4h1M15 4h1M16 4h1M17 4h1M18 4h1M19 4h1M20 4h1M21 4h1M22 4h1M23 4h1M11 5h1M12 5h1M13 5h1M14 5h1M15 5h1M16 5h1M22 5h1M23 5h1M11 6h1M12 6h1M13 6h1M14 6h1M15 6h1M22 6h1M23 6h1M11 7h1M12 7h1M13 7h1M14 7h1M22 7h1M10 8h1M11 8h1M12 8h1M13 8h1M14 8h1M22 8h1M10 9h1M11 9h1M12 9h1M13 9h1M14 9h1M22 9h1M10 10h1M11 10h1M12 10h1M13 10h1M14 10h1M22 10h1M9 11h1M10 11h1M11 11h1M12 11h1M13 11h1M14 11h1M22 11h1M9 12h1M10 12h1M11 12h1M12 12h1M13 12h1M14 12h1M22 12h1M9 13h1M10 13h1M11 13h1M12 13h1M13 13h1M14 13h1M21 13h1M10 14h1M11 14h1M12 14h1M13 14h1M14 14h1M21 14h1M10 15h1M11 15h1M12 15h1M13 15h1M14 15h1M10 16h1M11 16h1M12 16h1M13 16h1M14 16h1M11 17h1M12 17h1M13 17h1" />
<path stroke="#eec39a" d="M17 6h1M18 6h1M19 6h1M20 6h1M16 7h1M17 7h1M18 7h1M19 7h1M20 7h1M16 8h1M17 8h1M18 8h1M19 8h1M20 8h1M16 9h1M17 9h1M18 9h1M19 9h1M20 9h1M16 10h1M17 10h1M18 10h1M19 10h1M20 10h1M16 11h1M17 11h1M18 11h1M19 11h1M20 11h1M17 12h1M18 12h1M19 12h1M20 12h1M16 13h1M16 14h1M17 14h1M18 14h1M19 14h1M16 15h1M17 15h1M18 15h1M19 15h1M13 29h1M14 29h1M15 29h1M16 29h1M17 29h1M12 30h1M13 30h1M14 30h1M15 30h1M16 30h1M13 31h1M14 31h1M15 31h1M16 31h1M24 33h1M25 33h1M26 33h1M24 34h1M25 34h1M26 34h1M26 35h1M26 36h1" />
<path stroke="#947768" d="M16 12h1M17 13h1M18 13h1M19 13h1" />
<path stroke="#5b6ee1" d="M16 16h1M17 16h1M18 16h1M19 16h1M20 16h1M21 16h1M22 16h1M9 17h1M16 17h1M17 17h1M18 17h1M19 17h1M20 17h1M21 17h1M22 17h1M23 17h1M8 18h1M9 18h1M10 18h1M15 18h1M16 18h1M17 18h1M18 18h1M19 18h1M20 18h1M21 18h1M22 18h1M23 18h1M24 18h1M7 19h1M8 19h1M9 19h1M10 19h1M13 19h1M14 19h1M15 19h1M16 19h1M17 19h1M18 19h1M19 19h1M20 19h1M21 19h1M22 19h1M23 19h1M24 19h1M7 20h1M8 20h1M9 20h1M13 20h1M14 20h1M15 20h1M16 20h1M17 20h1M18 20h1M19 20h1M20 20h1M21 20h1M23 20h1M24 20h1M7 21h1M8 21h1M9 21h1M13 21h1M14 21h1M15 21h1M16 21h1M17 21h1M18 21h1M19 21h1M20 21h1M21 21h1M22 21h1M24 21h1M6 22h1M7 22h1M8 22h1M12 22h1M13 22h1M14 22h1M15 22h1M16 22h1M17 22h1M18 22h1M19 22h1M20 22h1M21 22h1M22 22h1M23 22h1M25 22h1M6 23h1M7 23h1M8 23h1M12 23h1M13 23h1M14 23h1M15 23h1M16 23h1M17 23h1M18 23h1M19 23h1M20 23h1M21 23h1M22 23h1M23 23h1M25 23h1M6 24h1M7 24h1M8 24h1M11 24h1M12 24h1M13 24h1M14 24h1M15 24h1M16 24h1M17 24h1M18 24h1M19 24h1M20 24h1M21 24h1M22 24h1M23 24h1M25 24h1M6 25h1M7 25h1M8 25h1M11 25h1M12 25h1M13 25h1M14 25h1M15 25h1M16 25h1M17 25h1M18 25h1M19 25h1M20 25h1M21 25h1M22 25h1M24 25h1M25 25h1M6 26h1M7 26h1M8 26h1M9 26h1M11 26h1M12 26h1M13 26h1M14 26h1M23 26h1M24 26h1M25 26h1M26 26h1M8 27h1M9 27h1M10 27h1M13 27h1M14 27h1M15 27h1M16 27h1M17 27h1M18 27h1M19 27h1M20 27h1M21 27h1M23 27h1M24 27h1M25 27h1M26 27h1M8 28h1M9 28h1M10 28h1M11 28h1M12 28h1M19 28h1M20 28h1M21 28h1M23 28h1M24 28h1M25 28h1M26 28h1M9 29h1M10 29h1M11 29h1M12 29h1M19 29h1M20 29h1M21 29h1M23 29h1M24 29h1M25 29h1M26 29h1M10 30h1M11 30h1M23 30h1M24 30h1M25 30h1M26 30h1M23 31h1M24 31h1M25 31h1M26 31h1" />
<path stroke="#38448d" d="M15 17h1M14 18h1M12 19h1M12 20h1M22 20h1M11 21h1M12 21h1M23 21h1M11 22h1M24 22h1M10 23h1M11 23h1M24 23h1M10 24h1M24 24h1M10 25h1M23 25h1M15 26h1M16 26h1M17 26h1M18 26h1M19 26h1M20 26h1M21 26h1M22 26h1M22 27h1M22 28h1M22 29h1" />
<path stroke="#1e2448" d="M18 30h1M21 30h1M22 30h1M18 31h1M21 31h1M22 31h1" />
<path stroke="#9badb7" d="M19 30h1M20 30h1M19 31h1M20 31h1" />
<path stroke="#852828" d="M11 32h1M12 32h1M18 32h1M19 32h1M20 32h1M21 32h1M22 32h1M11 33h1M12 33h1M13 33h1M14 33h1M15 33h1M16 33h1M17 33h1M22 33h1M11 34h1M21 34h1M22 34h1M21 35h1M22 35h1M23 35h1M21 36h1M22 36h1M23 36h1M24 36h1M20 37h1M21 37h1M22 37h1M23 37h1M24 37h1M19 38h1M20 38h1M21 38h1M22 38h1M23 38h1M24 38h1M25 38h1M19 39h1M20 39h1M21 39h1M22 39h1M23 39h1M24 39h1M25 39h1M20 40h1M21 40h1M22 40h1M23 40h1M24 40h1M25 40h1M20 41h1M21 41h1M22 41h1M23 41h1M24 41h1M25 41h1M20 42h1M21 42h1M22 42h1M23 42h1M24 42h1M25 42h1M20 43h1M21 43h1M22 43h1M23 43h1M24 43h1M25 43h1M20 44h1M21 44h1M22 44h1M23 44h1M24 44h1M25 44h1M20 45h1M21 45h1M22 45h1M23 45h1M24 45h1M25 45h1M26 45h1M20 46h1M21 46h1M22 46h1M23 46h1M24 46h1M25 46h1M26 46h1M20 47h1M21 47h1M22 47h1M23 47h1M24 47h1M25 47h1M26 47h1M20 48h1M21 48h1M22 48h1M23 48h1M24 48h1M25 48h1M26 48h1M20 49h1M21 49h1M22 49h1M23 49h1M24 49h1M25 49h1M20 50h1M21 50h1M22 50h1M23 50h1M24 50h1M25 50h1M20 51h1M21 51h1M22 51h1M23 51h1M24 51h1M25 51h1M19 52h1M20 52h1M21 52h1M22 52h1M23 52h1M24 52h1M25 52h1M19 53h1M20 53h1M21 53h1M22 53h1M23 53h1M24 53h1M25 53h1M19 54h1M20 54h1M21 54h1M22 54h1M23 54h1M24 54h1M25 54h1M19 55h1M20 55h1M21 55h1M22 55h1M23 55h1M24 55h1M25 55h1M19 56h1M20 56h1M21 56h1M22 56h1M23 56h1M24 56h1M25 56h1M19 57h1M20 57h1M21 57h1M22 57h1M23 57h1M24 57h1M19 58h1M20 58h1M21 58h1M22 58h1" />
<path stroke="#ac3232" d="M18 33h1M19 33h1M20 33h1M21 33h1M12 34h1M13 34h1M14 34h1M15 34h1M16 34h1M17 34h1M18 34h1M19 34h1M20 34h1M11 35h1M12 35h1M13 35h1M14 35h1M15 35h1M16 35h1M17 35h1M18 35h1M20 35h1M10 36h1M11 36h1M12 36h1M13 36h1M14 36h1M15 36h1M16 36h1M17 36h1M18 36h1M20 36h1M10 37h1M11 37h1M12 37h1M13 37h1M14 37h1M15 37h1M16 37h1M17 37h1M18 37h1M10 38h1M11 38h1M12 38h1M13 38h1M14 38h1M15 38h1M16 38h1M17 38h1M10 39h1M11 39h1M12 39h1M13 39h1M14 39h1M15 39h1M16 39h1M17 39h1M10 40h1M11 40h1M12 40h1M13 40h1M14 40h1M15 40h1M16 40h1M9 41h1M10 41h1M11 41h1M12 41h1M13 41h1M14 41h1M15 41h1M16 41h1M9 42h1M10 42h1M11 42h1M12 42h1M13 42h1M14 42h1M15 42h1M16 42h1M9 43h1M10 43h1M11 43h1M12 43h1M13 43h1M14 43h1M15 43h1M16 43h1M9 44h1M10 44h1M11 44h1M12 44h1M13 44h1M14 44h1M15 44h1M16 44h1M9 45h1M10 45h1M11 45h1M12 45h1M13 45h1M14 45h1M15 45h1M9 46h1M10 46h1M11 46h1M12 46h1M13 46h1M14 46h1M15 46h1M9 47h1M10 47h1M11 47h1M12 47h1M13 47h1M14 47h1M15 47h1M9 48h1M10 48h1M11 48h1M12 48h1M13 48h1M14 48h1M15 48h1M8 49h1M9 49h1M10 49h1M11 49h1M12 49h1M13 49h1M14 49h1M15 49h1M8 50h1M9 50h1M10 50h1M11 50h1M12 50h1M13 50h1M14 50h1M8 51h1M9 51h1M10 51h1M11 51h1M12 51h1M13 51h1M8 52h1M9 52h1M10 52h1M11 52h1M12 52h1M13 52h1M8 53h1M9 53h1M10 53h1M11 53h1M12 53h1M13 53h1M8 54h1M9 54h1M10 54h1M11 54h1M12 54h1M13 54h1M8 55h1M9 55h1M10 55h1M11 55h1M12 55h1M13 55h1M8 56h1M9 56h1M10 56h1M11 56h1M12 56h1M13 56h1M9 57h1M10 57h1" />
<path stroke="#452722" d="M11 58h1M12 58h1M9 59h1M10 59h1M11 59h1M12 59h1M23 59h1M8 60h1M9 60h1M10 60h1M20 60h1M21 60h1M22 60h1" />
<path stroke="#663931" d="M7 60h1M11 60h1M12 60h1M23 60h1M6 61h1M7 61h1M8 61h1M9 61h1M10 61h1M11 61h1M12 61h1M20 61h1M21 61h1M22 61h1M23 61h1M24 61h1M6 62h1M7 62h1M8 62h1M9 62h1M10 62h1M11 62h1M12 62h1M20 62h1M21 62h1M22 62h1M23 62h1M24 62h1M25 62h1" />
</svg>