<svg xmlns="http://www.w3.org/2000/svg" viewBox="0 -0.5 96 60" shape-rendering="crispEdges">
  <path stroke="#000000" d="M2 0h1M3 0h1M4 0h1M5 0h1M6 0h1M7 0h1M8 0h1M9 0h1M10 0h1M11 0h1M12 0h1M13 0h1M14 0h1M15 0h1M16 0h1M17 0h1M18 0h1M19 0h1M20 0h1M21 0h1M22 0h1M23 0h1M24 0h1M25 0h1M26 0h1M27 0h1M28 0h1M29 0h1M30 0h1M31 0h1M32 0h1M33 0h1M34 0h1M35 0h1M36 0h1M37 0h1M38 0h1M39 0h1M40 0h1M41 0h1M42 0h1M43 0h1M44 0h1M45 0h1M46 0h1M47 0h1M48 0h1M49 0h1M50 0h1M51 0h1M52 0h1M53 0h1M54 0h1M55 0h1M56 0h1M57 0h1M58 0h1M59 0h1M60 0h1M61 0h1M62 0h1M63 0h1M64 0h1M65 0h1M66 0h1M67 0h1M68 0h1M69 0h1M70 0h1M71 0h1M72 0h1M73 0h1M74 0h1M75 0h1M76 0h1M77 0h1M78 0h1M79 0h1M80 0h1M81 0h1M82 0h1M83 0h1M84 0h1M85 0h1M86 0h1M87 0h1M88 0h1M89 0h1M90 0h1M91 0h1M92 0h1M93 0h1M1 1h1M94 1h1M0 2h1M95 2h1M0 3h1M95 3h1M0 4h1M95 4h1M0 5h1M95 5h1M0 6h1M95 6h1M0 7h1M95 7h1M0 8h1M95 8h1M0 9h1M95 9h1M0 10h1M95 10h1M0 11h1M95 11h1M0 12h1M95 12h1M0 13h1M95 13h1M0 14h1M95 14h1M0 15h1M95 15h1M0 16h1M95 16h1M0 17h1M95 17h1M0 18h1M95 18h1M0 19h1M95 19h1M0 20h1M95 20h1M0 21h1M95 21h1M0 22h1M95 22h1M0 23h1M95 23h1M0 24h1M95 24h1M0 25h1M95 25h1M0 26h1M95 26h1M0 27h1M95 27h1M0 28h1M95 28h1M0 29h1M95 29h1M0 30h1M95 30h1M0 31h1M95 31h1M0 32h1M95 32h1M0 33h1M95 33h1M0 34h1M95 34h1M0 35h1M95 35h1M0 36h1M95 36h1M0 37h1M95 37h1M0 38h1M95 38h1M0 39h1M95 39h1M0 40h1M95 40h1M0 41h1M95 41h1M0 42h1M95 42h1M0 43h1M95 43h1M0 44h1M95 44h1M0 45h1M95 45h1M0 46h1M95 46h1M0 47h1M95 47h1M0 48h1M95 48h1M0 49h1M95 49h1M0 50h1M95 50h1M0 51h1M95 51h1M0 52h1M95 52h1M0 53h1M95 53h1M0 54h1M95 54h1M0 55h1M95 55h1M0 56h1M95 56h1M0 57h1M95 57h1M0 58h1M95 58h1M0 59h1M95 59h1" />
<path stroke="#4fb8ff" d="M2 1h1M3 1h1M4 1h1M5 1h1M6 1h1M7 1h1M8 1h1M9 1h1M10 1h1M11 1h1M12 1h1M13 1h1M14 1h1M15 1h1M16 1h1M17 1h1M18 1h1M19 1h1M20 1h1M21 1h1M22 1h1M23 1h1M24 1h1M25 1h1M26 1h1M27 1h1M28 1h1M29 1h1M30 1h1M31 1h1M32 1h1M33 1h1M34 1h1M35 1h1M36 1h1M37 1h1M38 1h1M39 1h1M40 1h1M41 1h1M42 1h1M43 1h1M44 1h1M45 1h1M46 1h1M47 1h1M48 1h1M49 1h1M50 1h1M51 1h1M52 1h1M53 1h1M54 1h1M55 1h1M56 1h1M57 1h1M58 1h1M59 1h1M60 1h1M61 1h1M62 1h1M63 1h1M64 1h1M65 1h1M66 1h1M67 1h1M68 1h1M69 1h1M70 1h1M71 1h1M72 1h1M73 1h1M74 1h1M75 1h1M76 1h1M77 1h1M78 1h1M79 1h1M80 1h1M81 1h1M82 1h1M83 1h1M84 1h1M85 1h1M86 1h1M87 1h1M88 1h1M89 1h1M90 1h1M91 1h1M92 1h1M93 1h1M1 2h1M2 2h1M3 2h1M4 2h1M5 2h1M6 2h1M7 2h1M8 2h1M9 2h1M10 2h1M11 2h1M12 2h1M13 2h1M14 2h1M15 2h1M16 2h1M17 2h1M18 2h1M19 2h1M20 2h1M21 2h1M22 2h1M23 2h1M24 2h1M25 2h1M26 2h1M27 2h1M28 2h1M29 2h1M30 2h1M31 2h1M32 2h1M33 2h1M34 2h1M35 2h1M36 2h1M37 2h1M38 2h1M39 2h1M40 2h1M41 2h1M42 2h1M43 2h1M44 2h1M45 2h1M46 2h1M47 2h1M48 2h1M49 2h1M50 2h1M51 2h1M52 2h1M53 2h1M54 2h1M55 2h1M56 2h1M57 2h1M58 2h1M59 2h1M60 2h1M61 2h1M62 2h1M63 2h1M64 2h1M65 2h1M66 2h1M67 2h1M68 2h1M69 2h1M70 2h1M71 2h1M72 2h1M73 2h1M74 2h1M75 2h1M76 2h1M77 2h1M78 2h1M79 2h1M80 2h1M81 2h1M82 2h1M83 2h1M84 2h1M85 2h1M86 2h1M87 2h1M88 2h1M89 2h1M90 2h1M91 2h1M92 2h1M93 2h1M94 2h1M1 3h1M2 3h1M93 3h1M94 3h1M1 4h1M94 4h1M94 5h1M94 6h1M94 7h1M94 8h1M94 9h1M94 10h1M94 11h1M94 12h1M94 13h1M94 14h1M94 15h1M94 16h1M94 17h1M94 18h1M94 19h1M94 20h1M94 21h1M94 22h1M94 23h1M94 24h1M94 25h1M94 26h1M94 27h1M94 28h1M94 29h1M94 30h1M94 31h1M94 32h1M94 33h1M94 34h1M94 35h1M94 36h1M94 37h1M94 38h1M94 39h1M94 40h1M94 41h1M94 42h1M94 43h1M94 44h1M94 45h1M94 46h1M94 47h1M94 48h1M94 49h1M94 50h1M94 51h1M94 52h1M94 53h1M94 54h1M94 55h1M94 56h1M94 57h1M94 58h1" />
<path stroke="#267ae9" d="M3 3h1M4 3h1M5 3h1M6 3h1M7 3h1M8 3h1M9 3h1M10 3h1M11 3h1M12 3h1M13 3h1M14 3h1M15 3h1M16 3h1M17 3h1M18 3h1M19 3h1M20 3h1M21 3h1M22 3h1M23 3h1M24 3h1M25 3h1M26 3h1M27 3h1M28 3h1M29 3h1M30 3h1M31 3h1M32 3h1M33 3h1M34 3h1M35 3h1M36 3h1M37 3h1M38 3h1M39 3h1M40 3h1M41 3h1M42 3h1M43 3h1M44 3h1M45 3h1M46 3h1M47 3h1M48 3h1M49 3h1M50 3h1M51 3h1M52 3h1M53 3h1M54 3h1M55 3h1M56 3h1M57 3h1M58 3h1M59 3h1M60 3h1M61 3h1M62 3h1M63 3h1M64 3h1M65 3h1M66 3h1M67 3h1M68 3h1M69 3h1M70 3h1M71 3h1M72 3h1M73 3h1M74 3h1M75 3h1M76 3h1M77 3h1M78 3h1M79 3h1M80 3h1M81 3h1M82 3h1M83 3h1M84 3h1M85 3h1M86 3h1M87 3h1M88 3h1M89 3h1M90 3h1M91 3h1M92 3h1M2 4h1M3 4h1M4 4h1M5 4h1M6 4h1M7 4h1M8 4h1M9 4h1M10 4h1M11 4h1M12 4h1M13 4h1M14 4h1M15 4h1M16 4h1M17 4h1M18 4h1M19 4h1M20 4h1M21 4h1M22 4h1M23 4h1M24 4h1M25 4h1M26 4h1M27 4h1M28 4h1M29 4h1M30 4h1M31 4h1M32 4h1M33 4h1M34 4h1M35 4h1M36 4h1M37 4h1M38 4h1M39 4h1M40 4h1M41 4h1M42 4h1M43 4h1M44 4h1M45 4h1M46 4h1M47 4h1M48 4h1M49 4h1M50 4h1M51 4h1M52 4h1M53 4h1M54 4h1M55 4h1M56 4h1M57 4h1M58 4h1M59 4h1M60 4h1M61 4h1M62 4h1M63 4h1M64 4h1M65 4h1M66 4h1M67 4h1M68 4h1M69 4h1M70 4h1M71 4h1M72 4h1M73 4h1M74 4h1M75 4h1M76 4h1M77 4h1M78 4h1M79 4h1M80 4h1M81 4h1M82 4h1M83 4h1M84 4h1M85 4h1M86 4h1M87 4h1M88 4h1M89 4h1M90 4h1M91 4h1M92 4h1M93 4h1M2 5h1M3 5h1M4 5h1M5 5h1M6 5h1M7 5h1M8 5h1M9 5h1M10 5h1M11 5h1M12 5h1M13 5h1M14 5h1M15 5h1M16 5h1M17 5h1M18 5h1M19 5h1M20 5h1M21 5h1M22 5h1M23 5h1M24 5h1M25 5h1M26 5h1M27 5h1M28 5h1M29 5h1M30 5h1M31 5h1M32 5h1M33 5h1M34 5h1M35 5h1M36 5h1M37 5h1M38 5h1M39 5h1M40 5h1M41 5h1M42 5h1M43 5h1M44 5h1M45 5h1M46 5h1M47 5h1M48 5h1M49 5h1M50 5h1M51 5h1M52 5h1M53 5h1M54 5h1M55 5h1M56 5h1M57 5h1M58 5h1M59 5h1M60 5h1M61 5h1M62 5h1M63 5h1M64 5h1M65 5h1M66 5h1M67 5h1M68 5h1M69 5h1M70 5h1M71 5h1M72 5h1M73 5h1M74 5h1M75 5h1M76 5h1M77 5h1M78 5h1M79 5h1M80 5h1M81 5h1M82 5h1M83 5h1M84 5h1M85 5h1M86 5h1M87 5h1M88 5h1M89 5h1M90 5h1M91 5h1M92 5h1M93 5h1M2 6h1M3 6h1M4 6h1M5 6h1M6 6h1M7 6h1M8 6h1M9 6h1M10 6h1M11 6h1M12 6h1M13 6h1M14 6h1M15 6h1M16 6h1M17 6h1M18 6h1M19 6h1M20 6h1M21 6h1M22 6h1M23 6h1M24 6h1M25 6h1M26 6h1M27 6h1M28 6h1M29 6h1M30 6h1M31 6h1M32 6h1M33 6h1M34 6h1M35 6h1M36 6h1M37 6h1M38 6h1M39 6h1M40 6h1M41 6h1M42 6h1M43 6h1M44 6h1M45 6h1M46 6h1M47 6h1M48 6h1M49 6h1M50 6h1M51 6h1M52 6h1M53 6h1M54 6h1M55 6h1M56 6h1M57 6h1M58 6h1M59 6h1M60 6h1M61 6h1M62 6h1M63 6h1M64 6h1M65 6h1M66 6h1M67 6h1M68 6h1M69 6h1M70 6h1M71 6h1M72 6h1M73 6h1M74 6h1M75 6h1M76 6h1M77 6h1M78 6h1M79 6h1M80 6h1M81 6h1M82 6h1M83 6h1M84 6h1M85 6h1M86 6h1M87 6h1M88 6h1M89 6h1M90 6h1M91 6h1M92 6h1M93 6h1M2 7h1M3 7h1M4 7h1M5 7h1M6 7h1M7 7h1M8 7h1M9 7h1M10 7h1M11 7h1M12 7h1M13 7h1M14 7h1M15 7h1M16 7h1M17 7h1M18 7h1M19 7h1M20 7h1M21 7h1M22 7h1M23 7h1M24 7h1M25 7h1M26 7h1M27 7h1M28 7h1M29 7h1M30 7h1M31 7h1M32 7h1M33 7h1M34 7h1M35 7h1M36 7h1M37 7h1M38 7h1M39 7h1M40 7h1M41 7h1M42 7h1M43 7h1M44 7h1M45 7h1M46 7h1M47 7h1M48 7h1M49 7h1M50 7h1M51 7h1M52 7h1M53 7h1M54 7h1M55 7h1M56 7h1M57 7h1M58 7h1M59 7h1M60 7h1M61 7h1M62 7h1M63 7h1M64 7h1M65 7h1M66 7h1M67 7h1M68 7h1M69 7h1M70 7h1M71 7h1M72 7h1M73 7h1M74 7h1M75 7h1M76 7h1M77 7h1M78 7h1M79 7h1M80 7h1M81 7h1M82 7h1M83 7h1M84 7h1M85 7h1M86 7h1M87 7h1M88 7h1M89 7h1M90 7h1M91 7h1M92 7h1M93 7h1M2 8h1M3 8h1M4 8h1M5 8h1M6 8h1M7 8h1M8 8h1M9 8h1M10 8h1M11 8h1M12 8h1M13 8h1M14 8h1M15 8h1M16 8h1M17 8h1M18 8h1M19 8h1M20 8h1M21 8h1M22 8h1M23 8h1M24 8h1M25 8h1M26 8h1M27 8h1M28 8h1M29 8h1M30 8h1M31 8h1M32 8h1M33 8h1M34 8h1M35 8h1M36 8h1M37 8h1M38 8h1M39 8h1M40 8h1M41 8h1M42 8h1M43 8h1M44 8h1M45 8h1M46 8h1M47 8h1M48 8h1M49 8h1M50 8h1M51 8h1M52 8h1M53 8h1M54 8h1M55 8h1M56 8h1M57 8h1M58 8h1M59 8h1M60 8h1M61 8h1M62 8h1M63 8h1M64 8h1M65 8h1M66 8h1M67 8h1M68 8h1M69 8h1M70 8h1M71 8h1M72 8h1M73 8h1M74 8h1M75 8h1M76 8h1M77 8h1M78 8h1M79 8h1M80 8h1M81 8h1M82 8h1M83 8h1M84 8h1M85 8h1M86 8h1M87 8h1M88 8h1M89 8h1M90 8h1M91 8h1M92 8h1M93 8h1M2 9h1M3 9h1M4 9h1M5 9h1M6 9h1M7 9h1M8 9h1M9 9h1M10 9h1M11 9h1M12 9h1M13 9h1M14 9h1M15 9h1M16 9h1M17 9h1M18 9h1M19 9h1M20 9h1M21 9h1M22 9h1M23 9h1M24 9h1M25 9h1M26 9h1M27 9h1M28 9h1M29 9h1M30 9h1M31 9h1M32 9h1M33 9h1M34 9h1M35 9h1M36 9h1M37 9h1M38 9h1M39 9h1M40 9h1M41 9h1M42 9h1M43 9h1M44 9h1M45 9h1M46 9h1M47 9h1M48 9h1M49 9h1M50 9h1M51 9h1M52 9h1M53 9h1M54 9h1M55 9h1M56 9h1M57 9h1M58 9h1M59 9h1M60 9h1M61 9h1M62 9h1M63 9h1M64 9h1M65 9h1M66 9h1M67 9h1M68 9h1M69 9h1M70 9h1M71 9h1M72 9h1M73 9h1M74 9h1M75 9h1M76 9h1M77 9h1M78 9h1M79 9h1M80 9h1M81 9h1M82 9h1M83 9h1M84 9h1M85 9h1M86 9h1M87 9h1M88 9h1M89 9h1M90 9h1M91 9h1M92 9h1M93 9h1M2 10h1M3 10h1M4 10h1M5 10h1M6 10h1M7 10h1M8 10h1M9 10h1M10 10h1M11 10h1M12 10h1M13 10h1M14 10h1M15 10h1M16 10h1M17 10h1M18 10h1M19 10h1M20 10h1M21 10h1M22 10h1M23 10h1M24 10h1M25 10h1M26 10h1M27 10h1M28 10h1M29 10h1M30 10h1M31 10h1M32 10h1M33 10h1M34 10h1M35 10h1M36 10h1M37 10h1M38 10h1M39 10h1M40 10h1M41 10h1M42 10h1M43 10h1M44 10h1M45 10h1M46 10h1M47 10h1M48 10h1M49 10h1M50 10h1M51 10h1M52 10h1M53 10h1M54 10h1M55 10h1M56 10h1M57 10h1M58 10h1M59 10h1M60 10h1M61 10h1M62 10h1M63 10h1M64 10h1M65 10h1M66 10h1M67 10h1M68 10h1M69 10h1M70 10h1M71 10h1M72 10h1M73 10h1M74 10h1M75 10h1M76 10h1M77 10h1M78 10h1M79 10h1M80 10h1M81 10h1M82 10h1M83 10h1M84 10h1M85 10h1M86 10h1M87 10h1M88 10h1M89 10h1M90 10h1M91 10h1M92 10h1M93 10h1M2 11h1M3 11h1M4 11h1M5 11h1M6 11h1M7 11h1M8 11h1M9 11h1M10 11h1M11 11h1M12 11h1M13 11h1M14 11h1M15 11h1M16 11h1M17 11h1M18 11h1M19 11h1M20 11h1M21 11h1M22 11h1M23 11h1M24 11h1M25 11h1M26 11h1M27 11h1M28 11h1M29 11h1M30 11h1M31 11h1M32 11h1M33 11h1M34 11h1M35 11h1M36 11h1M37 11h1M38 11h1M39 11h1M40 11h1M41 11h1M42 11h1M43 11h1M44 11h1M45 11h1M46 11h1M47 11h1M48 11h1M49 11h1M50 11h1M51 11h1M52 11h1M53 11h1M54 11h1M55 11h1M56 11h1M57 11h1M58 11h1M59 11h1M60 11h1M61 11h1M62 11h1M63 11h1M64 11h1M65 11h1M66 11h1M67 11h1M68 11h1M69 11h1M70 11h1M71 11h1M72 11h1M73 11h1M74 11h1M75 11h1M76 11h1M77 11h1M78 11h1M79 11h1M80 11h1M81 11h1M82 11h1M83 11h1M84 11h1M85 11h1M86 11h1M87 11h1M88 11h1M89 11h1M90 11h1M91 11h1M92 11h1M93 11h1M2 12h1M3 12h1M4 12h1M5 12h1M6 12h1M7 12h1M8 12h1M9 12h1M10 12h1M11 12h1M12 12h1M13 12h1M14 12h1M15 12h1M16 12h1M17 12h1M18 12h1M19 12h1M20 12h1M21 12h1M22 12h1M23 12h1M24 12h1M25 12h1M26 12h1M27 12h1M28 12h1M29 12h1M30 12h1M31 12h1M32 12h1M33 12h1M34 12h1M35 12h1M36 12h1M37 12h1M38 12h1M39 12h1M40 12h1M41 12h1M42 12h1M43 12h1M44 12h1M45 12h1M46 12h1M47 12h1M48 12h1M49 12h1M50 12h1M51 12h1M52 12h1M53 12h1M54 12h1M55 12h1M56 12h1M57 12h1M58 12h1M59 12h1M60 12h1M61 12h1M62 12h1M63 12h1M64 12h1M65 12h1M66 12h1M67 12h1M68 12h1M69 12h1M70 12h1M71 12h1M72 12h1M73 12h1M74 12h1M75 12h1M76 12h1M77 12h1M78 12h1M79 12h1M80 12h1M81 12h1M82 12h1M83 12h1M84 12h1M85 12h1M86 12h1M87 12h1M88 12h1M89 12h1M90 12h1M91 12h1M92 12h1M93 12h1M2 13h1M3 13h1M4 13h1M5 13h1M6 13h1M7 13h1M8 13h1M9 13h1M10 13h1M11 13h1M12 13h1M13 13h1M14 13h1M15 13h1M16 13h1M17 13h1M18 13h1M19 13h1M20 13h1M21 13h1M22 13h1M23 13h1M24 13h1M25 13h1M26 13h1M27 13h1M28 13h1M29 13h1M30 13h1M31 13h1M32 13h1M33 13h1M34 13h1M35 13h1M36 13h1M37 13h1M38 13h1M39 13h1M40 13h1M41 13h1M42 13h1M43 13h1M44 13h1M45 13h1M46 13h1M47 13h1M48 13h1M49 13h1M50 13h1M51 13h1M52 13h1M53 13h1M54 13h1M55 13h1M56 13h1M57 13h1M58 13h1M59 13h1M60 13h1M61 13h1M62 13h1M63 13h1M64 13h1M65 13h1M66 13h1M67 13h1M68 13h1M69 13h1M70 13h1M71 13h1M72 13h1M73 13h1M74 13h1M75 13h1M76 13h1M77 13h1M78 13h1M79 13h1M80 13h1M81 13h1M82 13h1M83 13h1M84 13h1M85 13h1M86 13h1M87 13h1M88 13h1M89 13h1M90 13h1M91 13h1M92 13h1M93 13h1M2 14h1M3 14h1M4 14h1M5 14h1M6 14h1M7 14h1M8 14h1M9 14h1M10 14h1M11 14h1M12 14h1M13 14h1M14 14h1M15 14h1M16 14h1M17 14h1M18 14h1M19 14h1M20 14h1M21 14h1M22 14h1M23 14h1M24 14h1M25 14h1M26 14h1M27 14h1M28 14h1M29 14h1M30 14h1M31 14h1M32 14h1M33 14h1M34 14h1M35 14h1M36 14h1M37 14h1M38 14h1M39 14h1M40 14h1M41 14h1M42 14h1M43 14h1M44 14h1M45 14h1M46 14h1M47 14h1M48 14h1M49 14h1M50 14h1M51 14h1M52 14h1M53 14h1M54 14h1M55 14h1M56 14h1M57 14h1M58 14h1M59 14h1M60 14h1M61 14h1M62 14h1M63 14h1M64 14h1M65 14h1M66 14h1M67 14h1M68 14h1M69 14h1M70 14h1M71 14h1M72 14h1M73 14h1M74 14h1M75 14h1M76 14h1M77 14h1M78 14h1M79 14h1M80 14h1M81 14h1M82 14h1M83 14h1M84 14h1M85 14h1M86 14h1M87 14h1M88 14h1M89 14h1M90 14h1M91 14h1M92 14h1M93 14h1M2 15h1M3 15h1M4 15h1M5 15h1M6 15h1M7 15h1M8 15h1M9 15h1M10 15h1M11 15h1M12 15h1M13 15h1M14 15h1M15 15h1M16 15h1M17 15h1M18 15h1M19 15h1M20 15h1M21 15h1M22 15h1M23 15h1M24 15h1M25 15h1M26 15h1M27 15h1M28 15h1M29 15h1M30 15h1M31 15h1M32 15h1M33 15h1M34 15h1M35 15h1M36 15h1M37 15h1M38 15h1M39 15h1M40 15h1M41 15h1M42 15h1M43 15h1M44 15h1M45 15h1M46 15h1M47 15h1M48 15h1M49 15h1M50 15h1M51 15h1M52 15h1M53 15h1M54 15h1M55 15h1M56 15h1M57 15h1M58 15h1M59 15h1M60 15h1M61 15h1M62 15h1M63 15h1M64 15h1M65 15h1M66 15h1M67 15h1M68 15h1M69 15h1M70 15h1M71 15h1M72 15h1M73 15h1M74 15h1M75 15h1M76 15h1M77 15h1M78 15h1M79 15h1M80 15h1M81 15h1M82 15h1M83 15h1M84 15h1M85 15h1M86 15h1M87 15h1M88 15h1M89 15h1M90 15h1M91 15h1M92 15h1M93 15h1M2 16h1M3 16h1M4 16h1M5 16h1M6 16h1M7 16h1M8 16h1M9 16h1M10 16h1M11 16h1M12 16h1M13 16h1M14 16h1M15 16h1M16 16h1M17 16h1M18 16h1M19 16h1M20 16h1M21 16h1M22 16h1M23 16h1M24 16h1M25 16h1M26 16h1M27 16h1M28 16h1M29 16h1M30 16h1M31 16h1M32 16h1M33 16h1M34 16h1M35 16h1M36 16h1M37 16h1M38 16h1M39 16h1M40 16h1M41 16h1M42 16h1M43 16h1M44 16h1M45 16h1M46 16h1M47 16h1M48 16h1M49 16h1M50 16h1M51 16h1M52 16h1M53 16h1M54 16h1M55 16h1M56 16h1M57 16h1M58 16h1M59 16h1M60 16h1M61 16h1M62 16h1M63 16h1M64 16h1M65 16h1M66 16h1M67 16h1M68 16h1M69 16h1M70 16h1M71 16h1M72 16h1M73 16h1M74 16h1M75 16h1M76 16h1M77 16h1M78 16h1M79 16h1M80 16h1M81 16h1M82 16h1M83 16h1M84 16h1M85 16h1M86 16h1M87 16h1M88 16h1M89 16h1M90 16h1M91 16h1M92 16h1M93 16h1M2 17h1M3 17h1M4 17h1M5 17h1M6 17h1M7 17h1M8 17h1M9 17h1M10 17h1M11 17h1M12 17h1M13 17h1M14 17h1M15 17h1M16 17h1M17 17h1M18 17h1M19 17h1M20 17h1M21 17h1M22 17h1M23 17h1M24 17h1M25 17h1M26 17h1M27 17h1M28 17h1M29 17h1M30 17h1M31 17h1M32 17h1M33 17h1M34 17h1M35 17h1M36 17h1M37 17h1M38 17h1M39 17h1M40 17h1M41 17h1M42 17h1M43 17h1M44 17h1M45 17h1M46 17h1M47 17h1M48 17h1M49 17h1M50 17h1M51 17h1M52 17h1M53 17h1M54 17h1M55 17h1M56 17h1M57 17h1M58 17h1M59 17h1M60 17h1M61 17h1M62 17h1M63 17h1M64 17h1M65 17h1M66 17h1M67 17h1M68 17h1M69 17h1M70 17h1M71 17h1M72 17h1M73 17h1M74 17h1M75 17h1M76 17h1M77 17h1M78 17h1M79 17h1M80 17h1M81 17h1M82 17h1M83 17h1M84 17h1M85 17h1M86 17h1M87 17h1M88 17h1M89 17h1M90 17h1M91 17h1M92 17h1M93 17h1M2 18h1M3 18h1M4 18h1M5 18h1M6 18h1M7 18h1M8 18h1M9 18h1M10 18h1M11 18h1M12 18h1M13 18h1M14 18h1M15 18h1M16 18h1M17 18h1M18 18h1M19 18h1M20 18h1M21 18h1M22 18h1M23 18h1M24 18h1M25 18h1M26 18h1M27 18h1M28 18h1M29 18h1M30 18h1M31 18h1M32 18h1M33 18h1M34 18h1M35 18h1M36 18h1M37 18h1M38 18h1M39 18h1M40 18h1M41 18h1M42 18h1M43 18h1M44 18h1M45 18h1M46 18h1M47 18h1M48 18h1M49 18h1M50 18h1M51 18h1M52 18h1M53 18h1M54 18h1M55 18h1M56 18h1M57 18h1M58 18h1M59 18h1M60 18h1M61 18h1M62 18h1M63 18h1M64 18h1M65 18h1M66 18h1M67 18h1M68 18h1M69 18h1M70 18h1M71 18h1M72 18h1M73 18h1M74 18h1M75 18h1M76 18h1M77 18h1M78 18h1M79 18h1M80 18h1M81 18h1M82 18h1M83 18h1M84 18h1M85 18h1M86 18h1M87 18h1M88 18h1M89 18h1M90 18h1M91 18h1M92 18h1M93 18h1M2 19h1M3 19h1M4 19h1M5 19h1M6 19h1M7 19h1M8 19h1M9 19h1M10 19h1M11 19h1M12 19h1M13 19h1M14 19h1M15 19h1M16 19h1M17 19h1M18 19h1M19 19h1M20 19h1M21 19h1M22 19h1M23 19h1M24 19h1M25 19h1M26 19h1M27 19h1M28 19h1M29 19h1M30 19h1M31 19h1M32 19h1M33 19h1M34 19h1M35 19h1M36 19h1M37 19h1M38 19h1M39 19h1M40 19h1M41 19h1M42 19h1M43 19h1M44 19h1M45 19h1M46 19h1M47 19h1M48 19h1M49 19h1M50 19h1M51 19h1M52 19h1M53 19h1M54 19h1M55 19h1M56 19h1M57 19h1M58 19h1M59 19h1M60 19h1M61 19h1M62 19h1M63 19h1M64 19h1M65 19h1M66 19h1M67 19h1M68 19h1M69 19h1M70 19h1M71 19h1M72 19h1M73 19h1M74 19h1M75 19h1M76 19h1M77 19h1M78 19h1M79 19h1M80 19h1M81 19h1M82 19h1M83 19h1M84 19h1M85 19h1M86 19h1M87 19h1M88 19h1M89 19h1M90 19h1M91 19h1M92 19h1M93 19h1M2 20h1M3 20h1M4 20h1M5 20h1M6 20h1M7 20h1M8 20h1M9 20h1M10 20h1M11 20h1M12 20h1M13 20h1M14 20h1M15 20h1M16 20h1M17 20h1M18 20h1M19 20h1M20 20h1M21 20h1M22 20h1M23 20h1M24 20h1M25 20h1M26 20h1M27 20h1M28 20h1M29 20h1M30 20h1M31 20h1M32 20h1M33 20h1M34 20h1M35 20h1M36 20h1M37 20h1M38 20h1M39 20h1M40 20h1M41 20h1M42 20h1M43 20h1M44 20h1M45 20h1M46 20h1M47 20h1M48 20h1M49 20h1M50 20h1M51 20h1M52 20h1M53 20h1M54 20h1M55 20h1M56 20h1M57 20h1M58 20h1M59 20h1M60 20h1M61 20h1M62 20h1M63 20h1M64 20h1M65 20h1M66 20h1M67 20h1M68 20h1M69 20h1M70 20h1M71 20h1M72 20h1M73 20h1M74 20h1M75 20h1M76 20h1M77 20h1M78 20h1M79 20h1M80 20h1M81 20h1M82 20h1M83 20h1M84 20h1M85 20h1M86 20h1M87 20h1M88 20h1M89 20h1M90 20h1M91 20h1M92 20h1M93 20h1M2 21h1M3 21h1M4 21h1M5 21h1M6 21h1M7 21h1M8 21h1M9 21h1M10 21h1M11 21h1M12 21h1M13 21h1M14 21h1M15 21h1M16 21h1M17 21h1M18 21h1M19 21h1M20 21h1M21 21h1M22 21h1M23 21h1M24 21h1M25 21h1M26 21h1M27 21h1M28 21h1M29 21h1M30 21h1M31 21h1M32 21h1M33 21h1M34 21h1M35 21h1M36 21h1M37 21h1M38 21h1M39 21h1M40 21h1M41 21h1M42 21h1M43 21h1M44 21h1M45 21h1M46 21h1M47 21h1M48 21h1M49 21h1M50 21h1M51 21h1M52 21h1M53 21h1M54 21h1M55 21h1M56 21h1M57 21h1M58 21h1M59 21h1M60 21h1M61 21h1M62 21h1M63 21h1M64 21h1M65 21h1M66 21h1M67 21h1M68 21h1M69 21h1M70 21h1M71 21h1M72 21h1M73 21h1M74 21h1M75 21h1M76 21h1M77 21h1M78 21h1M79 21h1M80 21h1M81 21h1M82 21h1M83 21h1M84 21h1M85 21h1M86 21h1M87 21h1M88 21h1M89 21h1M90 21h1M91 21h1M92 21h1M93 21h1M2 22h1M3 22h1M4 22h1M5 22h1M6 22h1M7 22h1M8 22h1M9 22h1M10 22h1M11 22h1M12 22h1M13 22h1M14 22h1M15 22h1M16 22h1M17 22h1M18 22h1M19 22h1M20 22h1M21 22h1M22 22h1M23 22h1M24 22h1M25 22h1M26 22h1M27 22h1M28 22h1M29 22h1M30 22h1M31 22h1M32 22h1M33 22h1M34 22h1M35 22h1M36 22h1M37 22h1M38 22h1M39 22h1M40 22h1M41 22h1M42 22h1M43 22h1M44 22h1M45 22h1M46 22h1M47 22h1M48 22h1M49 22h1M50 22h1M51 22h1M52 22h1M53 22h1M54 22h1M55 22h1M56 22h1M57 22h1M58 22h1M59 22h1M60 22h1M61 22h1M62 22h1M63 22h1M64 22h1M65 22h1M66 22h1M67 22h1M68 22h1M69 22h1M70 22h1M71 22h1M72 22h1M73 22h1M74 22h1M75 22h1M76 22h1M77 22h1M78 22h1M79 22h1M80 22h1M81 22h1M82 22h1M83 22h1M84 22h1M85 22h1M86 22h1M87 22h1M88 22h1M89 22h1M90 22h1M91 22h1M92 22h1M93 22h1M2 23h1M3 23h1M4 23h1M5 23h1M6 23h1M7 23h1M8 23h1M9 23h1M10 23h1M11 23h1M12 23h1M13 23h1M14 23h1M15 23h1M16 23h1M17 23h1M18 23h1M19 23h1M20 23h1M21 23h1M22 23h1M23 23h1M24 23h1M25 23h1M26 23h1M27 23h1M28 23h1M29 23h1M30 23h1M31 23h1M32 23h1M33 23h1M34 23h1M35 23h1M36 23h1M37 23h1M38 23h1M39 23h1M40 23h1M41 23h1M42 23h1M43 23h1M44 23h1M45 23h1M46 23h1M47 23h1M48 23h1M49 23h1M50 23h1M51 23h1M52 23h1M53 23h1M54 23h1M55 23h1M56 23h1M57 23h1M58 23h1M59 23h1M60 23h1M61 23h1M62 23h1M63 23h1M64 23h1M65 23h1M66 23h1M67 23h1M68 23h1M69 23h1M70 23h1M71 23h1M72 23h1M73 23h1M74 23h1M75 23h1M76 23h1M77 23h1M78 23h1M79 23h1M80 23h1M81 23h1M82 23h1M83 23h1M84 23h1M85 23h1M86 23h1M87 23h1M88 23h1M89 23h1M90 23h1M91 23h1M92 23h1M93 23h1M2 24h1M3 24h1M4 24h1M5 24h1M6 24h1M7 24h1M8 24h1M9 24h1M10 24h1M11 24h1M12 24h1M13 24h1M14 24h1M15 24h1M16 24h1M17 24h1M18 24h1M19 24h1M20 24h1M21 24h1M22 24h1M23 24h1M24 24h1M25 24h1M26 24h1M27 24h1M28 24h1M29 24h1M30 24h1M31 24h1M32 24h1M33 24h1M34 24h1M35 24h1M36 24h1M37 24h1M38 24h1M39 24h1M40 24h1M41 24h1M42 24h1M43 24h1M44 24h1M45 24h1M46 24h1M47 24h1M48 24h1M49 24h1M50 24h1M51 24h1M52 24h1M53 24h1M54 24h1M55 24h1M56 24h1M57 24h1M58 24h1M59 24h1M60 24h1M61 24h1M62 24h1M63 24h1M64 24h1M65 24h1M66 24h1M67 24h1M68 24h1M69 24h1M70 24h1M71 24h1M72 24h1M73 24h1M74 24h1M75 24h1M76 24h1M77 24h1M78 24h1M79 24h1M80 24h1M81 24h1M82 24h1M83 24h1M84 24h1M85 24h1M86 24h1M87 24h1M88 24h1M89 24h1M90 24h1M91 24h1M92 24h1M93 24h1M2 25h1M3 25h1M4 25h1M5 25h1M6 25h1M7 25h1M8 25h1M9 25h1M10 25h1M11 25h1M12 25h1M13 25h1M14 25h1M15 25h1M16 25h1M17 25h1M18 25h1M19 25h1M20 25h1M21 25h1M22 25h1M23 25h1M24 25h1M25 25h1M26 25h1M27 25h1M28 25h1M29 25h1M30 25h1M31 25h1M32 25h1M33 25h1M34 25h1M35 25h1M36 25h1M37 25h1M38 25h1M39 25h1M40 25h1M41 25h1M42 25h1M43 25h1M44 25h1M45 25h1M46 25h1M47 25h1M48 25h1M49 25h1M50 25h1M51 25h1M52 25h1M53 25h1M54 25h1M55 25h1M56 25h1M57 25h1M58 25h1M59 25h1M60 25h1M61 25h1M62 25h1M63 25h1M64 25h1M65 25h1M66 25h1M67 25h1M68 25h1M69 25h1M70 25h1M71 25h1M72 25h1M73 25h1M74 25h1M75 25h1M76 25h1M77 25h1M78 25h1M79 25h1M80 25h1M81 25h1M82 25h1M83 25h1M84 25h1M85 25h1M86 25h1M87 25h1M88 25h1M89 25h1M90 25h1M91 25h1M92 25h1M93 25h1M2 26h1M3 26h1M4 26h1M5 26h1M6 26h1M7 26h1M8 26h1M9 26h1M10 26h1M11 26h1M12 26h1M13 26h1M14 26h1M15 26h1M16 26h1M17 26h1M18 26h1M19 26h1M20 26h1M21 26h1M22 26h1M23 26h1M24 26h1M25 26h1M26 26h1M27 26h1M28 26h1M29 26h1M30 26h1M31 26h1M32 26h1M33 26h1M34 26h1M35 26h1M36 26h1M37 26h1M38 26h1M39 26h1M40 26h1M41 26h1M42 26h1M43 26h1M44 26h1M45 26h1M46 26h1M47 26h1M48 26h1M49 26h1M50 26h1M51 26h1M52 26h1M53 26h1M54 26h1M55 26h1M56 26h1M57 26h1M58 26h1M59 26h1M60 26h1M61 26h1M62 26h1M63 26h1M64 26h1M65 26h1M66 26h1M67 26h1M68 26h1M69 26h1M70 26h1M71 26h1M72 26h1M73 26h1M74 26h1M75 26h1M76 26h1M77 26h1M78 26h1M79 26h1M80 26h1M81 26h1M82 26h1M83 26h1M84 26h1M85 26h1M86 26h1M87 26h1M88 26h1M89 26h1M90 26h1M91 26h1M92 26h1M93 26h1M2 27h1M3 27h1M4 27h1M5 27h1M6 27h1M7 27h1M8 27h1M9 27h1M10 27h1M11 27h1M12 27h1M13 27h1M14 27h1M15 27h1M16 27h1M17 27h1M18 27h1M19 27h1M20 27h1M21 27h1M22 27h1M23 27h1M24 27h1M25 27h1M26 27h1M27 27h1M28 27h1M29 27h1M30 27h1M31 27h1M32 27h1M33 27h1M34 27h1M35 27h1M36 27h1M37 27h1M38 27h1M39 27h1M40 27h1M41 27h1M42 27h1M43 27h1M44 27h1M45 27h1M46 27h1M47 27h1M48 27h1M49 27h1M50 27h1M51 27h1M52 27h1M53 27h1M54 27h1M55 27h1M56 27h1M57 27h1M58 27h1M59 27h1M60 27h1M61 27h1M62 27h1M63 27h1M64 27h1M65 27h1M66 27h1M67 27h1M68 27h1M69 27h1M70 27h1M71 27h1M72 27h1M73 27h1M74 27h1M75 27h1M76 27h1M77 27h1M78 27h1M79 27h1M80 27h1M81 27h1M82 27h1M83 27h1M84 27h1M85 27h1M86 27h1M87 27h1M88 27h1M89 27h1M90 27h1M91 27h1M92 27h1M93 27h1M2 28h1M3 28h1M4 28h1M5 28h1M6 28h1M7 28h1M8 28h1M9 28h1M10 28h1M11 28h1M12 28h1M13 28h1M14 28h1M15 28h1M16 28h1M17 28h1M18 28h1M19 28h1M20 28h1M21 28h1M22 28h1M23 28h1M24 28h1M25 28h1M26 28h1M27 28h1M28 28h1M29 28h1M30 28h1M31 28h1M32 28h1M33 28h1M34 28h1M35 28h1M36 28h1M37 28h1M38 28h1M39 28h1M40 28h1M41 28h1M42 28h1M43 28h1M44 28h1M45 28h1M46 28h1M47 28h1M48 28h1M49 28h1M50 28h1M51 28h1M52 28h1M53 28h1M54 28h1M55 28h1M56 28h1M57 28h1M58 28h1M59 28h1M60 28h1M61 28h1M62 28h1M63 28h1M64 28h1M65 28h1M66 28h1M67 28h1M68 28h1M69 28h1M70 28h1M71 28h1M72 28h1M73 28h1M74 28h1M75 28h1M76 28h1M77 28h1M78 28h1M79 28h1M80 28h1M81 28h1M82 28h1M83 28h1M84 28h1M85 28h1M86 28h1M87 28h1M88 28h1M89 28h1M90 28h1M91 28h1M92 28h1M93 28h1M2 29h1M3 29h1M4 29h1M5 29h1M6 29h1M7 29h1M8 29h1M9 29h1M10 29h1M11 29h1M12 29h1M13 29h1M14 29h1M15 29h1M16 29h1M17 29h1M18 29h1M19 29h1M20 29h1M21 29h1M22 29h1M23 29h1M24 29h1M25 29h1M26 29h1M27 29h1M28 29h1M29 29h1M30 29h1M31 29h1M32 29h1M33 29h1M34 29h1M35 29h1M36 29h1M37 29h1M38 29h1M39 29h1M40 29h1M41 29h1M42 29h1M43 29h1M44 29h1M45 29h1M46 29h1M47 29h1M48 29h1M49 29h1M50 29h1M51 29h1M52 29h1M53 29h1M54 29h1M55 29h1M56 29h1M57 29h1M58 29h1M59 29h1M60 29h1M61 29h1M62 29h1M63 29h1M64 29h1M65 29h1M66 29h1M67 29h1M68 29h1M69 29h1M70 29h1M71 29h1M72 29h1M73 29h1M74 29h1M75 29h1M76 29h1M77 29h1M78 29h1M79 29h1M80 29h1M81 29h1M82 29h1M83 29h1M84 29h1M85 29h1M86 29h1M87 29h1M88 29h1M89 29h1M90 29h1M91 29h1M92 29h1M93 29h1M2 30h1M3 30h1M4 30h1M5 30h1M6 30h1M7 30h1M8 30h1M9 30h1M10 30h1M11 30h1M12 30h1M13 30h1M14 30h1M15 30h1M16 30h1M17 30h1M18 30h1M19 30h1M20 30h1M21 30h1M22 30h1M23 30h1M24 30h1M25 30h1M26 30h1M27 30h1M28 30h1M29 30h1M30 30h1M31 30h1M32 30h1M33 30h1M34 30h1M35 30h1M36 30h1M37 30h1M38 30h1M39 30h1M40 30h1M41 30h1M42 30h1M43 30h1M44 30h1M45 30h1M46 30h1M47 30h1M48 30h1M49 30h1M50 30h1M51 30h1M52 30h1M53 30h1M54 30h1M55 30h1M56 30h1M57 30h1M58 30h1M59 30h1M60 30h1M61 30h1M62 30h1M63 30h1M64 30h1M65 30h1M66 30h1M67 30h1M68 30h1M69 30h1M70 30h1M71 30h1M72 30h1M73 30h1M74 30h1M75 30h1M76 30h1M77 30h1M78 30h1M79 30h1M80 30h1M81 30h1M82 30h1M83 30h1M84 30h1M85 30h1M86 30h1M87 30h1M88 30h1M89 30h1M90 30h1M91 30h1M92 30h1M93 30h1M2 31h1M3 31h1M4 31h1M5 31h1M6 31h1M7 31h1M8 31h1M9 31h1M10 31h1M11 31h1M12 31h1M13 31h1M14 31h1M15 31h1M16 31h1M17 31h1M18 31h1M19 31h1M20 31h1M21 31h1M22 31h1M23 31h1M24 31h1M25 31h1M26 31h1M27 31h1M28 31h1M29 31h1M30 31h1M31 31h1M32 31h1M33 31h1M34 31h1M35 31h1M36 31h1M37 31h1M38 31h1M39 31h1M40 31h1M41 31h1M42 31h1M43 31h1M44 31h1M45 31h1M46 31h1M47 31h1M48 31h1M49 31h1M50 31h1M51 31h1M52 31h1M53 31h1M54 31h1M55 31h1M56 31h1M57 31h1M58 31h1M59 31h1M60 31h1M61 31h1M62 31h1M63 31h1M64 31h1M65 31h1M66 31h1M67 31h1M68 31h1M69 31h1M70 31h1M71 31h1M72 31h1M73 31h1M74 31h1M75 31h1M76 31h1M77 31h1M78 31h1M79 31h1M80 31h1M81 31h1M82 31h1M83 31h1M84 31h1M85 31h1M86 31h1M87 31h1M88 31h1M89 31h1M90 31h1M91 31h1M92 31h1M93 31h1M2 32h1M3 32h1M4 32h1M5 32h1M6 32h1M7 32h1M8 32h1M9 32h1M10 32h1M11 32h1M12 32h1M13 32h1M14 32h1M15 32h1M16 32h1M17 32h1M18 32h1M19 32h1M20 32h1M21 32h1M22 32h1M23 32h1M24 32h1M25 32h1M26 32h1M27 32h1M28 32h1M29 32h1M30 32h1M31 32h1M32 32h1M33 32h1M34 32h1M35 32h1M36 32h1M37 32h1M38 32h1M39 32h1M40 32h1M41 32h1M42 32h1M43 32h1M44 32h1M45 32h1M46 32h1M47 32h1M48 32h1M49 32h1M50 32h1M51 32h1M52 32h1M53 32h1M54 32h1M55 32h1M56 32h1M57 32h1M58 32h1M59 32h1M60 32h1M61 32h1M62 32h1M63 32h1M64 32h1M65 32h1M66 32h1M67 32h1M68 32h1M69 32h1M70 32h1M71 32h1M72 32h1M73 32h1M74 32h1M75 32h1M76 32h1M77 32h1M78 32h1M79 32h1M80 32h1M81 32h1M82 32h1M83 32h1M84 32h1M85 32h1M86 32h1M87 32h1M88 32h1M89 32h1M90 32h1M91 32h1M92 32h1M93 32h1M2 33h1M3 33h1M4 33h1M5 33h1M6 33h1M7 33h1M8 33h1M9 33h1M10 33h1M11 33h1M12 33h1M13 33h1M14 33h1M15 33h1M16 33h1M17 33h1M18 33h1M19 33h1M20 33h1M21 33h1M22 33h1M23 33h1M24 33h1M25 33h1M26 33h1M27 33h1M28 33h1M29 33h1M30 33h1M31 33h1M32 33h1M33 33h1M34 33h1M35 33h1M36 33h1M37 33h1M38 33h1M39 33h1M40 33h1M41 33h1M42 33h1M43 33h1M44 33h1M45 33h1M46 33h1M47 33h1M48 33h1M49 33h1M50 33h1M51 33h1M52 33h1M53 33h1M54 33h1M55 33h1M56 33h1M57 33h1M58 33h1M59 33h1M60 33h1M61 33h1M62 33h1M63 33h1M64 33h1M65 33h1M66 33h1M67 33h1M68 33h1M69 33h1M70 33h1M71 33h1M72 33h1M73 33h1M74 33h1M75 33h1M76 33h1M77 33h1M78 33h1M79 33h1M80 33h1M81 33h1M82 33h1M83 33h1M84 33h1M85 33h1M86 33h1M87 33h1M88 33h1M89 33h1M90 33h1M91 33h1M92 33h1M93 33h1M2 34h1M3 34h1M4 34h1M5 34h1M6 34h1M7 34h1M8 34h1M9 34h1M10 34h1M11 34h1M12 34h1M13 34h1M14 34h1M15 34h1M16 34h1M17 34h1M18 34h1M19 34h1M20 34h1M21 34h1M22 34h1M23 34h1M24 34h1M25 34h1M26 34h1M27 34h1M28 34h1M29 34h1M30 34h1M31 34h1M32 34h1M33 34h1M34 34h1M35 34h1M36 34h1M37 34h1M38 34h1M39 34h1M40 34h1M41 34h1M42 34h1M43 34h1M44 34h1M45 34h1M46 34h1M47 34h1M48 34h1M49 34h1M50 34h1M51 34h1M52 34h1M53 34h1M54 34h1M55 34h1M56 34h1M57 34h1M58 34h1M59 34h1M60 34h1M61 34h1M62 34h1M63 34h1M64 34h1M65 34h1M66 34h1M67 34h1M68 34h1M69 34h1M70 34h1M71 34h1M72 34h1M73 34h1M74 34h1M75 34h1M76 34h1M77 34h1M78 34h1M79 34h1M80 34h1M81 34h1M82 34h1M83 34h1M84 34h1M85 34h1M86 34h1M87 34h1M88 34h1M89 34h1M90 34h1M91 34h1M92 34h1M93 34h1M2 35h1M3 35h1M4 35h1M5 35h1M6 35h1M7 35h1M8 35h1M9 35h1M10 35h1M11 35h1M12 35h1M13 35h1M14 35h1M15 35h1M16 35h1M17 35h1M18 35h1M19 35h1M20 35h1M21 35h1M22 35h1M23 35h1M24 35h1M25 35h1M26 35h1M27 35h1M28 35h1M29 35h1M30 35h1M31 35h1M32 35h1M33 35h1M34 35h1M35 35h1M36 35h1M37 35h1M38 35h1M39 35h1M40 35h1M41 35h1M42 35h1M43 35h1M44 35h1M45 35h1M46 35h1M47 35h1M48 35h1M49 35h1M50 35h1M51 35h1M52 35h1M53 35h1M54 35h1M55 35h1M56 35h1M57 35h1M58 35h1M59 35h1M60 35h1M61 35h1M62 35h1M63 35h1M64 35h1M65 35h1M66 35h1M67 35h1M68 35h1M69 35h1M70 35h1M71 35h1M72 35h1M73 35h1M74 35h1M75 35h1M76 35h1M77 35h1M78 35h1M79 35h1M80 35h1M81 35h1M82 35h1M83 35h1M84 35h1M85 35h1M86 35h1M87 35h1M88 35h1M89 35h1M90 35h1M91 35h1M92 35h1M93 35h1M2 36h1M3 36h1M4 36h1M5 36h1M6 36h1M7 36h1M8 36h1M9 36h1M10 36h1M11 36h1M12 36h1M13 36h1M14 36h1M15 36h1M16 36h1M17 36h1M18 36h1M19 36h1M20 36h1M21 36h1M22 36h1M23 36h1M24 36h1M25 36h1M26 36h1M27 36h1M28 36h1M29 36h1M30 36h1M31 36h1M32 36h1M33 36h1M34 36h1M35 36h1M36 36h1M37 36h1M38 36h1M39 36h1M40 36h1M41 36h1M42 36h1M43 36h1M44 36h1M45 36h1M46 36h1M47 36h1M48 36h1M49 36h1M50 36h1M51 36h1M52 36h1M53 36h1M54 36h1M55 36h1M56 36h1M57 36h1M58 36h1M59 36h1M60 36h1M61 36h1M62 36h1M63 36h1M64 36h1M65 36h1M66 36h1M67 36h1M68 36h1M69 36h1M70 36h1M71 36h1M72 36h1M73 36h1M74 36h1M75 36h1M76 36h1M77 36h1M78 36h1M79 36h1M80 36h1M81 36h1M82 36h1M83 36h1M84 36h1M85 36h1M86 36h1M87 36h1M88 36h1M89 36h1M90 36h1M91 36h1M92 36h1M93 36h1M2 37h1M3 37h1M4 37h1M5 37h1M6 37h1M7 37h1M8 37h1M9 37h1M10 37h1M11 37h1M12 37h1M13 37h1M14 37h1M15 37h1M16 37h1M17 37h1M18 37h1M19 37h1M20 37h1M21 37h1M22 37h1M23 37h1M24 37h1M25 37h1M26 37h1M27 37h1M28 37h1M29 37h1M30 37h1M31 37h1M32 37h1M33 37h1M34 37h1M35 37h1M36 37h1M37 37h1M38 37h1M39 37h1M40 37h1M41 37h1M42 37h1M43 37h1M44 37h1M45 37h1M46 37h1M47 37h1M48 37h1M49 37h1M50 37h1M51 37h1M52 37h1M53 37h1M54 37h1M55 37h1M56 37h1M57 37h1M58 37h1M59 37h1M60 37h1M61 37h1M62 37h1M63 37h1M64 37h1M65 37h1M66 37h1M67 37h1M68 37h1M69 37h1M70 37h1M71 37h1M72 37h1M73 37h1M74 37h1M75 37h1M76 37h1M77 37h1M78 37h1M79 37h1M80 37h1M81 37h1M82 37h1M83 37h1M84 37h1M85 37h1M86 37h1M87 37h1M88 37h1M89 37h1M90 37h1M91 37h1M92 37h1M93 37h1M2 38h1M3 38h1M4 38h1M5 38h1M6 38h1M7 38h1M8 38h1M9 38h1M10 38h1M11 38h1M12 38h1M13 38h1M14 38h1M15 38h1M16 38h1M17 38h1M18 38h1M19 38h1M20 38h1M21 38h1M22 38h1M23 38h1M24 38h1M25 38h1M26 38h1M27 38h1M28 38h1M29 38h1M30 38h1M31 38h1M32 38h1M33 38h1M34 38h1M35 38h1M36 38h1M37 38h1M38 38h1M39 38h1M40 38h1M41 38h1M42 38h1M43 38h1M44 38h1M45 38h1M46 38h1M47 38h1M48 38h1M49 38h1M50 38h1M51 38h1M52 38h1M53 38h1M54 38h1M55 38h1M56 38h1M57 38h1M58 38h1M59 38h1M60 38h1M61 38h1M62 38h1M63 38h1M64 38h1M65 38h1M66 38h1M67 38h1M68 38h1M69 38h1M70 38h1M71 38h1M72 38h1M73 38h1M74 38h1M75 38h1M76 38h1M77 38h1M78 38h1M79 38h1M80 38h1M81 38h1M82 38h1M83 38h1M84 38h1M85 38h1M86 38h1M87 38h1M88 38h1M89 38h1M90 38h1M91 38h1M92 38h1M93 38h1M2 39h1M3 39h1M4 39h1M5 39h1M6 39h1M7 39h1M8 39h1M9 39h1M10 39h1M11 39h1M12 39h1M13 39h1M14 39h1M15 39h1M16 39h1M17 39h1M18 39h1M19 39h1M20 39h1M21 39h1M22 39h1M23 39h1M24 39h1M25 39h1M26 39h1M27 39h1M28 39h1M29 39h1M30 39h1M31 39h1M32 39h1M33 39h1M34 39h1M35 39h1M36 39h1M37 39h1M38 39h1M39 39h1M40 39h1M41 39h1M42 39h1M43 39h1M44 39h1M45 39h1M46 39h1M47 39h1M48 39h1M49 39h1M50 39h1M51 39h1M52 39h1M53 39h1M54 39h1M55 39h1M56 39h1M57 39h1M58 39h1M59 39h1M60 39h1M61 39h1M62 39h1M63 39h1M64 39h1M65 39h1M66 39h1M67 39h1M68 39h1M69 39h1M70 39h1M71 39h1M72 39h1M73 39h1M74 39h1M75 39h1M76 39h1M77 39h1M78 39h1M79 39h1M80 39h1M81 39h1M82 39h1M83 39h1M84 39h1M85 39h1M86 39h1M87 39h1M88 39h1M89 39h1M90 39h1M91 39h1M92 39h1M93 39h1M2 40h1M3 40h1M4 40h1M5 40h1M6 40h1M7 40h1M8 40h1M9 40h1M10 40h1M11 40h1M12 40h1M13 40h1M14 40h1M15 40h1M16 40h1M17 40h1M18 40h1M19 40h1M20 40h1M21 40h1M22 40h1M23 40h1M24 40h1M25 40h1M26 40h1M27 40h1M28 40h1M29 40h1M30 40h1M31 40h1M32 40h1M33 40h1M34 40h1M35 40h1M36 40h1M37 40h1M38 40h1M39 40h1M40 40h1M41 40h1M42 40h1M43 40h1M44 40h1M45 40h1M46 40h1M47 40h1M48 40h1M49 40h1M50 40h1M51 40h1M52 40h1M53 40h1M54 40h1M55 40h1M56 40h1M57 40h1M58 40h1M59 40h1M60 40h1M61 40h1M62 40h1M63 40h1M64 40h1M65 40h1M66 40h1M67 40h1M68 40h1M69 40h1M70 40h1M71 40h1M72 40h1M73 40h1M74 40h1M75 40h1M76 40h1M77 40h1M78 40h1M79 40h1M80 40h1M81 40h1M82 40h1M83 40h1M84 40h1M85 40h1M86 40h1M87 40h1M88 40h1M89 40h1M90 40h1M91 40h1M92 40h1M93 40h1M2 41h1M3 41h1M4 41h1M5 41h1M6 41h1M7 41h1M8 41h1M9 41h1M10 41h1M11 41h1M12 41h1M13 41h1M14 41h1M15 41h1M16 41h1M17 41h1M18 41h1M19 41h1M20 41h1M21 41h1M22 41h1M23 41h1M24 41h1M25 41h1M26 41h1M27 41h1M28 41h1M29 41h1M30 41h1M31 41h1M32 41h1M33 41h1M34 41h1M35 41h1M36 41h1M37 41h1M38 41h1M39 41h1M40 41h1M41 41h1M42 41h1M43 41h1M44 41h1M45 41h1M46 41h1M47 41h1M48 41h1M49 41h1M50 41h1M51 41h1M52 41h1M53 41h1M54 41h1M55 41h1M56 41h1M57 41h1M58 41h1M59 41h1M60 41h1M61 41h1M62 41h1M63 41h1M64 41h1M65 41h1M66 41h1M67 41h1M68 41h1M69 41h1M70 41h1M71 41h1M72 41h1M73 41h1M74 41h1M75 41h1M76 41h1M77 41h1M78 41h1M79 41h1M80 41h1M81 41h1M82 41h1M83 41h1M84 41h1M85 41h1M86 41h1M87 41h1M88 41h1M89 41h1M90 41h1M91 41h1M92 41h1M93 41h1M2 42h1M3 42h1M4 42h1M5 42h1M6 42h1M7 42h1M8 42h1M9 42h1M10 42h1M11 42h1M12 42h1M13 42h1M14 42h1M15 42h1M16 42h1M17 42h1M18 42h1M19 42h1M20 42h1M21 42h1M22 42h1M23 42h1M24 42h1M25 42h1M26 42h1M27 42h1M28 42h1M29 42h1M30 42h1M31 42h1M32 42h1M33 42h1M34 42h1M35 42h1M36 42h1M37 42h1M38 42h1M39 42h1M40 42h1M41 42h1M42 42h1M43 42h1M44 42h1M45 42h1M46 42h1M47 42h1M48 42h1M49 42h1M50 42h1M51 42h1M52 42h1M53 42h1M54 42h1M55 42h1M56 42h1M57 42h1M58 42h1M59 42h1M60 42h1M61 42h1M62 42h1M63 42h1M64 42h1M65 42h1M66 42h1M67 42h1M68 42h1M69 42h1M70 42h1M71 42h1M72 42h1M73 42h1M74 42h1M75 42h1M76 42h1M77 42h1M78 42h1M79 42h1M80 42h1M81 42h1M82 42h1M83 42h1M84 42h1M85 42h1M86 42h1M87 42h1M88 42h1M89 42h1M90 42h1M91 42h1M92 42h1M93 42h1M2 43h1M3 43h1M4 43h1M5 43h1M6 43h1M7 43h1M8 43h1M9 43h1M10 43h1M11 43h1M12 43h1M13 43h1M14 43h1M15 43h1M16 43h1M17 43h1M18 43h1M19 43h1M20 43h1M21 43h1M22 43h1M23 43h1M24 43h1M25 43h1M26 43h1M27 43h1M28 43h1M29 43h1M30 43h1M31 43h1M32 43h1M33 43h1M34 43h1M35 43h1M36 43h1M37 43h1M38 43h1M39 43h1M40 43h1M41 43h1M42 43h1M43 43h1M44 43h1M45 43h1M46 43h1M47 43h1M48 43h1M49 43h1M50 43h1M51 43h1M52 43h1M53 43h1M54 43h1M55 43h1M56 43h1M57 43h1M58 43h1M59 43h1M60 43h1M61 43h1M62 43h1M63 43h1M64 43h1M65 43h1M66 43h1M67 43h1M68 43h1M69 43h1M70 43h1M71 43h1M72 43h1M73 43h1M74 43h1M75 43h1M76 43h1M77 43h1M78 43h1M79 43h1M80 43h1M81 43h1M82 43h1M83 43h1M84 43h1M85 43h1M86 43h1M87 43h1M88 43h1M89 43h1M90 43h1M91 43h1M92 43h1M93 43h1M2 44h1M3 44h1M4 44h1M5 44h1M6 44h1M7 44h1M8 44h1M9 44h1M10 44h1M11 44h1M12 44h1M13 44h1M14 44h1M15 44h1M16 44h1M17 44h1M18 44h1M19 44h1M20 44h1M21 44h1M22 44h1M23 44h1M24 44h1M25 44h1M26 44h1M27 44h1M28 44h1M29 44h1M30 44h1M31 44h1M32 44h1M33 44h1M34 44h1M35 44h1M36 44h1M37 44h1M38 44h1M39 44h1M40 44h1M41 44h1M42 44h1M43 44h1M44 44h1M45 44h1M46 44h1M47 44h1M48 44h1M49 44h1M50 44h1M51 44h1M52 44h1M53 44h1M54 44h1M55 44h1M56 44h1M57 44h1M58 44h1M59 44h1M60 44h1M61 44h1M62 44h1M63 44h1M64 44h1M65 44h1M66 44h1M67 44h1M68 44h1M69 44h1M70 44h1M71 44h1M72 44h1M73 44h1M74 44h1M75 44h1M76 44h1M77 44h1M78 44h1M79 44h1M80 44h1M81 44h1M82 44h1M83 44h1M84 44h1M85 44h1M86 44h1M87 44h1M88 44h1M89 44h1M90 44h1M91 44h1M92 44h1M93 44h1M2 45h1M3 45h1M4 45h1M5 45h1M6 45h1M7 45h1M8 45h1M9 45h1M10 45h1M11 45h1M12 45h1M13 45h1M14 45h1M15 45h1M16 45h1M17 45h1M18 45h1M19 45h1M20 45h1M21 45h1M22 45h1M23 45h1M24 45h1M25 45h1M26 45h1M27 45h1M28 45h1M29 45h1M30 45h1M31 45h1M32 45h1M33 45h1M34 45h1M35 45h1M36 45h1M37 45h1M38 45h1M39 45h1M40 45h1M41 45h1M42 45h1M43 45h1M44 45h1M45 45h1M46 45h1M47 45h1M48 45h1M49 45h1M50 45h1M51 45h1M52 45h1M53 45h1M54 45h1M55 45h1M56 45h1M57 45h1M58 45h1M59 45h1M60 45h1M61 45h1M62 45h1M63 45h1M64 45h1M65 45h1M66 45h1M67 45h1M68 45h1M69 45h1M70 45h1M71 45h1M72 45h1M73 45h1M74 45h1M75 45h1M76 45h1M77 45h1M78 45h1M79 45h1M80 45h1M81 45h1M82 45h1M83 45h1M84 45h1M85 45h1M86 45h1M87 45h1M88 45h1M89 45h1M90 45h1M91 45h1M92 45h1M93 45h1M2 46h1M3 46h1M4 46h1M5 46h1M6 46h1M7 46h1M8 46h1M9 46h1M10 46h1M11 46h1M12 46h1M13 46h1M14 46h1M15 46h1M16 46h1M17 46h1M18 46h1M19 46h1M20 46h1M21 46h1M22 46h1M23 46h1M24 46h1M25 46h1M26 46h1M27 46h1M28 46h1M29 46h1M30 46h1M31 46h1M32 46h1M33 46h1M34 46h1M35 46h1M36 46h1M37 46h1M38 46h1M39 46h1M40 46h1M41 46h1M42 46h1M43 46h1M44 46h1M45 46h1M46 46h1M47 46h1M48 46h1M49 46h1M50 46h1M51 46h1M52 46h1M53 46h1M54 46h1M55 46h1M56 46h1M57 46h1M58 46h1M59 46h1M60 46h1M61 46h1M62 46h1M63 46h1M64 46h1M65 46h1M66 46h1M67 46h1M68 46h1M69 46h1M70 46h1M71 46h1M72 46h1M73 46h1M74 46h1M75 46h1M76 46h1M77 46h1M78 46h1M79 46h1M80 46h1M81 46h1M82 46h1M83 46h1M84 46h1M85 46h1M86 46h1M87 46h1M88 46h1M89 46h1M90 46h1M91 46h1M92 46h1M93 46h1M2 47h1M3 47h1M4 47h1M5 47h1M6 47h1M7 47h1M8 47h1M9 47h1M10 47h1M11 47h1M12 47h1M13 47h1M14 47h1M15 47h1M16 47h1M17 47h1M18 47h1M19 47h1M20 47h1M21 47h1M22 47h1M23 47h1M24 47h1M25 47h1M26 47h1M27 47h1M28 47h1M29 47h1M30 47h1M31 47h1M32 47h1M33 47h1M34 47h1M35 47h1M36 47h1M37 47h1M38 47h1M39 47h1M40 47h1M41 47h1M42 47h1M43 47h1M44 47h1M45 47h1M46 47h1M47 47h1M48 47h1M49 47h1M50 47h1M51 47h1M52 47h1M53 47h1M54 47h1M55 47h1M56 47h1M57 47h1M58 47h1M59 47h1M60 47h1M61 47h1M62 47h1M63 47h1M64 47h1M65 47h1M66 47h1M67 47h1M68 47h1M69 47h1M70 47h1M71 47h1M72 47h1M73 47h1M74 47h1M75 47h1M76 47h1M77 47h1M78 47h1M79 47h1M80 47h1M81 47h1M82 47h1M83 47h1M84 47h1M85 47h1M86 47h1M87 47h1M88 47h1M89 47h1M90 47h1M91 47h1M92 47h1M93 47h1M2 48h1M3 48h1M4 48h1M5 48h1M6 48h1M7 48h1M8 48h1M9 48h1M10 48h1M11 48h1M12 48h1M13 48h1M14 48h1M15 48h1M16 48h1M17 48h1M18 48h1M19 48h1M20 48h1M21 48h1M22 48h1M23 48h1M24 48h1M25 48h1M26 48h1M27 48h1M28 48h1M29 48h1M30 48h1M31 48h1M32 48h1M33 48h1M34 48h1M35 48h1M36 48h1M37 48h1M38 48h1M39 48h1M40 48h1M41 48h1M42 48h1M43 48h1M44 48h1M45 48h1M46 48h1M47 48h1M48 48h1M49 48h1M50 48h1M51 48h1M52 48h1M53 48h1M54 48h1M55 48h1M56 48h1M57 48h1M58 48h1M59 48h1M60 48h1M61 48h1M62 48h1M63 48h1M64 48h1M65 48h1M66 48h1M67 48h1M68 48h1M69 48h1M70 48h1M71 48h1M72 48h1M73 48h1M74 48h1M75 48h1M76 48h1M77 48h1M78 48h1M79 48h1M80 48h1M81 48h1M82 48h1M83 48h1M84 48h1M85 48h1M86 48h1M87 48h1M88 48h1M89 48h1M90 48h1M91 48h1M92 48h1M93 48h1M2 49h1M3 49h1M4 49h1M5 49h1M6 49h1M7 49h1M8 49h1M9 49h1M10 49h1M11 49h1M12 49h1M13 49h1M14 49h1M15 49h1M16 49h1M17 49h1M18 49h1M19 49h1M20 49h1M21 49h1M22 49h1M23 49h1M24 49h1M25 49h1M26 49h1M27 49h1M28 49h1M29 49h1M30 49h1M31 49h1M32 49h1M33 49h1M34 49h1M35 49h1M36 49h1M37 49h1M38 49h1M39 49h1M40 49h1M41 49h1M42 49h1M43 49h1M44 49h1M45 49h1M46 49h1M47 49h1M48 49h1M49 49h1M50 49h1M51 49h1M52 49h1M53 49h1M54 49h1M55 49h1M56 49h1M57 49h1M58 49h1M59 49h1M60 49h1M61 49h1M62 49h1M63 49h1M64 49h1M65 49h1M66 49h1M67 49h1M68 49h1M69 49h1M70 49h1M71 49h1M72 49h1M73 49h1M74 49h1M75 49h1M76 49h1M77 49h1M78 49h1M79 49h1M80 49h1M81 49h1M82 49h1M83 49h1M84 49h1M85 49h1M86 49h1M87 49h1M88 49h1M89 49h1M90 49h1M91 49h1M92 49h1M93 49h1M2 50h1M3 50h1M4 50h1M5 50h1M6 50h1M7 50h1M8 50h1M9 50h1M10 50h1M11 50h1M12 50h1M13 50h1M14 50h1M15 50h1M16 50h1M17 50h1M18 50h1M19 50h1M20 50h1M21 50h1M22 50h1M23 50h1M24 50h1M25 50h1M26 50h1M27 50h1M28 50h1M29 50h1M30 50h1M31 50h1M32 50h1M33 50h1M34 50h1M35 50h1M36 50h1M37 50h1M38 50h1M39 50h1M40 50h1M41 50h1M42 50h1M43 50h1M44 50h1M45 50h1M46 50h1M47 50h1M48 50h1M49 50h1M50 50h1M51 50h1M52 50h1M53 50h1M54 50h1M55 50h1M56 50h1M57 50h1M58 50h1M59 50h1M60 50h1M61 50h1M62 50h1M63 50h1M64 50h1M65 50h1M66 50h1M67 50h1M68 50h1M69 50h1M70 50h1M71 50h1M72 50h1M73 50h1M74 50h1M75 50h1M76 50h1M77 50h1M78 50h1M79 50h1M80 50h1M81 50h1M82 50h1M83 50h1M84 50h1M85 50h1M86 50h1M87 50h1M88 50h1M89 50h1M90 50h1M91 50h1M92 50h1M93 50h1M2 51h1M3 51h1M4 51h1M5 51h1M6 51h1M7 51h1M8 51h1M9 51h1M10 51h1M11 51h1M12 51h1M13 51h1M14 51h1M15 51h1M16 51h1M17 51h1M18 51h1M19 51h1M20 51h1M21 51h1M22 51h1M23 51h1M24 51h1M25 51h1M26 51h1M27 51h1M28 51h1M29 51h1M30 51h1M31 51h1M32 51h1M33 51h1M34 51h1M35 51h1M36 51h1M37 51h1M38 51h1M39 51h1M40 51h1M41 51h1M42 51h1M43 51h1M44 51h1M45 51h1M46 51h1M47 51h1M48 51h1M49 51h1M50 51h1M51 51h1M52 51h1M53 51h1M54 51h1M55 51h1M56 51h1M57 51h1M58 51h1M59 51h1M60 51h1M61 51h1M62 51h1M63 51h1M64 51h1M65 51h1M66 51h1M67 51h1M68 51h1M69 51h1M70 51h1M71 51h1M72 51h1M73 51h1M74 51h1M75 51h1M76 51h1M77 51h1M78 51h1M79 51h1M80 51h1M81 51h1M82 51h1M83 51h1M84 51h1M85 51h1M86 51h1M87 51h1M88 51h1M89 51h1M90 51h1M91 51h1M92 51h1M93 51h1M2 52h1M3 52h1M4 52h1M5 52h1M6 52h1M7 52h1M8 52h1M9 52h1M10 52h1M11 52h1M12 52h1M13 52h1M14 52h1M15 52h1M16 52h1M17 52h1M18 52h1M19 52h1M20 52h1M21 52h1M22 52h1M23 52h1M24 52h1M25 52h1M26 52h1M27 52h1M28 52h1M29 52h1M30 52h1M31 52h1M32 52h1M33 52h1M34 52h1M35 52h1M36 52h1M37 52h1M38 52h1M39 52h1M40 52h1M41 52h1M42 52h1M43 52h1M44 52h1M45 52h1M46 52h1M47 52h1M48 52h1M49 52h1M50 52h1M51 52h1M52 52h1M53 52h1M54 52h1M55 52h1M56 52h1M57 52h1M58 52h1M59 52h1M60 52h1M61 52h1M62 52h1M63 52h1M64 52h1M65 52h1M66 52h1M67 52h1M68 52h1M69 52h1M70 52h1M71 52h1M72 52h1M73 52h1M74 52h1M75 52h1M76 52h1M77 52h1M78 52h1M79 52h1M80 52h1M81 52h1M82 52h1M83 52h1M84 52h1M85 52h1M86 52h1M87 52h1M88 52h1M89 52h1M90 52h1M91 52h1M92 52h1M93 52h1M2 53h1M3 53h1M4 53h1M5 53h1M6 53h1M7 53h1M8 53h1M9 53h1M10 53h1M11 53h1M12 53h1M13 53h1M14 53h1M15 53h1M16 53h1M17 53h1M18 53h1M19 53h1M20 53h1M21 53h1M22 53h1M23 53h1M24 53h1M25 53h1M26 53h1M27 53h1M28 53h1M29 53h1M30 53h1M31 53h1M32 53h1M33 53h1M34 53h1M35 53h1M36 53h1M37 53h1M38 53h1M39 53h1M40 53h1M41 53h1M42 53h1M43 53h1M44 53h1M45 53h1M46 53h1M47 53h1M48 53h1M49 53h1M50 53h1M51 53h1M52 53h1M53 53h1M54 53h1M55 53h1M56 53h1M57 53h1M58 53h1M59 53h1M60 53h1M61 53h1M62 53h1M63 53h1M64 53h1M65 53h1M66 53h1M67 53h1M68 53h1M69 53h1M70 53h1M71 53h1M72 53h1M73 53h1M74 53h1M75 53h1M76 53h1M77 53h1M78 53h1M79 53h1M80 53h1M81 53h1M82 53h1M83 53h1M84 53h1M85 53h1M86 53h1M87 53h1M88 53h1M89 53h1M90 53h1M91 53h1M92 53h1M93 53h1M2 54h1M3 54h1M4 54h1M5 54h1M6 54h1M7 54h1M8 54h1M9 54h1M10 54h1M11 54h1M12 54h1M13 54h1M14 54h1M15 54h1M16 54h1M17 54h1M18 54h1M19 54h1M20 54h1M21 54h1M22 54h1M23 54h1M24 54h1M25 54h1M26 54h1M27 54h1M28 54h1M29 54h1M30 54h1M31 54h1M32 54h1M33 54h1M34 54h1M35 54h1M36 54h1M37 54h1M38 54h1M39 54h1M40 54h1M41 54h1M42 54h1M43 54h1M44 54h1M45 54h1M46 54h1M47 54h1M48 54h1M49 54h1M50 54h1M51 54h1M52 54h1M53 54h1M54 54h1M55 54h1M56 54h1M57 54h1M58 54h1M59 54h1M60 54h1M61 54h1M62 54h1M63 54h1M64 54h1M65 54h1M66 54h1M67 54h1M68 54h1M69 54h1M70 54h1M71 54h1M72 54h1M73 54h1M74 54h1M75 54h1M76 54h1M77 54h1M78 54h1M79 54h1M80 54h1M81 54h1M82 54h1M83 54h1M84 54h1M85 54h1M86 54h1M87 54h1M88 54h1M89 54h1M90 54h1M91 54h1M92 54h1M93 54h1M2 55h1M3 55h1M4 55h1M5 55h1M6 55h1M7 55h1M8 55h1M9 55h1M10 55h1M11 55h1M12 55h1M13 55h1M14 55h1M15 55h1M16 55h1M17 55h1M18 55h1M19 55h1M20 55h1M21 55h1M22 55h1M23 55h1M24 55h1M25 55h1M26 55h1M27 55h1M28 55h1M29 55h1M30 55h1M31 55h1M32 55h1M33 55h1M34 55h1M35 55h1M36 55h1M37 55h1M38 55h1M39 55h1M40 55h1M41 55h1M42 55h1M43 55h1M44 55h1M45 55h1M46 55h1M47 55h1M48 55h1M49 55h1M50 55h1M51 55h1M52 55h1M53 55h1M54 55h1M55 55h1M56 55h1M57 55h1M58 55h1M59 55h1M60 55h1M61 55h1M62 55h1M63 55h1M64 55h1M65 55h1M66 55h1M67 55h1M68 55h1M69 55h1M70 55h1M71 55h1M72 55h1M73 55h1M74 55h1M75 55h1M76 55h1M77 55h1M78 55h1M79 55h1M80 55h1M81 55h1M82 55h1M83 55h1M84 55h1M85 55h1M86 55h1M87 55h1M88 55h1M89 55h1M90 55h1M91 55h1M92 55h1M93 55h1M2 56h1M3 56h1M4 56h1M5 56h1M6 56h1M7 56h1M8 56h1M9 56h1M10 56h1M11 56h1M12 56h1M13 56h1M14 56h1M15 56h1M16 56h1M17 56h1M18 56h1M19 56h1M20 56h1M21 56h1M22 56h1M23 56h1M24 56h1M25 56h1M26 56h1M27 56h1M28 56h1M29 56h1M30 56h1M31 56h1M32 56h1M33 56h1M34 56h1M35 56h1M36 56h1M37 56h1M38 56h1M39 56h1M40 56h1M41 56h1M42 56h1M43 56h1M44 56h1M45 56h1M46 56h1M47 56h1M48 56h1M49 56h1M50 56h1M51 56h1M52 56h1M53 56h1M54 56h1M55 56h1M56 56h1M57 56h1M58 56h1M59 56h1M60 56h1M61 56h1M62 56h1M63 56h1M64 56h1M65 56h1M66 56h1M67 56h1M68 56h1M69 56h1M70 56h1M71 56h1M72 56h1M73 56h1M74 56h1M75 56h1M76 56h1M77 56h1M78 56h1M79 56h1M80 56h1M81 56h1M82 56h1M83 56h1M84 56h1M85 56h1M86 56h1M87 56h1M88 56h1M89 56h1M90 56h1M91 56h1M92 56h1M93 56h1M2 57h1M3 57h1M4 57h1M5 57h1M6 57h1M7 57h1M8 57h1M9 57h1M10 57h1M11 57h1M12 57h1M13 57h1M14 57h1M15 57h1M16 57h1M17 57h1M18 57h1M19 57h1M20 57h1M21 57h1M22 57h1M23 57h1M24 57h1M25 57h1M26 57h1M27 57h1M28 57h1M29 57h1M30 57h1M31 57h1M32 57h1M33 57h1M34 57h1M35 57h1M36 57h1M37 57h1M38 57h1M39 57h1M40 57h1M41 57h1M42 57h1M43 57h1M44 57h1M45 57h1M46 57h1M47 57h1M48 57h1M49 57h1M50 57h1M51 57h1M52 57h1M53 57h1M54 57h1M55 57h1M56 57h1M57 57h1M58 57h1M59 57h1M60 57h1M61 57h1M62 57h1M63 57h1M64 57h1M65 57h1M66 57h1M67 57h1M68 57h1M69 57h1M70 57h1M71 57h1M72 57h1M73 57h1M74 57h1M75 57h1M76 57h1M77 57h1M78 57h1M79 57h1M80 57h1M81 57h1M82 57h1M83 57h1M84 57h1M85 57h1M86 57h1M87 57h1M88 57h1M89 57h1M90 57h1M91 57h1M92 57h1M93 57h1M2 58h1M3 58h1M4 58h1M5 58h1M6 58h1M7 58h1M8 58h1M9 58h1M10 58h1M11 58h1M12 58h1M13 58h1M14 58h1M15 58h1M16 58h1M17 58h1M18 58h1M19 58h1M20 58h1M21 58h1M22 58h1M23 58h1M24 58h1M25 58h1M26 58h1M27 58h1M28 58h1M29 58h1M30 58h1M31 58h1M32 58h1M33 58h1M34 58h1M35 58h1M36 58h1M37 58h1M38 58h1M39 58h1M40 58h1M41 58h1M42 58h1M43 58h1M44 58h1M45 58h1M46 58h1M47 58h1M48 58h1M49 58h1M50 58h1M51 58h1M52 58h1M53 58h1M54 58h1M55 58h1M56 58h1M57 58h1M58 58h1M59 58h1M60 58h1M61 58h1M62 58h1M63 58h1M64 58h1M65 58h1M66 58h1M67 58h1M68 58h1M69 58h1M70 58h1M71 58h1M72 58h1M73 58h1M74 58h1M75 58h1M76 58h1M77 58h1M78 58h1M79 58h1M80 58h1M81 58h1M82 58h1M83 58h1M84 58h1M85 58h1M86 58h1M87 58h1M88 58h1M89 58h1M90 58h1M91 58h1M92 58h1M93 58h1M2 59h1M3 59h1M4 59h1M5 59h1M6 59h1M7 59h1M8 59h1M9 59h1M10 59h1M11 59h1M12 59h1M13 59h1M14 59h1M15 59h1M16 59h1M17 59h1M18 59h1M19 59h1M20 59h1M21 59h1M22 59h1M23 59h1M24 59h1M25 59h1M26 59h1M27 59h1M28 59h1M29 59h1M30 59h1M31 59h1M32 59h1M33 59h1M34 59h1M35 59h1M36 59h1M37 59h1M38 59h1M39 59h1M40 59h1M41 59h1M42 59h1M43 59h1M44 59h1M45 59h1M46 59h1M47 59h1M48 59h1M49 59h1M50 59h1M51 59h1M52 59h1M53 59h1M54 59h1M55 59h1M56 59h1M57 59h1M58 59h1M59 59h1M60 59h1M61 59h1M62 59h1M63 59h1M64 59h1M65 59h1M66 59h1M67 59h1M68 59h1M69 59h1M70 59h1M71 59h1M72 59h1M73 59h1M74 59h1M75 59h1M76 59h1M77 59h1M78 59h1M79 59h1M80 59h1M81 59h1M82 59h1M83 59h1M84 59h1M85 59h1M86 59h1M87 59h1M88 59h1M89 59h1M90 59h1M91 59h1M92 59h1M93 59h1" />
<path stroke="#1b4ab9" d="M1 5h1M1 6h1M1 7h1M1 8h1M1 9h1M1 10h1M1 11h1M1 12h1M1 13h1M1 14h1M1 15h1M1 16h1M1 17h1M1 18h1M1 19h1M1 20h1M1 21h1M1 22h1M1 23h1M1 24h1M1 25h1M1 26h1M1 27h1M1 28h1M1 29h1M1 30h1M1 31h1M1 32h1M1 33h1M1 34h1M1 35h1M1 36h1M1 37h1M1 38h1M1 39h1M1 40h1M1 41h1M1 42h1M1 43h1M1 44h1M1 45h1M1 46h1M1 47h1M1 48h1M1 49h1M1 50h1M1 51h1M1 52h1M1 53h1M1 54h1M1 55h1M1 56h1M1 57h1M1 58h1M1 59h1M94 59h1" />
</svg>