<svg xmlns="http://www.w3.org/2000/svg" viewBox="0 -0.5 128 32" shape-rendering="crispEdges">
  <path stroke="#000000" d="M0 0h1M1 0h1M2 0h1M3 0h1M4 0h1M5 0h1M6 0h1M7 0h1M8 0h1M9 0h1M10 0h1M11 0h1M12 0h1M13 0h1M14 0h1M15 0h1M16 0h1M17 0h1M18 0h1M19 0h1M20 0h1M21 0h1M22 0h1M23 0h1M24 0h1M25 0h1M26 0h1M27 0h1M28 0h1M29 0h1M30 0h1M31 0h1M32 0h1M33 0h1M34 0h1M35 0h1M36 0h1M37 0h1M38 0h1M39 0h1M40 0h1M41 0h1M42 0h1M43 0h1M44 0h1M45 0h1M46 0h1M47 0h1M48 0h1M49 0h1M50 0h1M51 0h1M52 0h1M53 0h1M54 0h1M55 0h1M56 0h1M57 0h1M58 0h1M59 0h1M60 0h1M61 0h1M62 0h1M63 0h1M64 0h1M65 0h1M66 0h1M67 0h1M68 0h1M69 0h1M70 0h1M71 0h1M72 0h1M73 0h1M74 0h1M75 0h1M76 0h1M77 0h1M78 0h1M79 0h1M80 0h1M81 0h1M82 0h1M83 0h1M84 0h1M85 0h1M86 0h1M87 0h1M88 0h1M89 0h1M90 0h1M91 0h1M92 0h1M93 0h1M94 0h1M95 0h1M96 0h1M97 0h1M98 0h1M99 0h1M100 0h1M101 0h1M102 0h1M103 0h1M104 0h1M105 0h1M106 0h1M107 0h1M108 0h1M109 0h1M110 0h1M111 0h1M112 0h1M113 0h1M114 0h1M115 0h1M116 0h1M117 0h1M118 0h1M119 0h1M120 0h1M121 0h1M122 0h1M123 0h1M124 0h1M125 0h1M126 0h1M127 0h1M0 1h1M1 1h1M2 1h1M3 1h1M4 1h1M5 1h1M6 1h1M7 1h1M8 1h1M9 1h1M10 1h1M11 1h1M12 1h1M13 1h1M14 1h1M15 1h1M16 1h1M17 1h1M18 1h1M19 1h1M20 1h1M21 1h1M22 1h1M23 1h1M24 1h1M25 1h1M26 1h1M27 1h1M28 1h1M29 1h1M30 1h1M31 1h1M32 1h1M33 1h1M34 1h1M35 1h1M36 1h1M37 1h1M38 1h1M39 1h1M40 1h1M41 1h1M42 1h1M43 1h1M44 1h1M45 1h1M46 1h1M47 1h1M48 1h1M49 1h1M50 1h1M51 1h1M52 1h1M53 1h1M54 1h1M55 1h1M56 1h1M57 1h1M58 1h1M59 1h1M60 1h1M61 1h1M62 1h1M63 1h1M64 1h1M65 1h1M66 1h1M67 1h1M68 1h1M69 1h1M70 1h1M71 1h1M72 1h1M73 1h1M74 1h1M75 1h1M76 1h1M77 1h1M78 1h1M79 1h1M80 1h1M81 1h1M82 1h1M83 1h1M84 1h1M85 1h1M86 1h1M87 1h1M88 1h1M89 1h1M90 1h1M91 1h1M92 1h1M93 1h1M94 1h1M95 1h1M96 1h1M97 1h1M98 1h1M99 1h1M100 1h1M101 1h1M102 1h1M103 1h1M104 1h1M105 1h1M106 1h1M107 1h1M108 1h1M109 1h1M110 1h1M111 1h1M112 1h1M113 1h1M114 1h1M115 1h1M116 1h1M117 1h1M118 1h1M119 1h1M120 1h1M121 1h1M122 1h1M123 1h1M124 1h1M125 1h1M126 1h1M127 1h1M0 2h1M1 2h1M2 2h1M3 2h1M4 2h1M5 2h1M6 2h1M7 2h1M8 2h1M9 2h1M10 2h1M11 2h1M12 2h1M13 2h1M14 2h1M15 2h1M16 2h1M17 2h1M18 2h1M19 2h1M20 2h1M21 2h1M22 2h1M23 2h1M24 2h1M25 2h1M26 2h1M27 2h1M28 2h1M29 2h1M30 2h1M31 2h1M32 2h1M33 2h1M34 2h1M35 2h1M36 2h1M37 2h1M38 2h1M39 2h1M40 2h1M41 2h1M42 2h1M43 2h1M44 2h1M45 2h1M46 2h1M47 2h1M48 2h1M49 2h1M50 2h1M51 2h1M52 2h1M53 2h1M54 2h1M55 2h1M56 2h1M57 2h1M58 2h1M59 2h1M60 2h1M61 2h1M62 2h1M63 2h1M64 2h1M65 2h1M66 2h1M67 2h1M68 2h1M69 2h1M70 2h1M71 2h1M72 2h1M73 2h1M74 2h1M75 2h1M76 2h1M77 2h1M78 2h1M79 2h1M80 2h1M81 2h1M82 2h1M83 2h1M84 2h1M85 2h1M86 2h1M87 2h1M88 2h1M89 2h1M90 2h1M91 2h1M92 2h1M93 2h1M94 2h1M95 2h1M96 2h1M97 2h1M98 2h1M99 2h1M100 2h1M101 2h1M102 2h1M103 2h1M104 2h1M105 2h1M106 2h1M107 2h1M108 2h1M109 2h1M110 2h1M111 2h1M112 2h1M113 2h1M114 2h1M115 2h1M116 2h1M117 2h1M118 2h1M119 2h1M120 2h1M121 2h1M122 2h1M123 2h1M124 2h1M125 2h1M126 2h1M127 2h1M0 3h1M1 3h1M126 3h1M127 3h1M0 4h1M1 4h1M126 4h1M127 4h1M0 5h1M1 5h1M126 5h1M127 5h1M0 6h1M1 6h1M126 6h1M127 6h1M0 7h1M1 7h1M126 7h1M127 7h1M0 8h1M1 8h1M126 8h1M127 8h1M0 9h1M1 9h1M126 9h1M127 9h1M0 10h1M1 10h1M126 10h1M127 10h1M0 11h1M1 11h1M126 11h1M127 11h1M0 12h1M1 12h1M126 12h1M127 12h1M0 13h1M1 13h1M126 13h1M127 13h1M0 14h1M1 14h1M126 14h1M127 14h1M0 15h1M1 15h1M126 15h1M127 15h1M0 16h1M1 16h1M126 16h1M127 16h1M0 17h1M1 17h1M126 17h1M127 17h1M0 18h1M1 18h1M126 18h1M127 18h1M0 19h1M1 19h1M126 19h1M127 19h1M0 20h1M1 20h1M126 20h1M127 20h1M0 21h1M1 21h1M126 21h1M127 21h1M0 22h1M1 22h1M126 22h1M127 22h1M0 23h1M1 23h1M126 23h1M127 23h1M0 24h1M1 24h1M126 24h1M127 24h1M0 25h1M1 25h1M126 25h1M127 25h1M0 26h1M1 26h1M126 26h1M127 26h1M0 27h1M1 27h1M126 27h1M127 27h1M0 28h1M1 28h1M126 28h1M127 28h1M0 29h1M1 29h1M126 29h1M127 29h1M0 30h1M1 30h1M2 30h1M3 30h1M4 30h1M5 30h1M6 30h1M7 30h1M8 30h1M9 30h1M10 30h1M11 30h1M12 30h1M13 30h1M14 30h1M15 30h1M16 30h1M17 30h1M18 30h1M19 30h1M20 30h1M21 30h1M22 30h1M23 30h1M24 30h1M25 30h1M26 30h1M27 30h1M28 30h1M29 30h1M30 30h1M31 30h1M32 30h1M33 30h1M34 30h1M35 30h1M36 30h1M37 30h1M38 30h1M39 30h1M40 30h1M41 30h1M42 30h1M43 30h1M44 30h1M45 30h1M46 30h1M47 30h1M48 30h1M49 30h1M50 30h1M51 30h1M52 30h1M53 30h1M54 30h1M55 30h1M56 30h1M57 30h1M58 30h1M59 30h1M60 30h1M61 30h1M62 30h1M63 30h1M64 30h1M65 30h1M66 30h1M67 30h1M68 30h1M69 30h1M70 30h1M71 30h1M72 30h1M73 30h1M74 30h1M75 30h1M76 30h1M77 30h1M78 30h1M79 30h1M80 30h1M81 30h1M82 30h1M83 30h1M84 30h1M85 30h1M86 30h1M87 30h1M88 30h1M89 30h1M90 30h1M91 30h1M92 30h1M93 30h1M94 30h1M95 30h1M96 30h1M97 30h1M98 30h1M99 30h1M100 30h1M101 30h1M102 30h1M103 30h1M104 30h1M105 30h1M106 30h1M107 30h1M108 30h1M109 30h1M110 30h1M111 30h1M112 30h1M113 30h1M114 30h1M115 30h1M116 30h1M117 30h1M118 30h1M119 30h1M120 30h1M121 30h1M122 30h1M123 30h1M124 30h1M125 30h1M126 30h1M127 30h1M0 31h1M1 31h1M2 31h1M3 31h1M4 31h1M5 31h1M6 31h1M7 31h1M8 31h1M9 31h1M10 31h1M11 31h1M12 31h1M13 31h1M14 31h1M15 31h1M16 31h1M17 31h1M18 31h1M19 31h1M20 31h1M21 31h1M22 31h1M23 31h1M24 31h1M25 31h1M26 31h1M27 31h1M28 31h1M29 31h1M30 31h1M31 31h1M32 31h1M33 31h1M34 31h1M35 31h1M36 31h1M37 31h1M38 31h1M39 31h1M40 31h1M41 31h1M42 31h1M43 31h1M44 31h1M45 31h1M46 31h1M47 31h1M48 31h1M49 31h1M50 31h1M51 31h1M52 31h1M53 31h1M54 31h1M55 31h1M56 31h1M57 31h1M58 31h1M59 31h1M60 31h1M61 31h1M62 31h1M63 31h1M64 31h1M65 31h1M66 31h1M67 31h1M68 31h1M69 31h1M70 31h1M71 31h1M72 31h1M73 31h1M74 31h1M75 31h1M76 31h1M77 31h1M78 31h1M79 31h1M80 31h1M81 31h1M82 31h1M83 31h1M84 31h1M85 31h1M86 31h1M87 31h1M88 31h1M89 31h1M90 31h1M91 31h1M92 31h1M93 31h1M94 31h1M95 31h1M96 31h1M97 31h1M98 31h1M99 31h1M100 31h1M101 31h1M102 31h1M103 31h1M104 31h1M105 31h1M106 31h1M107 31h1M108 31h1M109 31h1M110 31h1M111 31h1M112 31h1M113 31h1M114 31h1M115 31h1M116 31h1M117 31h1M118 31h1M119 31h1M120 31h1M121 31h1M122 31h1M123 31h1M124 31h1M125 31h1M126 31h1M127 31h1" />
<path stroke="#fffdf5" d="M2 3h1M3 3h1M4 3h1M5 3h1M6 3h1M7 3h1M8 3h1M9 3h1M10 3h1M11 3h1M12 3h1M13 3h1M14 3h1M15 3h1M16 3h1M17 3h1M18 3h1M19 3h1M20 3h1M21 3h1M22 3h1M23 3h1M24 3h1M25 3h1M26 3h1M27 3h1M28 3h1M29 3h1M30 3h1M31 3h1M32 3h1M33 3h1M34 3h1M35 3h1M36 3h1M37 3h1M38 3h1M39 3h1M40 3h1M41 3h1M42 3h1M43 3h1M44 3h1M45 3h1M46 3h1M47 3h1M48 3h1M49 3h1M50 3h1M51 3h1M52 3h1M53 3h1M54 3h1M55 3h1M56 3h1M57 3h1M58 3h1M59 3h1M60 3h1M61 3h1M62 3h1M63 3h1M64 3h1M65 3h1M66 3h1M67 3h1M68 3h1M69 3h1M70 3h1M71 3h1M72 3h1M73 3h1M74 3h1M75 3h1M76 3h1M77 3h1M78 3h1M79 3h1M80 3h1M81 3h1M82 3h1M83 3h1M84 3h1M85 3h1M86 3h1M87 3h1M88 3h1M89 3h1M90 3h1M91 3h1M92 3h1M93 3h1M94 3h1M95 3h1M96 3h1M97 3h1M98 3h1M99 3h1M100 3h1M101 3h1M102 3h1M103 3h1M104 3h1M105 3h1M106 3h1M107 3h1M108 3h1M109 3h1M110 3h1M111 3h1M112 3h1M113 3h1M114 3h1M115 3h1M116 3h1M117 3h1M118 3h1M119 3h1M120 3h1M121 3h1M122 3h1M123 3h1M124 3h1M125 3h1M2 4h1M3 4h1M4 4h1M5 4h1M6 4h1M7 4h1M8 4h1M9 4h1M10 4h1M11 4h1M12 4h1M13 4h1M14 4h1M15 4h1M16 4h1M17 4h1M18 4h1M19 4h1M20 4h1M21 4h1M22 4h1M23 4h1M24 4h1M25 4h1M26 4h1M27 4h1M28 4h1M29 4h1M30 4h1M31 4h1M32 4h1M33 4h1M34 4h1M35 4h1M36 4h1M37 4h1M38 4h1M39 4h1M40 4h1M41 4h1M42 4h1M43 4h1M44 4h1M45 4h1M46 4h1M47 4h1M48 4h1M49 4h1M50 4h1M51 4h1M52 4h1M53 4h1M54 4h1M55 4h1M56 4h1M57 4h1M58 4h1M59 4h1M60 4h1M61 4h1M62 4h1M63 4h1M64 4h1M65 4h1M66 4h1M67 4h1M68 4h1M69 4h1M70 4h1M71 4h1M72 4h1M73 4h1M74 4h1M75 4h1M76 4h1M77 4h1M78 4h1M79 4h1M80 4h1M81 4h1M82 4h1M83 4h1M84 4h1M85 4h1M86 4h1M87 4h1M88 4h1M89 4h1M90 4h1M91 4h1M92 4h1M93 4h1M94 4h1M95 4h1M96 4h1M97 4h1M98 4h1M99 4h1M100 4h1M101 4h1M102 4h1M103 4h1M104 4h1M105 4h1M106 4h1M107 4h1M108 4h1M109 4h1M110 4h1M111 4h1M112 4h1M113 4h1M114 4h1M115 4h1M116 4h1M117 4h1M118 4h1M119 4h1M120 4h1M121 4h1M122 4h1M123 4h1M124 4h1M125 4h1M2 5h1M3 5h1M4 5h1M5 5h1M6 5h1M7 5h1M8 5h1M9 5h1M10 5h1M11 5h1M12 5h1M13 5h1M14 5h1M15 5h1M16 5h1M17 5h1M18 5h1M19 5h1M20 5h1M21 5h1M22 5h1M23 5h1M24 5h1M25 5h1M26 5h1M27 5h1M28 5h1M29 5h1M30 5h1M31 5h1M32 5h1M33 5h1M34 5h1M35 5h1M36 5h1M37 5h1M38 5h1M39 5h1M40 5h1M41 5h1M42 5h1M43 5h1M44 5h1M45 5h1M46 5h1M47 5h1M48 5h1M49 5h1M50 5h1M51 5h1M52 5h1M53 5h1M54 5h1M55 5h1M56 5h1M57 5h1M58 5h1M59 5h1M60 5h1M61 5h1M62 5h1M63 5h1M64 5h1M65 5h1M66 5h1M67 5h1M68 5h1M69 5h1M70 5h1M71 5h1M72 5h1M73 5h1M74 5h1M75 5h1M76 5h1M77 5h1M78 5h1M79 5h1M80 5h1M81 5h1M82 5h1M83 5h1M84 5h1M85 5h1M86 5h1M87 5h1M88 5h1M89 5h1M90 5h1M91 5h1M92 5h1M93 5h1M94 5h1M95 5h1M96 5h1M97 5h1M98 5h1M99 5h1M100 5h1M101 5h1M102 5h1M103 5h1M104 5h1M105 5h1M106 5h1M107 5h1M108 5h1M109 5h1M110 5h1M111 5h1M112 5h1M113 5h1M114 5h1M115 5h1M116 5h1M117 5h1M118 5h1M119 5h1M120 5h1M121 5h1M122 5h1M123 5h1M124 5h1M125 5h1M2 6h1M3 6h1M4 6h1M5 6h1M6 6h1M7 6h1M8 6h1M9 6h1M10 6h1M11 6h1M12 6h1M13 6h1M14 6h1M15 6h1M16 6h1M17 6h1M18 6h1M19 6h1M20 6h1M21 6h1M22 6h1M23 6h1M24 6h1M25 6h1M26 6h1M27 6h1M28 6h1M29 6h1M30 6h1M31 6h1M32 6h1M33 6h1M34 6h1M35 6h1M36 6h1M37 6h1M38 6h1M39 6h1M40 6h1M41 6h1M42 6h1M43 6h1M44 6h1M45 6h1M46 6h1M47 6h1M48 6h1M49 6h1M50 6h1M51 6h1M52 6h1M53 6h1M54 6h1M55 6h1M56 6h1M57 6h1M58 6h1M59 6h1M60 6h1M61 6h1M62 6h1M63 6h1M64 6h1M65 6h1M66 6h1M67 6h1M68 6h1M69 6h1M70 6h1M71 6h1M72 6h1M73 6h1M74 6h1M75 6h1M76 6h1M77 6h1M78 6h1M79 6h1M80 6h1M81 6h1M82 6h1M83 6h1M84 6h1M85 6h1M86 6h1M87 6h1M88 6h1M89 6h1M90 6h1M91 6h1M92 6h1M93 6h1M94 6h1M95 6h1M96 6h1M97 6h1M98 6h1M99 6h1M100 6h1M101 6h1M102 6h1M103 6h1M104 6h1M105 6h1M106 6h1M107 6h1M108 6h1M109 6h1M110 6h1M111 6h1M112 6h1M113 6h1M114 6h1M115 6h1M116 6h1M117 6h1M118 6h1M119 6h1M120 6h1M121 6h1M122 6h1M123 6h1M124 6h1M125 6h1M2 7h1M3 7h1M4 7h1M5 7h1M6 7h1M122 7h1M123 7h1M124 7h1M125 7h1M2 8h1M3 8h1M4 8h1M5 8h1M6 8h1M122 8h1M123 8h1M124 8h1M125 8h1M2 9h1M3 9h1M4 9h1M5 9h1M6 9h1M122 9h1M123 9h1M124 9h1M125 9h1M2 10h1M3 10h1M4 10h1M5 10h1M6 10h1M122 10h1M123 10h1M124 10h1M125 10h1M2 11h1M3 11h1M4 11h1M5 11h1M6 11h1M122 11h1M123 11h1M124 11h1M125 11h1M2 12h1M3 12h1M4 12h1M5 12h1M6 12h1M122 12h1M123 12h1M124 12h1M125 12h1M2 13h1M3 13h1M4 13h1M5 13h1M6 13h1M122 13h1M123 13h1M124 13h1M125 13h1M2 14h1M3 14h1M4 14h1M5 14h1M6 14h1M122 14h1M123 14h1M124 14h1M125 14h1M2 15h1M3 15h1M4 15h1M5 15h1M6 15h1M122 15h1M123 15h1M124 15h1M125 15h1M2 16h1M3 16h1M4 16h1M5 16h1M6 16h1M122 16h1M123 16h1M124 16h1M125 16h1M2 17h1M3 17h1M4 17h1M5 17h1M6 17h1M122 17h1M123 17h1M124 17h1M125 17h1M2 18h1M3 18h1M4 18h1M5 18h1M6 18h1M122 18h1M123 18h1M124 18h1M125 18h1M2 19h1M3 19h1M4 19h1M5 19h1M6 19h1M122 19h1M123 19h1M124 19h1M125 19h1M2 20h1M3 20h1M4 20h1M5 20h1M6 20h1M122 20h1M123 20h1M124 20h1M125 20h1M2 21h1M3 21h1M4 21h1M5 21h1M6 21h1M7 21h1M8 21h1M9 21h1M10 21h1M11 21h1M12 21h1M13 21h1M14 21h1M15 21h1M16 21h1M17 21h1M18 21h1M19 21h1M20 21h1M21 21h1M22 21h1M23 21h1M24 21h1M25 21h1M26 21h1M27 21h1M28 21h1M29 21h1M30 21h1M31 21h1M32 21h1M33 21h1M34 21h1M35 21h1M36 21h1M37 21h1M38 21h1M39 21h1M40 21h1M41 21h1M42 21h1M43 21h1M44 21h1M45 21h1M46 21h1M47 21h1M48 21h1M49 21h1M50 21h1M51 21h1M52 21h1M53 21h1M54 21h1M55 21h1M56 21h1M57 21h1M58 21h1M59 21h1M60 21h1M61 21h1M62 21h1M63 21h1M64 21h1M65 21h1M66 21h1M67 21h1M68 21h1M69 21h1M70 21h1M71 21h1M72 21h1M73 21h1M74 21h1M75 21h1M76 21h1M77 21h1M78 21h1M79 21h1M80 21h1M81 21h1M82 21h1M83 21h1M84 21h1M85 21h1M86 21h1M87 21h1M88 21h1M89 21h1M90 21h1M91 21h1M92 21h1M93 21h1M94 21h1M95 21h1M96 21h1M97 21h1M98 21h1M99 21h1M100 21h1M101 21h1M102 21h1M103 21h1M104 21h1M105 21h1M106 21h1M107 21h1M108 21h1M109 21h1M110 21h1M111 21h1M112 21h1M113 21h1M114 21h1M115 21h1M116 21h1M117 21h1M118 21h1M119 21h1M120 21h1M121 21h1M122 21h1M123 21h1M124 21h1M125 21h1M2 22h1M3 22h1M4 22h1M5 22h1M6 22h1M7 22h1M8 22h1M9 22h1M10 22h1M11 22h1M12 22h1M13 22h1M14 22h1M15 22h1M16 22h1M17 22h1M18 22h1M19 22h1M20 22h1M21 22h1M22 22h1M23 22h1M24 22h1M25 22h1M26 22h1M27 22h1M28 22h1M29 22h1M30 22h1M31 22h1M32 22h1M33 22h1M34 22h1M35 22h1M36 22h1M37 22h1M38 22h1M39 22h1M40 22h1M41 22h1M42 22h1M43 22h1M44 22h1M45 22h1M46 22h1M47 22h1M48 22h1M49 22h1M50 22h1M51 22h1M52 22h1M53 22h1M54 22h1M55 22h1M56 22h1M57 22h1M58 22h1M59 22h1M60 22h1M61 22h1M62 22h1M63 22h1M64 22h1M65 22h1M66 22h1M67 22h1M68 22h1M69 22h1M70 22h1M71 22h1M72 22h1M73 22h1M74 22h1M75 22h1M76 22h1M77 22h1M78 22h1M79 22h1M80 22h1M81 22h1M82 22h1M83 22h1M84 22h1M85 22h1M86 22h1M87 22h1M88 22h1M89 22h1M90 22h1M91 22h1M92 22h1M93 22h1M94 22h1M95 22h1M96 22h1M97 22h1M98 22h1M99 22h1M100 22h1M101 22h1M102 22h1M103 22h1M104 22h1M105 22h1M106 22h1M107 22h1M108 22h1M109 22h1M110 22h1M111 22h1M112 22h1M113 22h1M114 22h1M115 22h1M116 22h1M117 22h1M118 22h1M119 22h1M120 22h1M121 22h1M122 22h1M123 22h1M124 22h1M125 22h1M2 23h1M3 23h1M4 23h1M5 23h1M6 23h1M7 23h1M8 23h1M9 23h1M10 23h1M11 23h1M12 23h1M13 23h1M14 23h1M15 23h1M16 23h1M17 23h1M18 23h1M19 23h1M20 23h1M21 23h1M22 23h1M23 23h1M24 23h1M25 23h1M26 23h1M27 23h1M28 23h1M29 23h1M30 23h1M31 23h1M32 23h1M33 23h1M34 23h1M35 23h1M36 23h1M37 23h1M38 23h1M39 23h1M40 23h1M41 23h1M42 23h1M43 23h1M44 23h1M45 23h1M46 23h1M47 23h1M48 23h1M49 23h1M50 23h1M51 23h1M52 23h1M53 23h1M54 23h1M55 23h1M56 23h1M57 23h1M58 23h1M59 23h1M60 23h1M61 23h1M62 23h1M63 23h1M64 23h1M65 23h1M66 23h1M67 23h1M68 23h1M69 23h1M70 23h1M71 23h1M72 23h1M73 23h1M74 23h1M75 23h1M76 23h1M77 23h1M78 23h1M79 23h1M80 23h1M81 23h1M82 23h1M83 23h1M84 23h1M85 23h1M86 23h1M87 23h1M88 23h1M89 23h1M90 23h1M91 23h1M92 23h1M93 23h1M94 23h1M95 23h1M96 23h1M97 23h1M98 23h1M99 23h1M100 23h1M101 23h1M102 23h1M103 23h1M104 23h1M105 23h1M106 23h1M107 23h1M108 23h1M109 23h1M110 23h1M111 23h1M112 23h1M113 23h1M114 23h1M115 23h1M116 23h1M117 23h1M118 23h1M119 23h1M120 23h1M121 23h1M122 23h1M123 23h1M124 23h1M125 23h1M2 24h1M3 24h1M4 24h1M5 24h1M6 24h1M7 24h1M8 24h1M9 24h1M10 24h1M11 24h1M12 24h1M13 24h1M14 24h1M15 24h1M16 24h1M17 24h1M18 24h1M19 24h1M20 24h1M21 24h1M22 24h1M23 24h1M24 24h1M25 24h1M26 24h1M27 24h1M28 24h1M29 24h1M30 24h1M31 24h1M32 24h1M33 24h1M34 24h1M35 24h1M36 24h1M37 24h1M38 24h1M39 24h1M40 24h1M41 24h1M42 24h1M43 24h1M44 24h1M45 24h1M46 24h1M47 24h1M48 24h1M49 24h1M50 24h1M51 24h1M52 24h1M53 24h1M54 24h1M55 24h1M56 24h1M57 24h1M58 24h1M59 24h1M60 24h1M61 24h1M62 24h1M63 24h1M64 24h1M65 24h1M66 24h1M67 24h1M68 24h1M69 24h1M70 24h1M71 24h1M72 24h1M73 24h1M74 24h1M75 24h1M76 24h1M77 24h1M78 24h1M79 24h1M80 24h1M81 24h1M82 24h1M83 24h1M84 24h1M85 24h1M86 24h1M87 24h1M88 24h1M89 24h1M90 24h1M91 24h1M92 24h1M93 24h1M94 24h1M95 24h1M96 24h1M97 24h1M98 24h1M99 24h1M100 24h1M101 24h1M102 24h1M103 24h1M104 24h1M105 24h1M106 24h1M107 24h1M108 24h1M109 24h1M110 24h1M111 24h1M112 24h1M113 24h1M114 24h1M115 24h1M116 24h1M117 24h1M118 24h1M119 24h1M120 24h1M121 24h1M122 24h1M123 24h1M124 24h1M125 24h1M2 25h1M3 25h1M4 25h1M5 25h1M6 25h1M7 25h1M8 25h1M9 25h1M10 25h1M11 25h1M12 25h1M13 25h1M14 25h1M15 25h1M16 25h1M17 25h1M18 25h1M19 25h1M20 25h1M21 25h1M22 25h1M23 25h1M24 25h1M25 25h1M26 25h1M27 25h1M28 25h1M29 25h1M30 25h1M31 25h1M32 25h1M33 25h1M34 25h1M35 25h1M36 25h1M37 25h1M38 25h1M39 25h1M40 25h1M41 25h1M42 25h1M43 25h1M44 25h1M45 25h1M46 25h1M47 25h1M48 25h1M49 25h1M50 25h1M51 25h1M52 25h1M53 25h1M54 25h1M55 25h1M56 25h1M57 25h1M58 25h1M59 25h1M60 25h1M61 25h1M62 25h1M63 25h1M64 25h1M65 25h1M66 25h1M67 25h1M68 25h1M69 25h1M70 25h1M71 25h1M72 25h1M73 25h1M74 25h1M75 25h1M76 25h1M77 25h1M78 25h1M79 25h1M80 25h1M81 25h1M82 25h1M83 25h1M84 25h1M85 25h1M86 25h1M87 25h1M88 25h1M89 25h1M90 25h1M91 25h1M92 25h1M93 25h1M94 25h1M95 25h1M96 25h1M97 25h1M98 25h1M99 25h1M100 25h1M101 25h1M102 25h1M103 25h1M104 25h1M105 25h1M106 25h1M107 25h1M108 25h1M109 25h1M110 25h1M111 25h1M112 25h1M113 25h1M114 25h1M115 25h1M116 25h1M117 25h1M118 25h1M119 25h1M120 25h1M121 25h1M122 25h1M123 25h1M124 25h1M125 25h1" />
<path stroke="#cac3a4" d="M7 7h1M8 7h1M9 7h1M10 7h1M11 7h1M12 7h1M13 7h1M14 7h1M15 7h1M16 7h1M17 7h1M18 7h1M19 7h1M20 7h1M21 7h1M22 7h1M23 7h1M24 7h1M25 7h1M26 7h1M27 7h1M28 7h1M29 7h1M30 7h1M31 7h1M32 7h1M33 7h1M34 7h1M35 7h1M36 7h1M37 7h1M38 7h1M39 7h1M40 7h1M41 7h1M42 7h1M43 7h1M44 7h1M45 7h1M46 7h1M47 7h1M48 7h1M49 7h1M50 7h1M51 7h1M52 7h1M53 7h1M54 7h1M55 7h1M56 7h1M57 7h1M58 7h1M59 7h1M60 7h1M61 7h1M62 7h1M63 7h1M64 7h1M65 7h1M66 7h1M67 7h1M68 7h1M69 7h1M70 7h1M71 7h1M72 7h1M73 7h1M74 7h1M75 7h1M76 7h1M77 7h1M78 7h1M79 7h1M80 7h1M81 7h1M82 7h1M83 7h1M84 7h1M85 7h1M86 7h1M87 7h1M88 7h1M89 7h1M90 7h1M91 7h1M92 7h1M93 7h1M94 7h1M95 7h1M96 7h1M97 7h1M98 7h1M99 7h1M100 7h1M101 7h1M102 7h1M103 7h1M104 7h1M105 7h1M106 7h1M107 7h1M108 7h1M109 7h1M110 7h1M111 7h1M112 7h1M113 7h1M114 7h1M115 7h1M116 7h1M117 7h1M118 7h1M119 7h1M120 7h1M121 7h1M7 8h1M8 8h1M9 8h1M10 8h1M11 8h1M12 8h1M13 8h1M14 8h1M15 8h1M16 8h1M17 8h1M18 8h1M19 8h1M20 8h1M21 8h1M22 8h1M23 8h1M24 8h1M25 8h1M26 8h1M27 8h1M28 8h1M29 8h1M30 8h1M31 8h1M32 8h1M33 8h1M34 8h1M35 8h1M36 8h1M37 8h1M38 8h1M39 8h1M40 8h1M41 8h1M42 8h1M43 8h1M44 8h1M45 8h1M46 8h1M47 8h1M48 8h1M49 8h1M50 8h1M51 8h1M52 8h1M53 8h1M54 8h1M55 8h1M56 8h1M57 8h1M58 8h1M59 8h1M60 8h1M61 8h1M62 8h1M63 8h1M64 8h1M65 8h1M66 8h1M67 8h1M68 8h1M69 8h1M70 8h1M71 8h1M72 8h1M73 8h1M74 8h1M75 8h1M76 8h1M77 8h1M78 8h1M79 8h1M80 8h1M81 8h1M82 8h1M83 8h1M84 8h1M85 8h1M86 8h1M87 8h1M88 8h1M89 8h1M90 8h1M91 8h1M92 8h1M93 8h1M94 8h1M95 8h1M96 8h1M97 8h1M98 8h1M99 8h1M100 8h1M101 8h1M102 8h1M103 8h1M104 8h1M105 8h1M106 8h1M107 8h1M108 8h1M109 8h1M110 8h1M111 8h1M112 8h1M113 8h1M114 8h1M115 8h1M116 8h1M117 8h1M118 8h1M119 8h1M120 8h1M121 8h1M7 9h1M8 9h1M9 9h1M10 9h1M11 9h1M12 9h1M13 9h1M14 9h1M15 9h1M16 9h1M17 9h1M18 9h1M19 9h1M20 9h1M21 9h1M22 9h1M23 9h1M24 9h1M25 9h1M26 9h1M27 9h1M28 9h1M29 9h1M30 9h1M31 9h1M32 9h1M33 9h1M34 9h1M35 9h1M36 9h1M37 9h1M38 9h1M39 9h1M40 9h1M41 9h1M42 9h1M43 9h1M44 9h1M45 9h1M46 9h1M47 9h1M48 9h1M49 9h1M50 9h1M51 9h1M52 9h1M53 9h1M54 9h1M55 9h1M56 9h1M57 9h1M58 9h1M59 9h1M60 9h1M61 9h1M62 9h1M63 9h1M64 9h1M65 9h1M66 9h1M67 9h1M68 9h1M69 9h1M70 9h1M71 9h1M72 9h1M73 9h1M74 9h1M75 9h1M76 9h1M77 9h1M78 9h1M79 9h1M80 9h1M81 9h1M82 9h1M83 9h1M84 9h1M85 9h1M86 9h1M87 9h1M88 9h1M89 9h1M90 9h1M91 9h1M92 9h1M93 9h1M94 9h1M95 9h1M96 9h1M97 9h1M98 9h1M99 9h1M100 9h1M101 9h1M102 9h1M103 9h1M104 9h1M105 9h1M106 9h1M107 9h1M108 9h1M109 9h1M110 9h1M111 9h1M112 9h1M113 9h1M114 9h1M115 9h1M116 9h1M117 9h1M118 9h1M119 9h1M120 9h1M121 9h1M7 10h1M8 10h1M9 10h1M10 10h1M11 10h1M12 10h1M13 10h1M14 10h1M15 10h1M16 10h1M17 10h1M18 10h1M19 10h1M20 10h1M21 10h1M22 10h1M23 10h1M24 10h1M25 10h1M26 10h1M27 10h1M28 10h1M29 10h1M30 10h1M31 10h1M32 10h1M33 10h1M34 10h1M35 10h1M36 10h1M37 10h1M38 10h1M39 10h1M40 10h1M41 10h1M42 10h1M43 10h1M44 10h1M45 10h1M46 10h1M47 10h1M48 10h1M49 10h1M50 10h1M51 10h1M52 10h1M53 10h1M54 10h1M55 10h1M56 10h1M57 10h1M58 10h1M59 10h1M60 10h1M61 10h1M62 10h1M63 10h1M64 10h1M65 10h1M66 10h1M67 10h1M68 10h1M69 10h1M70 10h1M71 10h1M72 10h1M73 10h1M74 10h1M75 10h1M76 10h1M77 10h1M78 10h1M79 10h1M80 10h1M81 10h1M82 10h1M83 10h1M84 10h1M85 10h1M86 10h1M87 10h1M88 10h1M89 10h1M90 10h1M91 10h1M92 10h1M93 10h1M94 10h1M95 10h1M96 10h1M97 10h1M98 10h1M99 10h1M100 10h1M101 10h1M102 10h1M103 10h1M104 10h1M105 10h1M106 10h1M107 10h1M108 10h1M109 10h1M110 10h1M111 10h1M112 10h1M113 10h1M114 10h1M115 10h1M116 10h1M117 10h1M118 10h1M119 10h1M120 10h1M121 10h1M7 11h1M8 11h1M9 11h1M10 11h1M11 11h1M12 11h1M13 11h1M14 11h1M15 11h1M16 11h1M17 11h1M18 11h1M19 11h1M20 11h1M21 11h1M22 11h1M23 11h1M24 11h1M25 11h1M26 11h1M27 11h1M28 11h1M29 11h1M30 11h1M31 11h1M32 11h1M33 11h1M34 11h1M35 11h1M36 11h1M37 11h1M38 11h1M39 11h1M40 11h1M41 11h1M42 11h1M43 11h1M44 11h1M45 11h1M46 11h1M47 11h1M48 11h1M49 11h1M50 11h1M51 11h1M52 11h1M53 11h1M54 11h1M55 11h1M56 11h1M57 11h1M58 11h1M59 11h1M60 11h1M61 11h1M62 11h1M63 11h1M64 11h1M65 11h1M66 11h1M67 11h1M68 11h1M69 11h1M70 11h1M71 11h1M72 11h1M73 11h1M74 11h1M75 11h1M76 11h1M77 11h1M78 11h1M79 11h1M80 11h1M81 11h1M82 11h1M83 11h1M84 11h1M85 11h1M86 11h1M87 11h1M88 11h1M89 11h1M90 11h1M91 11h1M92 11h1M93 11h1M94 11h1M95 11h1M96 11h1M97 11h1M98 11h1M99 11h1M100 11h1M101 11h1M102 11h1M103 11h1M104 11h1M105 11h1M106 11h1M107 11h1M108 11h1M109 11h1M110 11h1M111 11h1M112 11h1M113 11h1M114 11h1M115 11h1M116 11h1M117 11h1M118 11h1M119 11h1M120 11h1M121 11h1M7 12h1M8 12h1M9 12h1M10 12h1M11 12h1M12 12h1M13 12h1M14 12h1M15 12h1M16 12h1M17 12h1M18 12h1M19 12h1M20 12h1M21 12h1M22 12h1M23 12h1M24 12h1M25 12h1M26 12h1M27 12h1M28 12h1M29 12h1M30 12h1M31 12h1M32 12h1M33 12h1M34 12h1M35 12h1M36 12h1M37 12h1M38 12h1M39 12h1M40 12h1M41 12h1M42 12h1M43 12h1M44 12h1M45 12h1M46 12h1M47 12h1M48 12h1M49 12h1M50 12h1M51 12h1M52 12h1M53 12h1M54 12h1M55 12h1M56 12h1M57 12h1M58 12h1M59 12h1M60 12h1M61 12h1M62 12h1M63 12h1M64 12h1M65 12h1M66 12h1M67 12h1M68 12h1M69 12h1M70 12h1M71 12h1M72 12h1M73 12h1M74 12h1M75 12h1M76 12h1M77 12h1M78 12h1M79 12h1M80 12h1M81 12h1M82 12h1M83 12h1M84 12h1M85 12h1M86 12h1M87 12h1M88 12h1M89 12h1M90 12h1M91 12h1M92 12h1M93 12h1M94 12h1M95 12h1M96 12h1M97 12h1M98 12h1M99 12h1M100 12h1M101 12h1M102 12h1M103 12h1M104 12h1M105 12h1M106 12h1M107 12h1M108 12h1M109 12h1M110 12h1M111 12h1M112 12h1M113 12h1M114 12h1M115 12h1M116 12h1M117 12h1M118 12h1M119 12h1M120 12h1M121 12h1M7 13h1M8 13h1M9 13h1M10 13h1M11 13h1M12 13h1M13 13h1M14 13h1M15 13h1M16 13h1M17 13h1M18 13h1M19 13h1M20 13h1M21 13h1M22 13h1M23 13h1M24 13h1M25 13h1M26 13h1M27 13h1M28 13h1M29 13h1M30 13h1M31 13h1M32 13h1M33 13h1M34 13h1M35 13h1M36 13h1M37 13h1M38 13h1M39 13h1M40 13h1M41 13h1M42 13h1M43 13h1M44 13h1M45 13h1M46 13h1M47 13h1M48 13h1M49 13h1M50 13h1M51 13h1M52 13h1M53 13h1M54 13h1M55 13h1M56 13h1M57 13h1M58 13h1M59 13h1M60 13h1M61 13h1M62 13h1M63 13h1M64 13h1M65 13h1M66 13h1M67 13h1M68 13h1M69 13h1M70 13h1M71 13h1M72 13h1M73 13h1M74 13h1M75 13h1M76 13h1M77 13h1M78 13h1M79 13h1M80 13h1M81 13h1M82 13h1M83 13h1M84 13h1M85 13h1M86 13h1M87 13h1M88 13h1M89 13h1M90 13h1M91 13h1M92 13h1M93 13h1M94 13h1M95 13h1M96 13h1M97 13h1M98 13h1M99 13h1M100 13h1M101 13h1M102 13h1M103 13h1M104 13h1M105 13h1M106 13h1M107 13h1M108 13h1M109 13h1M110 13h1M111 13h1M112 13h1M113 13h1M114 13h1M115 13h1M116 13h1M117 13h1M118 13h1M119 13h1M120 13h1M121 13h1M7 14h1M8 14h1M9 14h1M10 14h1M11 14h1M12 14h1M13 14h1M14 14h1M15 14h1M16 14h1M17 14h1M18 14h1M19 14h1M20 14h1M21 14h1M22 14h1M23 14h1M24 14h1M25 14h1M26 14h1M27 14h1M28 14h1M29 14h1M30 14h1M31 14h1M32 14h1M33 14h1M34 14h1M35 14h1M36 14h1M37 14h1M38 14h1M39 14h1M40 14h1M41 14h1M42 14h1M43 14h1M44 14h1M45 14h1M46 14h1M47 14h1M48 14h1M49 14h1M50 14h1M51 14h1M52 14h1M53 14h1M54 14h1M55 14h1M56 14h1M57 14h1M58 14h1M59 14h1M60 14h1M61 14h1M62 14h1M63 14h1M64 14h1M65 14h1M66 14h1M67 14h1M68 14h1M69 14h1M70 14h1M71 14h1M72 14h1M73 14h1M74 14h1M75 14h1M76 14h1M77 14h1M78 14h1M79 14h1M80 14h1M81 14h1M82 14h1M83 14h1M84 14h1M85 14h1M86 14h1M87 14h1M88 14h1M89 14h1M90 14h1M91 14h1M92 14h1M93 14h1M94 14h1M95 14h1M96 14h1M97 14h1M98 14h1M99 14h1M100 14h1M101 14h1M102 14h1M103 14h1M104 14h1M105 14h1M106 14h1M107 14h1M108 14h1M109 14h1M110 14h1M111 14h1M112 14h1M113 14h1M114 14h1M115 14h1M116 14h1M117 14h1M118 14h1M119 14h1M120 14h1M121 14h1M7 15h1M8 15h1M9 15h1M10 15h1M11 15h1M12 15h1M13 15h1M14 15h1M15 15h1M16 15h1M17 15h1M18 15h1M19 15h1M20 15h1M21 15h1M22 15h1M23 15h1M24 15h1M25 15h1M26 15h1M27 15h1M28 15h1M29 15h1M30 15h1M31 15h1M32 15h1M33 15h1M34 15h1M35 15h1M36 15h1M37 15h1M38 15h1M39 15h1M40 15h1M41 15h1M42 15h1M43 15h1M44 15h1M45 15h1M46 15h1M47 15h1M48 15h1M49 15h1M50 15h1M51 15h1M52 15h1M53 15h1M54 15h1M55 15h1M56 15h1M57 15h1M58 15h1M59 15h1M60 15h1M61 15h1M62 15h1M63 15h1M64 15h1M65 15h1M66 15h1M67 15h1M68 15h1M69 15h1M70 15h1M71 15h1M72 15h1M73 15h1M74 15h1M75 15h1M76 15h1M77 15h1M78 15h1M79 15h1M80 15h1M81 15h1M82 15h1M83 15h1M84 15h1M85 15h1M86 15h1M87 15h1M88 15h1M89 15h1M90 15h1M91 15h1M92 15h1M93 15h1M94 15h1M95 15h1M96 15h1M97 15h1M98 15h1M99 15h1M100 15h1M101 15h1M102 15h1M103 15h1M104 15h1M105 15h1M106 15h1M107 15h1M108 15h1M109 15h1M110 15h1M111 15h1M112 15h1M113 15h1M114 15h1M115 15h1M116 15h1M117 15h1M118 15h1M119 15h1M120 15h1M121 15h1M7 16h1M8 16h1M9 16h1M10 16h1M11 16h1M12 16h1M13 16h1M14 16h1M15 16h1M16 16h1M17 16h1M18 16h1M19 16h1M20 16h1M21 16h1M22 16h1M23 16h1M24 16h1M25 16h1M26 16h1M27 16h1M28 16h1M29 16h1M30 16h1M31 16h1M32 16h1M33 16h1M34 16h1M35 16h1M36 16h1M37 16h1M38 16h1M39 16h1M40 16h1M41 16h1M42 16h1M43 16h1M44 16h1M45 16h1M46 16h1M47 16h1M48 16h1M49 16h1M50 16h1M51 16h1M52 16h1M53 16h1M54 16h1M55 16h1M56 16h1M57 16h1M58 16h1M59 16h1M60 16h1M61 16h1M62 16h1M63 16h1M64 16h1M65 16h1M66 16h1M67 16h1M68 16h1M69 16h1M70 16h1M71 16h1M72 16h1M73 16h1M74 16h1M75 16h1M76 16h1M77 16h1M78 16h1M79 16h1M80 16h1M81 16h1M82 16h1M83 16h1M84 16h1M85 16h1M86 16h1M87 16h1M88 16h1M89 16h1M90 16h1M91 16h1M92 16h1M93 16h1M94 16h1M95 16h1M96 16h1M97 16h1M98 16h1M99 16h1M100 16h1M101 16h1M102 16h1M103 16h1M104 16h1M105 16h1M106 16h1M107 16h1M108 16h1M109 16h1M110 16h1M111 16h1M112 16h1M113 16h1M114 16h1M115 16h1M116 16h1M117 16h1M118 16h1M119 16h1M120 16h1M121 16h1M7 17h1M8 17h1M9 17h1M10 17h1M11 17h1M12 17h1M13 17h1M14 17h1M15 17h1M16 17h1M17 17h1M18 17h1M19 17h1M20 17h1M21 17h1M22 17h1M23 17h1M24 17h1M25 17h1M26 17h1M27 17h1M28 17h1M29 17h1M30 17h1M31 17h1M32 17h1M33 17h1M34 17h1M35 17h1M36 17h1M37 17h1M38 17h1M39 17h1M40 17h1M41 17h1M42 17h1M43 17h1M44 17h1M45 17h1M46 17h1M47 17h1M48 17h1M49 17h1M50 17h1M51 17h1M52 17h1M53 17h1M54 17h1M55 17h1M56 17h1M57 17h1M58 17h1M59 17h1M60 17h1M61 17h1M62 17h1M63 17h1M64 17h1M65 17h1M66 17h1M67 17h1M68 17h1M69 17h1M70 17h1M71 17h1M72 17h1M73 17h1M74 17h1M75 17h1M76 17h1M77 17h1M78 17h1M79 17h1M80 17h1M81 17h1M82 17h1M83 17h1M84 17h1M85 17h1M86 17h1M87 17h1M88 17h1M89 17h1M90 17h1M91 17h1M92 17h1M93 17h1M94 17h1M95 17h1M96 17h1M97 17h1M98 17h1M99 17h1M100 17h1M101 17h1M102 17h1M103 17h1M104 17h1M105 17h1M106 17h1M107 17h1M108 17h1M109 17h1M110 17h1M111 17h1M112 17h1M113 17h1M114 17h1M115 17h1M116 17h1M117 17h1M118 17h1M119 17h1M120 17h1M121 17h1M7 18h1M8 18h1M9 18h1M10 18h1M11 18h1M12 18h1M13 18h1M14 18h1M15 18h1M16 18h1M17 18h1M18 18h1M19 18h1M20 18h1M21 18h1M22 18h1M23 18h1M24 18h1M25 18h1M26 18h1M27 18h1M28 18h1M29 18h1M30 18h1M31 18h1M32 18h1M33 18h1M34 18h1M35 18h1M36 18h1M37 18h1M38 18h1M39 18h1M40 18h1M41 18h1M42 18h1M43 18h1M44 18h1M45 18h1M46 18h1M47 18h1M48 18h1M49 18h1M50 18h1M51 18h1M52 18h1M53 18h1M54 18h1M55 18h1M56 18h1M57 18h1M58 18h1M59 18h1M60 18h1M61 18h1M62 18h1M63 18h1M64 18h1M65 18h1M66 18h1M67 18h1M68 18h1M69 18h1M70 18h1M71 18h1M72 18h1M73 18h1M74 18h1M75 18h1M76 18h1M77 18h1M78 18h1M79 18h1M80 18h1M81 18h1M82 18h1M83 18h1M84 18h1M85 18h1M86 18h1M87 18h1M88 18h1M89 18h1M90 18h1M91 18h1M92 18h1M93 18h1M94 18h1M95 18h1M96 18h1M97 18h1M98 18h1M99 18h1M100 18h1M101 18h1M102 18h1M103 18h1M104 18h1M105 18h1M106 18h1M107 18h1M108 18h1M109 18h1M110 18h1M111 18h1M112 18h1M113 18h1M114 18h1M115 18h1M116 18h1M117 18h1M118 18h1M119 18h1M120 18h1M121 18h1M7 19h1M8 19h1M9 19h1M10 19h1M11 19h1M12 19h1M13 19h1M14 19h1M15 19h1M16 19h1M17 19h1M18 19h1M19 19h1M20 19h1M21 19h1M22 19h1M23 19h1M24 19h1M25 19h1M26 19h1M27 19h1M28 19h1M29 19h1M30 19h1M31 19h1M32 19h1M33 19h1M34 19h1M35 19h1M36 19h1M37 19h1M38 19h1M39 19h1M40 19h1M41 19h1M42 19h1M43 19h1M44 19h1M45 19h1M46 19h1M47 19h1M48 19h1M49 19h1M50 19h1M51 19h1M52 19h1M53 19h1M54 19h1M55 19h1M56 19h1M57 19h1M58 19h1M59 19h1M60 19h1M61 19h1M62 19h1M63 19h1M64 19h1M65 19h1M66 19h1M67 19h1M68 19h1M69 19h1M70 19h1M71 19h1M72 19h1M73 19h1M74 19h1M75 19h1M76 19h1M77 19h1M78 19h1M79 19h1M80 19h1M81 19h1M82 19h1M83 19h1M84 19h1M85 19h1M86 19h1M87 19h1M88 19h1M89 19h1M90 19h1M91 19h1M92 19h1M93 19h1M94 19h1M95 19h1M96 19h1M97 19h1M98 19h1M99 19h1M100 19h1M101 19h1M102 19h1M103 19h1M104 19h1M105 19h1M106 19h1M107 19h1M108 19h1M109 19h1M110 19h1M111 19h1M112 19h1M113 19h1M114 19h1M115 19h1M116 19h1M117 19h1M118 19h1M119 19h1M120 19h1M121 19h1M7 20h1M8 20h1M9 20h1M10 20h1M11 20h1M12 20h1M13 20h1M14 20h1M15 20h1M16 20h1M17 20h1M18 20h1M19 20h1M20 20h1M21 20h1M22 20h1M23 20h1M24 20h1M25 20h1M26 20h1M27 20h1M28 20h1M29 20h1M30 20h1M31 20h1M32 20h1M33 20h1M34 20h1M35 20h1M36 20h1M37 20h1M38 20h1M39 20h1M40 20h1M41 20h1M42 20h1M43 20h1M44 20h1M45 20h1M46 20h1M47 20h1M48 20h1M49 20h1M50 20h1M51 20h1M52 20h1M53 20h1M54 20h1M55 20h1M56 20h1M57 20h1M58 20h1M59 20h1M60 20h1M61 20h1M62 20h1M63 20h1M64 20h1M65 20h1M66 20h1M67 20h1M68 20h1M69 20h1M70 20h1M71 20h1M72 20h1M73 20h1M74 20h1M75 20h1M76 20h1M77 20h1M78 20h1M79 20h1M80 20h1M81 20h1M82 20h1M83 20h1M84 20h1M85 20h1M86 20h1M87 20h1M88 20h1M89 20h1M90 20h1M91 20h1M92 20h1M93 20h1M94 20h1M95 20h1M96 20h1M97 20h1M98 20h1M99 20h1M100 20h1M101 20h1M102 20h1M103 20h1M104 20h1M105 20h1M106 20h1M107 20h1M108 20h1M109 20h1M110 20h1M111 20h1M112 20h1M113 20h1M114 20h1M115 20h1M116 20h1M117 20h1M118 20h1M119 20h1M120 20h1M121 20h1" />
<path stroke="#ffc579" d="M2 26h1M3 26h1M4 26h1M5 26h1M6 26h1M7 26h1M8 26h1M9 26h1M10 26h1M11 26h1M12 26h1M13 26h1M14 26h1M15 26h1M16 26h1M17 26h1M18 26h1M19 26h1M20 26h1M21 26h1M22 26h1M23 26h1M24 26h1M25 26h1M26 26h1M27 26h1M28 26h1M29 26h1M30 26h1M31 26h1M32 26h1M33 26h1M34 26h1M35 26h1M36 26h1M37 26h1M38 26h1M39 26h1M40 26h1M41 26h1M42 26h1M43 26h1M44 26h1M45 26h1M46 26h1M47 26h1M48 26h1M49 26h1M50 26h1M51 26h1M52 26h1M53 26h1M54 26h1M55 26h1M56 26h1M57 26h1M58 26h1M59 26h1M60 26h1M61 26h1M62 26h1M63 26h1M64 26h1M65 26h1M66 26h1M67 26h1M68 26h1M69 26h1M70 26h1M71 26h1M72 26h1M73 26h1M74 26h1M75 26h1M76 26h1M77 26h1M78 26h1M79 26h1M80 26h1M81 26h1M82 26h1M83 26h1M84 26h1M85 26h1M86 26h1M87 26h1M88 26h1M89 26h1M90 26h1M91 26h1M92 26h1M93 26h1M94 26h1M95 26h1M96 26h1M97 26h1M98 26h1M99 26h1M100 26h1M101 26h1M102 26h1M103 26h1M104 26h1M105 26h1M106 26h1M107 26h1M108 26h1M109 26h1M110 26h1M111 26h1M112 26h1M113 26h1M114 26h1M115 26h1M116 26h1M117 26h1M118 26h1M119 26h1M120 26h1M121 26h1M122 26h1M123 26h1M124 26h1M125 26h1M2 27h1M3 27h1M4 27h1M5 27h1M6 27h1M7 27h1M8 27h1M9 27h1M10 27h1M11 27h1M12 27h1M13 27h1M14 27h1M15 27h1M16 27h1M17 27h1M18 27h1M19 27h1M20 27h1M21 27h1M22 27h1M23 27h1M24 27h1M25 27h1M26 27h1M27 27h1M28 27h1M29 27h1M30 27h1M31 27h1M32 27h1M33 27h1M34 27h1M35 27h1M36 27h1M37 27h1M38 27h1M39 27h1M40 27h1M41 27h1M42 27h1M43 27h1M44 27h1M45 27h1M46 27h1M47 27h1M48 27h1M49 27h1M50 27h1M51 27h1M52 27h1M53 27h1M54 27h1M55 27h1M56 27h1M57 27h1M58 27h1M59 27h1M60 27h1M61 27h1M62 27h1M63 27h1M64 27h1M65 27h1M66 27h1M67 27h1M68 27h1M69 27h1M70 27h1M71 27h1M72 27h1M73 27h1M74 27h1M75 27h1M76 27h1M77 27h1M78 27h1M79 27h1M80 27h1M81 27h1M82 27h1M83 27h1M84 27h1M85 27h1M86 27h1M87 27h1M88 27h1M89 27h1M90 27h1M91 27h1M92 27h1M93 27h1M94 27h1M95 27h1M96 27h1M97 27h1M98 27h1M99 27h1M100 27h1M101 27h1M102 27h1M103 27h1M104 27h1M105 27h1M106 27h1M107 27h1M108 27h1M109 27h1M110 27h1M111 27h1M112 27h1M113 27h1M114 27h1M115 27h1M116 27h1M117 27h1M118 27h1M119 27h1M120 27h1M121 27h1M122 27h1M123 27h1M124 27h1M125 27h1M2 28h1M3 28h1M4 28h1M5 28h1M6 28h1M7 28h1M8 28h1M9 28h1M10 28h1M11 28h1M12 28h1M13 28h1M14 28h1M15 28h1M16 28h1M17 28h1M18 28h1M19 28h1M20 28h1M21 28h1M22 28h1M23 28h1M24 28h1M25 28h1M26 28h1M27 28h1M28 28h1M29 28h1M30 28h1M31 28h1M32 28h1M33 28h1M34 28h1M35 28h1M36 28h1M37 28h1M38 28h1M39 28h1M40 28h1M41 28h1M42 28h1M43 28h1M44 28h1M45 28h1M46 28h1M47 28h1M48 28h1M49 28h1M50 28h1M51 28h1M52 28h1M53 28h1M54 28h1M55 28h1M56 28h1M57 28h1M58 28h1M59 28h1M60 28h1M61 28h1M62 28h1M63 28h1M64 28h1M65 28h1M66 28h1M67 28h1M68 28h1M69 28h1M70 28h1M71 28h1M72 28h1M73 28h1M74 28h1M75 28h1M76 28h1M77 28h1M78 28h1M79 28h1M80 28h1M81 28h1M82 28h1M83 28h1M84 28h1M85 28h1M86 28h1M87 28h1M88 28h1M89 28h1M90 28h1M91 28h1M92 28h1M93 28h1M94 28h1M95 28h1M96 28h1M97 28h1M98 28h1M99 28h1M100 28h1M101 28h1M102 28h1M103 28h1M104 28h1M105 28h1M106 28h1M107 28h1M108 28h1M109 28h1M110 28h1M111 28h1M112 28h1M113 28h1M114 28h1M115 28h1M116 28h1M117 28h1M118 28h1M119 28h1M120 28h1M121 28h1M122 28h1M123 28h1M124 28h1M125 28h1M2 29h1M3 29h1M4 29h1M5 29h1M6 29h1M7 29h1M8 29h1M9 29h1M10 29h1M11 29h1M12 29h1M13 29h1M14 29h1M15 29h1M16 29h1M17 29h1M18 29h1M19 29h1M20 29h1M21 29h1M22 29h1M23 29h1M24 29h1M25 29h1M26 29h1M27 29h1M28 29h1M29 29h1M30 29h1M31 29h1M32 29h1M33 29h1M34 29h1M35 29h1M36 29h1M37 29h1M38 29h1M39 29h1M40 29h1M41 29h1M42 29h1M43 29h1M44 29h1M45 29h1M46 29h1M47 29h1M48 29h1M49 29h1M50 29h1M51 29h1M52 29h1M53 29h1M54 29h1M55 29h1M56 29h1M57 29h1M58 29h1M59 29h1M60 29h1M61 29h1M62 29h1M63 29h1M64 29h1M65 29h1M66 29h1M67 29h1M68 29h1M69 29h1M70 29h1M71 29h1M72 29h1M73 29h1M74 29h1M75 29h1M76 29h1M77 29h1M78 29h1M79 29h1M80 29h1M81 29h1M82 29h1M83 29h1M84 29h1M85 29h1M86 29h1M87 29h1M88 29h1M89 29h1M90 29h1M91 29h1M92 29h1M93 29h1M94 29h1M95 29h1M96 29h1M97 29h1M98 29h1M99 29h1M100 29h1M101 29h1M102 29h1M103 29h1M104 29h1M105 29h1M106 29h1M107 29h1M108 29h1M109 29h1M110 29h1M111 29h1M112 29h1M113 29h1M114 29h1M115 29h1M116 29h1M117 29h1M118 29h1M119 29h1M120 29h1M121 29h1M122 29h1M123 29h1M124 29h1M125 29h1" />
</svg>