<svg xmlns="http://www.w3.org/2000/svg" viewBox="0 -0.5 96 48" shape-rendering="crispEdges">
  <path stroke="#000000" d="M0 6h1M95 6h1M0 7h1M95 7h1M0 8h1M95 8h1M0 9h1M95 9h1M0 10h1M95 10h1M0 11h1M95 11h1M0 12h1M95 12h1M0 13h1M95 13h1M0 14h1M95 14h1M0 15h1M95 15h1M0 16h1M95 16h1M0 17h1M95 17h1M0 18h1M95 18h1M0 19h1M95 19h1M0 20h1M95 20h1M0 21h1M95 21h1M0 22h1M95 22h1M0 23h1M95 23h1M0 24h1M95 24h1M0 25h1M95 25h1M0 26h1M95 26h1M0 27h1M95 27h1M0 28h1M95 28h1M0 29h1M95 29h1M0 30h1M95 30h1M0 31h1M95 31h1M0 32h1M95 32h1M0 33h1M95 33h1M0 34h1M95 34h1M0 35h1M95 35h1M0 36h1M95 36h1M0 37h1M95 37h1M0 38h1M95 38h1M0 39h1M95 39h1M0 40h1M95 40h1M0 41h1M95 41h1M0 42h1M95 42h1M0 43h1M95 43h1M0 44h1M95 44h1M0 45h1M95 45h1M0 46h1M95 46h1M0 47h1M95 47h1" />
<path stroke="#adb7c4" d="M1 6h1M2 6h1M3 6h1M4 6h1M5 6h1M6 6h1M7 6h1M8 6h1M9 6h1M10 6h1M11 6h1M12 6h1M13 6h1M14 6h1M15 6h1M16 6h1M17 6h1M18 6h1M19 6h1M20 6h1M21 6h1M22 6h1M23 6h1M24 6h1M25 6h1M26 6h1M27 6h1M28 6h1M29 6h1M30 6h1M31 6h1M32 6h1M33 6h1M34 6h1M35 6h1M36 6h1M37 6h1M38 6h1M39 6h1M40 6h1M41 6h1M42 6h1M43 6h1M44 6h1M45 6h1M46 6h1M47 6h1M48 6h1M49 6h1M50 6h1M51 6h1M52 6h1M53 6h1M54 6h1M55 6h1M56 6h1M57 6h1M58 6h1M59 6h1M60 6h1M61 6h1M62 6h1M63 6h1M64 6h1M65 6h1M66 6h1M67 6h1M68 6h1M69 6h1M70 6h1M71 6h1M72 6h1M73 6h1M74 6h1M75 6h1M76 6h1M77 6h1M78 6h1M79 6h1M80 6h1M81 6h1M82 6h1M83 6h1M84 6h1M85 6h1M86 6h1M87 6h1M88 6h1M89 6h1M90 6h1M91 6h1M92 6h1M93 6h1M94 6h1M1 7h1M2 7h1M3 7h1M4 7h1M5 7h1M6 7h1M7 7h1M8 7h1M9 7h1M10 7h1M11 7h1M12 7h1M13 7h1M14 7h1M15 7h1M16 7h1M17 7h1M18 7h1M19 7h1M20 7h1M21 7h1M22 7h1M23 7h1M24 7h1M25 7h1M26 7h1M27 7h1M28 7h1M29 7h1M30 7h1M31 7h1M32 7h1M33 7h1M34 7h1M35 7h1M36 7h1M37 7h1M38 7h1M39 7h1M40 7h1M41 7h1M42 7h1M43 7h1M44 7h1M45 7h1M46 7h1M47 7h1M48 7h1M49 7h1M50 7h1M51 7h1M52 7h1M53 7h1M54 7h1M55 7h1M56 7h1M57 7h1M58 7h1M59 7h1M60 7h1M61 7h1M62 7h1M63 7h1M64 7h1M65 7h1M66 7h1M67 7h1M68 7h1M69 7h1M70 7h1M71 7h1M72 7h1M73 7h1M74 7h1M75 7h1M76 7h1M77 7h1M78 7h1M79 7h1M80 7h1M81 7h1M82 7h1M83 7h1M84 7h1M85 7h1M86 7h1M87 7h1M88 7h1M89 7h1M90 7h1M91 7h1M92 7h1M93 7h1M94 7h1M1 8h1M2 8h1M3 8h1M4 8h1M5 8h1M6 8h1M7 8h1M8 8h1M9 8h1M10 8h1M11 8h1M12 8h1M13 8h1M14 8h1M15 8h1M16 8h1M17 8h1M18 8h1M19 8h1M20 8h1M21 8h1M22 8h1M23 8h1M24 8h1M25 8h1M26 8h1M27 8h1M28 8h1M29 8h1M30 8h1M31 8h1M32 8h1M33 8h1M34 8h1M35 8h1M36 8h1M37 8h1M38 8h1M39 8h1M40 8h1M41 8h1M42 8h1M43 8h1M44 8h1M45 8h1M46 8h1M47 8h1M48 8h1M49 8h1M50 8h1M51 8h1M52 8h1M53 8h1M54 8h1M55 8h1M56 8h1M57 8h1M58 8h1M59 8h1M60 8h1M61 8h1M62 8h1M63 8h1M64 8h1M65 8h1M66 8h1M67 8h1M68 8h1M69 8h1M70 8h1M71 8h1M72 8h1M73 8h1M74 8h1M75 8h1M76 8h1M77 8h1M78 8h1M79 8h1M80 8h1M81 8h1M82 8h1M83 8h1M84 8h1M85 8h1M86 8h1M87 8h1M88 8h1M89 8h1M90 8h1M91 8h1M92 8h1M93 8h1M94 8h1M1 9h1M2 9h1M3 9h1M4 9h1M5 9h1M6 9h1M7 9h1M8 9h1M9 9h1M10 9h1M11 9h1M12 9h1M13 9h1M14 9h1M15 9h1M16 9h1M17 9h1M18 9h1M19 9h1M20 9h1M21 9h1M22 9h1M23 9h1M24 9h1M25 9h1M26 9h1M27 9h1M28 9h1M29 9h1M30 9h1M31 9h1M32 9h1M33 9h1M34 9h1M35 9h1M36 9h1M37 9h1M38 9h1M39 9h1M40 9h1M41 9h1M42 9h1M43 9h1M44 9h1M45 9h1M46 9h1M47 9h1M48 9h1M49 9h1M50 9h1M51 9h1M52 9h1M53 9h1M54 9h1M55 9h1M56 9h1M57 9h1M58 9h1M59 9h1M60 9h1M61 9h1M62 9h1M63 9h1M64 9h1M65 9h1M66 9h1M67 9h1M68 9h1M69 9h1M70 9h1M71 9h1M72 9h1M73 9h1M74 9h1M75 9h1M76 9h1M77 9h1M78 9h1M79 9h1M80 9h1M81 9h1M82 9h1M83 9h1M84 9h1M85 9h1M86 9h1M87 9h1M88 9h1M89 9h1M90 9h1M91 9h1M92 9h1M93 9h1M94 9h1M1 10h1M2 10h1M3 10h1M4 10h1M5 10h1M6 10h1M7 10h1M8 10h1M9 10h1M10 10h1M11 10h1M12 10h1M13 10h1M14 10h1M15 10h1M16 10h1M17 10h1M18 10h1M19 10h1M20 10h1M21 10h1M22 10h1M23 10h1M24 10h1M25 10h1M26 10h1M27 10h1M28 10h1M29 10h1M30 10h1M31 10h1M32 10h1M33 10h1M34 10h1M35 10h1M36 10h1M37 10h1M38 10h1M39 10h1M40 10h1M41 10h1M42 10h1M43 10h1M44 10h1M45 10h1M46 10h1M47 10h1M48 10h1M49 10h1M50 10h1M51 10h1M52 10h1M53 10h1M54 10h1M55 10h1M56 10h1M57 10h1M58 10h1M59 10h1M60 10h1M61 10h1M62 10h1M63 10h1M64 10h1M65 10h1M66 10h1M67 10h1M68 10h1M69 10h1M70 10h1M71 10h1M72 10h1M73 10h1M74 10h1M75 10h1M76 10h1M77 10h1M78 10h1M79 10h1M80 10h1M81 10h1M82 10h1M83 10h1M84 10h1M85 10h1M86 10h1M87 10h1M88 10h1M89 10h1M90 10h1M91 10h1M92 10h1M93 10h1M94 10h1M1 11h1M2 11h1M3 11h1M4 11h1M5 11h1M6 11h1M7 11h1M8 11h1M9 11h1M10 11h1M11 11h1M12 11h1M13 11h1M14 11h1M15 11h1M16 11h1M17 11h1M18 11h1M19 11h1M20 11h1M21 11h1M22 11h1M23 11h1M24 11h1M25 11h1M26 11h1M27 11h1M28 11h1M29 11h1M30 11h1M31 11h1M32 11h1M33 11h1M34 11h1M35 11h1M36 11h1M37 11h1M38 11h1M39 11h1M40 11h1M41 11h1M42 11h1M43 11h1M44 11h1M45 11h1M46 11h1M47 11h1M48 11h1M49 11h1M50 11h1M51 11h1M52 11h1M53 11h1M54 11h1M55 11h1M56 11h1M57 11h1M58 11h1M59 11h1M60 11h1M61 11h1M62 11h1M63 11h1M64 11h1M65 11h1M66 11h1M67 11h1M68 11h1M69 11h1M70 11h1M71 11h1M72 11h1M73 11h1M74 11h1M75 11h1M76 11h1M77 11h1M78 11h1M79 11h1M80 11h1M81 11h1M82 11h1M83 11h1M84 11h1M85 11h1M86 11h1M87 11h1M88 11h1M89 11h1M90 11h1M91 11h1M92 11h1M93 11h1M94 11h1M1 12h1M2 12h1M3 12h1M4 12h1M5 12h1M6 12h1M7 12h1M8 12h1M9 12h1M10 12h1M11 12h1M12 12h1M13 12h1M14 12h1M15 12h1M16 12h1M17 12h1M18 12h1M19 12h1M20 12h1M21 12h1M22 12h1M23 12h1M24 12h1M25 12h1M26 12h1M27 12h1M28 12h1M29 12h1M30 12h1M31 12h1M32 12h1M33 12h1M34 12h1M35 12h1M36 12h1M37 12h1M38 12h1M39 12h1M40 12h1M41 12h1M42 12h1M43 12h1M44 12h1M45 12h1M46 12h1M47 12h1M48 12h1M49 12h1M50 12h1M51 12h1M52 12h1M53 12h1M54 12h1M55 12h1M56 12h1M57 12h1M58 12h1M59 12h1M60 12h1M61 12h1M62 12h1M63 12h1M64 12h1M65 12h1M66 12h1M67 12h1M68 12h1M69 12h1M70 12h1M71 12h1M72 12h1M73 12h1M74 12h1M75 12h1M76 12h1M77 12h1M78 12h1M79 12h1M80 12h1M81 12h1M82 12h1M83 12h1M84 12h1M85 12h1M86 12h1M87 12h1M88 12h1M89 12h1M90 12h1M91 12h1M92 12h1M93 12h1M94 12h1M1 13h1M2 13h1M3 13h1M4 13h1M5 13h1M6 13h1M7 13h1M8 13h1M9 13h1M10 13h1M11 13h1M12 13h1M13 13h1M14 13h1M15 13h1M16 13h1M17 13h1M18 13h1M19 13h1M20 13h1M21 13h1M22 13h1M23 13h1M24 13h1M25 13h1M26 13h1M27 13h1M28 13h1M29 13h1M30 13h1M31 13h1M32 13h1M33 13h1M34 13h1M35 13h1M36 13h1M37 13h1M38 13h1M39 13h1M40 13h1M41 13h1M42 13h1M43 13h1M44 13h1M45 13h1M46 13h1M47 13h1M48 13h1M49 13h1M50 13h1M51 13h1M52 13h1M53 13h1M54 13h1M55 13h1M56 13h1M57 13h1M58 13h1M59 13h1M60 13h1M61 13h1M62 13h1M63 13h1M64 13h1M65 13h1M66 13h1M67 13h1M68 13h1M69 13h1M70 13h1M71 13h1M72 13h1M73 13h1M74 13h1M75 13h1M76 13h1M77 13h1M78 13h1M79 13h1M80 13h1M81 13h1M82 13h1M83 13h1M84 13h1M85 13h1M86 13h1M87 13h1M88 13h1M89 13h1M90 13h1M91 13h1M92 13h1M93 13h1M94 13h1M1 14h1M2 14h1M3 14h1M4 14h1M5 14h1M6 14h1M7 14h1M8 14h1M9 14h1M10 14h1M11 14h1M12 14h1M13 14h1M14 14h1M15 14h1M16 14h1M17 14h1M18 14h1M19 14h1M20 14h1M21 14h1M22 14h1M23 14h1M24 14h1M25 14h1M26 14h1M27 14h1M28 14h1M29 14h1M30 14h1M31 14h1M32 14h1M33 14h1M34 14h1M35 14h1M36 14h1M37 14h1M38 14h1M39 14h1M40 14h1M41 14h1M42 14h1M43 14h1M44 14h1M45 14h1M46 14h1M47 14h1M48 14h1M49 14h1M50 14h1M51 14h1M52 14h1M53 14h1M54 14h1M55 14h1M56 14h1M57 14h1M58 14h1M59 14h1M60 14h1M61 14h1M62 14h1M63 14h1M64 14h1M65 14h1M66 14h1M67 14h1M68 14h1M69 14h1M70 14h1M71 14h1M72 14h1M73 14h1M74 14h1M75 14h1M76 14h1M77 14h1M78 14h1M79 14h1M80 14h1M81 14h1M82 14h1M83 14h1M84 14h1M85 14h1M86 14h1M87 14h1M88 14h1M89 14h1M90 14h1M91 14h1M92 14h1M93 14h1M94 14h1M1 15h1M2 15h1M3 15h1M4 15h1M5 15h1M6 15h1M7 15h1M8 15h1M9 15h1M10 15h1M11 15h1M12 15h1M13 15h1M14 15h1M15 15h1M16 15h1M17 15h1M18 15h1M19 15h1M20 15h1M21 15h1M22 15h1M23 15h1M24 15h1M25 15h1M26 15h1M27 15h1M28 15h1M29 15h1M30 15h1M31 15h1M32 15h1M33 15h1M34 15h1M35 15h1M36 15h1M37 15h1M38 15h1M39 15h1M40 15h1M41 15h1M42 15h1M43 15h1M44 15h1M45 15h1M46 15h1M47 15h1M48 15h1M49 15h1M50 15h1M51 15h1M52 15h1M53 15h1M54 15h1M55 15h1M56 15h1M57 15h1M58 15h1M59 15h1M60 15h1M61 15h1M62 15h1M63 15h1M64 15h1M65 15h1M66 15h1M67 15h1M68 15h1M69 15h1M70 15h1M71 15h1M72 15h1M73 15h1M74 15h1M75 15h1M76 15h1M77 15h1M78 15h1M79 15h1M80 15h1M81 15h1M82 15h1M83 15h1M84 15h1M85 15h1M86 15h1M87 15h1M88 15h1M89 15h1M90 15h1M91 15h1M92 15h1M93 15h1M94 15h1M1 16h1M2 16h1M3 16h1M4 16h1M5 16h1M6 16h1M7 16h1M8 16h1M9 16h1M10 16h1M11 16h1M12 16h1M13 16h1M14 16h1M15 16h1M16 16h1M17 16h1M18 16h1M19 16h1M20 16h1M21 16h1M22 16h1M23 16h1M24 16h1M25 16h1M26 16h1M27 16h1M28 16h1M29 16h1M30 16h1M31 16h1M32 16h1M33 16h1M34 16h1M35 16h1M36 16h1M37 16h1M38 16h1M39 16h1M40 16h1M41 16h1M42 16h1M43 16h1M44 16h1M45 16h1M46 16h1M47 16h1M48 16h1M49 16h1M50 16h1M51 16h1M52 16h1M53 16h1M54 16h1M55 16h1M56 16h1M57 16h1M58 16h1M59 16h1M60 16h1M61 16h1M62 16h1M63 16h1M64 16h1M65 16h1M66 16h1M67 16h1M68 16h1M69 16h1M70 16h1M71 16h1M72 16h1M73 16h1M74 16h1M75 16h1M76 16h1M77 16h1M78 16h1M79 16h1M80 16h1M81 16h1M82 16h1M83 16h1M84 16h1M85 16h1M86 16h1M87 16h1M88 16h1M89 16h1M90 16h1M91 16h1M92 16h1M93 16h1M94 16h1M1 17h1M2 17h1M3 17h1M4 17h1M5 17h1M6 17h1M7 17h1M8 17h1M9 17h1M10 17h1M11 17h1M12 17h1M13 17h1M14 17h1M15 17h1M16 17h1M17 17h1M18 17h1M19 17h1M20 17h1M21 17h1M22 17h1M23 17h1M24 17h1M25 17h1M26 17h1M27 17h1M28 17h1M29 17h1M30 17h1M31 17h1M32 17h1M33 17h1M34 17h1M35 17h1M36 17h1M37 17h1M38 17h1M39 17h1M40 17h1M41 17h1M42 17h1M43 17h1M44 17h1M45 17h1M46 17h1M47 17h1M48 17h1M49 17h1M50 17h1M51 17h1M52 17h1M53 17h1M54 17h1M55 17h1M56 17h1M57 17h1M58 17h1M59 17h1M60 17h1M61 17h1M62 17h1M63 17h1M64 17h1M65 17h1M66 17h1M67 17h1M68 17h1M69 17h1M70 17h1M71 17h1M72 17h1M73 17h1M74 17h1M75 17h1M76 17h1M77 17h1M78 17h1M79 17h1M80 17h1M81 17h1M82 17h1M83 17h1M84 17h1M85 17h1M86 17h1M87 17h1M88 17h1M89 17h1M90 17h1M91 17h1M92 17h1M93 17h1M94 17h1M1 18h1M2 18h1M3 18h1M4 18h1M5 18h1M6 18h1M7 18h1M8 18h1M9 18h1M10 18h1M11 18h1M12 18h1M13 18h1M14 18h1M15 18h1M16 18h1M17 18h1M18 18h1M19 18h1M20 18h1M21 18h1M22 18h1M23 18h1M24 18h1M25 18h1M26 18h1M27 18h1M28 18h1M29 18h1M30 18h1M31 18h1M32 18h1M33 18h1M34 18h1M35 18h1M36 18h1M37 18h1M38 18h1M39 18h1M40 18h1M41 18h1M42 18h1M43 18h1M44 18h1M45 18h1M46 18h1M47 18h1M48 18h1M49 18h1M50 18h1M51 18h1M52 18h1M53 18h1M54 18h1M55 18h1M56 18h1M57 18h1M58 18h1M59 18h1M60 18h1M61 18h1M62 18h1M63 18h1M64 18h1M65 18h1M66 18h1M67 18h1M68 18h1M69 18h1M70 18h1M71 18h1M72 18h1M73 18h1M74 18h1M75 18h1M76 18h1M77 18h1M78 18h1M79 18h1M80 18h1M81 18h1M82 18h1M83 18h1M84 18h1M85 18h1M86 18h1M87 18h1M88 18h1M89 18h1M90 18h1M91 18h1M92 18h1M93 18h1M94 18h1M1 19h1M2 19h1M3 19h1M4 19h1M5 19h1M6 19h1M7 19h1M8 19h1M9 19h1M10 19h1M11 19h1M12 19h1M13 19h1M14 19h1M15 19h1M16 19h1M17 19h1M18 19h1M19 19h1M20 19h1M21 19h1M22 19h1M23 19h1M24 19h1M25 19h1M26 19h1M27 19h1M28 19h1M29 19h1M30 19h1M31 19h1M32 19h1M33 19h1M34 19h1M35 19h1M36 19h1M37 19h1M38 19h1M39 19h1M40 19h1M41 19h1M42 19h1M43 19h1M44 19h1M45 19h1M46 19h1M47 19h1M48 19h1M49 19h1M50 19h1M51 19h1M52 19h1M53 19h1M54 19h1M55 19h1M56 19h1M57 19h1M58 19h1M59 19h1M60 19h1M61 19h1M62 19h1M63 19h1M64 19h1M65 19h1M66 19h1M67 19h1M68 19h1M69 19h1M70 19h1M71 19h1M72 19h1M73 19h1M74 19h1M75 19h1M76 19h1M77 19h1M78 19h1M79 19h1M80 19h1M81 19h1M82 19h1M83 19h1M84 19h1M85 19h1M86 19h1M87 19h1M88 19h1M89 19h1M90 19h1M91 19h1M92 19h1M93 19h1M94 19h1M1 20h1M2 20h1M3 20h1M4 20h1M5 20h1M6 20h1M7 20h1M8 20h1M9 20h1M10 20h1M11 20h1M12 20h1M13 20h1M14 20h1M15 20h1M16 20h1M17 20h1M18 20h1M19 20h1M20 20h1M21 20h1M22 20h1M23 20h1M24 20h1M25 20h1M26 20h1M27 20h1M28 20h1M29 20h1M30 20h1M31 20h1M32 20h1M33 20h1M34 20h1M35 20h1M36 20h1M37 20h1M38 20h1M39 20h1M40 20h1M41 20h1M42 20h1M43 20h1M44 20h1M45 20h1M46 20h1M47 20h1M48 20h1M49 20h1M50 20h1M51 20h1M52 20h1M53 20h1M54 20h1M55 20h1M56 20h1M57 20h1M58 20h1M59 20h1M60 20h1M61 20h1M62 20h1M63 20h1M64 20h1M65 20h1M66 20h1M67 20h1M68 20h1M69 20h1M70 20h1M71 20h1M72 20h1M73 20h1M74 20h1M75 20h1M76 20h1M77 20h1M78 20h1M79 20h1M80 20h1M81 20h1M82 20h1M83 20h1M84 20h1M85 20h1M86 20h1M87 20h1M88 20h1M89 20h1M90 20h1M91 20h1M92 20h1M93 20h1M94 20h1M1 21h1M2 21h1M3 21h1M4 21h1M5 21h1M6 21h1M7 21h1M8 21h1M9 21h1M10 21h1M11 21h1M12 21h1M13 21h1M14 21h1M15 21h1M16 21h1M17 21h1M18 21h1M19 21h1M20 21h1M21 21h1M22 21h1M23 21h1M24 21h1M25 21h1M26 21h1M27 21h1M28 21h1M29 21h1M30 21h1M31 21h1M32 21h1M33 21h1M34 21h1M35 21h1M36 21h1M37 21h1M38 21h1M39 21h1M40 21h1M41 21h1M42 21h1M43 21h1M44 21h1M45 21h1M46 21h1M47 21h1M48 21h1M49 21h1M50 21h1M51 21h1M52 21h1M53 21h1M54 21h1M55 21h1M56 21h1M57 21h1M58 21h1M59 21h1M60 21h1M61 21h1M62 21h1M63 21h1M64 21h1M65 21h1M66 21h1M67 21h1M68 21h1M69 21h1M70 21h1M71 21h1M72 21h1M73 21h1M74 21h1M75 21h1M76 21h1M77 21h1M78 21h1M79 21h1M80 21h1M81 21h1M82 21h1M83 21h1M84 21h1M85 21h1M86 21h1M87 21h1M88 21h1M89 21h1M90 21h1M91 21h1M92 21h1M93 21h1M94 21h1M1 22h1M2 22h1M3 22h1M4 22h1M5 22h1M6 22h1M7 22h1M8 22h1M9 22h1M10 22h1M11 22h1M12 22h1M13 22h1M14 22h1M15 22h1M16 22h1M17 22h1M18 22h1M19 22h1M20 22h1M21 22h1M22 22h1M23 22h1M24 22h1M25 22h1M26 22h1M27 22h1M28 22h1M29 22h1M30 22h1M31 22h1M32 22h1M33 22h1M34 22h1M35 22h1M36 22h1M37 22h1M38 22h1M39 22h1M40 22h1M41 22h1M42 22h1M43 22h1M44 22h1M45 22h1M46 22h1M47 22h1M48 22h1M49 22h1M50 22h1M51 22h1M52 22h1M53 22h1M54 22h1M55 22h1M56 22h1M57 22h1M58 22h1M59 22h1M60 22h1M61 22h1M62 22h1M63 22h1M64 22h1M65 22h1M66 22h1M67 22h1M68 22h1M69 22h1M70 22h1M71 22h1M72 22h1M73 22h1M74 22h1M75 22h1M76 22h1M77 22h1M78 22h1M79 22h1M80 22h1M81 22h1M82 22h1M83 22h1M84 22h1M85 22h1M86 22h1M87 22h1M88 22h1M89 22h1M90 22h1M91 22h1M92 22h1M93 22h1M94 22h1M1 23h1M2 23h1M3 23h1M4 23h1M5 23h1M6 23h1M7 23h1M8 23h1M9 23h1M10 23h1M11 23h1M12 23h1M13 23h1M14 23h1M15 23h1M16 23h1M17 23h1M18 23h1M19 23h1M20 23h1M21 23h1M22 23h1M23 23h1M24 23h1M25 23h1M26 23h1M27 23h1M28 23h1M29 23h1M30 23h1M31 23h1M32 23h1M33 23h1M34 23h1M35 23h1M36 23h1M37 23h1M38 23h1M39 23h1M40 23h1M41 23h1M42 23h1M43 23h1M44 23h1M45 23h1M46 23h1M47 23h1M48 23h1M49 23h1M50 23h1M51 23h1M52 23h1M53 23h1M54 23h1M55 23h1M56 23h1M57 23h1M58 23h1M59 23h1M60 23h1M61 23h1M62 23h1M63 23h1M64 23h1M65 23h1M66 23h1M67 23h1M68 23h1M69 23h1M70 23h1M71 23h1M72 23h1M73 23h1M74 23h1M75 23h1M76 23h1M77 23h1M78 23h1M79 23h1M80 23h1M81 23h1M82 23h1M83 23h1M84 23h1M85 23h1M86 23h1M87 23h1M88 23h1M89 23h1M90 23h1M91 23h1M92 23h1M93 23h1M94 23h1M1 24h1M2 24h1M3 24h1M4 24h1M5 24h1M6 24h1M7 24h1M8 24h1M9 24h1M10 24h1M11 24h1M12 24h1M13 24h1M14 24h1M15 24h1M16 24h1M17 24h1M18 24h1M19 24h1M20 24h1M21 24h1M22 24h1M23 24h1M24 24h1M25 24h1M26 24h1M27 24h1M28 24h1M29 24h1M30 24h1M31 24h1M32 24h1M33 24h1M34 24h1M35 24h1M36 24h1M37 24h1M38 24h1M39 24h1M40 24h1M41 24h1M42 24h1M43 24h1M44 24h1M45 24h1M46 24h1M47 24h1M48 24h1M49 24h1M50 24h1M51 24h1M52 24h1M53 24h1M54 24h1M55 24h1M56 24h1M57 24h1M58 24h1M59 24h1M60 24h1M61 24h1M62 24h1M63 24h1M64 24h1M65 24h1M66 24h1M67 24h1M68 24h1M69 24h1M70 24h1M71 24h1M72 24h1M73 24h1M74 24h1M75 24h1M76 24h1M77 24h1M78 24h1M79 24h1M80 24h1M81 24h1M82 24h1M83 24h1M84 24h1M85 24h1M86 24h1M87 24h1M88 24h1M89 24h1M90 24h1M91 24h1M92 24h1M93 24h1M94 24h1M1 25h1M2 25h1M3 25h1M4 25h1M5 25h1M6 25h1M7 25h1M8 25h1M9 25h1M10 25h1M11 25h1M12 25h1M13 25h1M14 25h1M15 25h1M16 25h1M17 25h1M18 25h1M19 25h1M20 25h1M21 25h1M22 25h1M23 25h1M24 25h1M25 25h1M26 25h1M27 25h1M28 25h1M29 25h1M30 25h1M31 25h1M32 25h1M33 25h1M34 25h1M35 25h1M36 25h1M37 25h1M38 25h1M39 25h1M40 25h1M41 25h1M42 25h1M43 25h1M44 25h1M45 25h1M46 25h1M47 25h1M48 25h1M49 25h1M50 25h1M51 25h1M52 25h1M53 25h1M54 25h1M55 25h1M56 25h1M57 25h1M58 25h1M59 25h1M60 25h1M61 25h1M62 25h1M63 25h1M64 25h1M65 25h1M66 25h1M67 25h1M68 25h1M69 25h1M70 25h1M71 25h1M72 25h1M73 25h1M74 25h1M75 25h1M76 25h1M77 25h1M78 25h1M79 25h1M80 25h1M81 25h1M82 25h1M83 25h1M84 25h1M85 25h1M86 25h1M87 25h1M88 25h1M89 25h1M90 25h1M91 25h1M92 25h1M93 25h1M94 25h1M1 26h1M2 26h1M3 26h1M4 26h1M5 26h1M6 26h1M7 26h1M8 26h1M9 26h1M10 26h1M11 26h1M12 26h1M13 26h1M14 26h1M15 26h1M16 26h1M17 26h1M18 26h1M19 26h1M20 26h1M21 26h1M22 26h1M23 26h1M24 26h1M25 26h1M26 26h1M27 26h1M28 26h1M29 26h1M30 26h1M31 26h1M32 26h1M33 26h1M34 26h1M35 26h1M36 26h1M37 26h1M38 26h1M39 26h1M40 26h1M41 26h1M42 26h1M43 26h1M44 26h1M45 26h1M46 26h1M47 26h1M48 26h1M49 26h1M50 26h1M51 26h1M52 26h1M53 26h1M54 26h1M55 26h1M56 26h1M57 26h1M58 26h1M59 26h1M60 26h1M61 26h1M62 26h1M63 26h1M64 26h1M65 26h1M66 26h1M67 26h1M68 26h1M69 26h1M70 26h1M71 26h1M72 26h1M73 26h1M74 26h1M75 26h1M76 26h1M77 26h1M78 26h1M79 26h1M80 26h1M81 26h1M82 26h1M83 26h1M84 26h1M85 26h1M86 26h1M87 26h1M88 26h1M89 26h1M90 26h1M91 26h1M92 26h1M93 26h1M94 26h1M1 27h1M2 27h1M3 27h1M4 27h1M5 27h1M6 27h1M7 27h1M8 27h1M9 27h1M10 27h1M11 27h1M12 27h1M13 27h1M14 27h1M15 27h1M16 27h1M17 27h1M18 27h1M19 27h1M20 27h1M21 27h1M22 27h1M23 27h1M24 27h1M25 27h1M26 27h1M27 27h1M28 27h1M29 27h1M30 27h1M31 27h1M32 27h1M33 27h1M34 27h1M35 27h1M36 27h1M37 27h1M38 27h1M39 27h1M40 27h1M41 27h1M42 27h1M43 27h1M44 27h1M45 27h1M46 27h1M47 27h1M48 27h1M49 27h1M50 27h1M51 27h1M52 27h1M53 27h1M54 27h1M55 27h1M56 27h1M57 27h1M58 27h1M59 27h1M60 27h1M61 27h1M62 27h1M63 27h1M64 27h1M65 27h1M66 27h1M67 27h1M68 27h1M69 27h1M70 27h1M71 27h1M72 27h1M73 27h1M74 27h1M75 27h1M76 27h1M77 27h1M78 27h1M79 27h1M80 27h1M81 27h1M82 27h1M83 27h1M84 27h1M85 27h1M86 27h1M87 27h1M88 27h1M89 27h1M90 27h1M91 27h1M92 27h1M93 27h1M94 27h1M1 28h1M2 28h1M3 28h1M4 28h1M5 28h1M6 28h1M7 28h1M8 28h1M9 28h1M10 28h1M11 28h1M12 28h1M13 28h1M14 28h1M15 28h1M16 28h1M17 28h1M18 28h1M19 28h1M20 28h1M21 28h1M22 28h1M23 28h1M24 28h1M25 28h1M26 28h1M27 28h1M28 28h1M29 28h1M30 28h1M31 28h1M32 28h1M33 28h1M34 28h1M35 28h1M36 28h1M37 28h1M38 28h1M39 28h1M40 28h1M41 28h1M42 28h1M43 28h1M44 28h1M45 28h1M46 28h1M47 28h1M48 28h1M49 28h1M50 28h1M51 28h1M52 28h1M53 28h1M54 28h1M55 28h1M56 28h1M57 28h1M58 28h1M59 28h1M60 28h1M61 28h1M62 28h1M63 28h1M64 28h1M65 28h1M66 28h1M67 28h1M68 28h1M69 28h1M70 28h1M71 28h1M72 28h1M73 28h1M74 28h1M75 28h1M76 28h1M77 28h1M78 28h1M79 28h1M80 28h1M81 28h1M82 28h1M83 28h1M84 28h1M85 28h1M86 28h1M87 28h1M88 28h1M89 28h1M90 28h1M91 28h1M92 28h1M93 28h1M94 28h1M1 29h1M2 29h1M3 29h1M4 29h1M5 29h1M6 29h1M7 29h1M8 29h1M9 29h1M10 29h1M11 29h1M12 29h1M13 29h1M14 29h1M15 29h1M16 29h1M17 29h1M18 29h1M19 29h1M20 29h1M21 29h1M22 29h1M23 29h1M24 29h1M25 29h1M26 29h1M27 29h1M28 29h1M29 29h1M30 29h1M31 29h1M32 29h1M33 29h1M34 29h1M35 29h1M36 29h1M37 29h1M38 29h1M39 29h1M40 29h1M41 29h1M42 29h1M43 29h1M44 29h1M45 29h1M46 29h1M47 29h1M48 29h1M49 29h1M50 29h1M51 29h1M52 29h1M53 29h1M54 29h1M55 29h1M56 29h1M57 29h1M58 29h1M59 29h1M60 29h1M61 29h1M62 29h1M63 29h1M64 29h1M65 29h1M66 29h1M67 29h1M68 29h1M69 29h1M70 29h1M71 29h1M72 29h1M73 29h1M74 29h1M75 29h1M76 29h1M77 29h1M78 29h1M79 29h1M80 29h1M81 29h1M82 29h1M83 29h1M84 29h1M85 29h1M86 29h1M87 29h1M88 29h1M89 29h1M90 29h1M91 29h1M92 29h1M93 29h1M94 29h1M1 30h1M2 30h1M3 30h1M4 30h1M5 30h1M6 30h1M7 30h1M8 30h1M9 30h1M10 30h1M11 30h1M12 30h1M13 30h1M14 30h1M15 30h1M16 30h1M17 30h1M18 30h1M19 30h1M20 30h1M21 30h1M22 30h1M23 30h1M24 30h1M25 30h1M26 30h1M27 30h1M28 30h1M29 30h1M30 30h1M31 30h1M32 30h1M33 30h1M34 30h1M35 30h1M36 30h1M37 30h1M38 30h1M39 30h1M40 30h1M41 30h1M42 30h1M43 30h1M44 30h1M45 30h1M46 30h1M47 30h1M48 30h1M49 30h1M50 30h1M51 30h1M52 30h1M53 30h1M54 30h1M55 30h1M56 30h1M57 30h1M58 30h1M59 30h1M60 30h1M61 30h1M62 30h1M63 30h1M64 30h1M65 30h1M66 30h1M67 30h1M68 30h1M69 30h1M70 30h1M71 30h1M72 30h1M73 30h1M74 30h1M75 30h1M76 30h1M77 30h1M78 30h1M79 30h1M80 30h1M81 30h1M82 30h1M83 30h1M84 30h1M85 30h1M86 30h1M87 30h1M88 30h1M89 30h1M90 30h1M91 30h1M92 30h1M93 30h1M94 30h1M1 31h1M2 31h1M3 31h1M4 31h1M5 31h1M6 31h1M7 31h1M8 31h1M9 31h1M10 31h1M11 31h1M12 31h1M13 31h1M14 31h1M15 31h1M16 31h1M17 31h1M18 31h1M19 31h1M20 31h1M21 31h1M22 31h1M23 31h1M24 31h1M25 31h1M26 31h1M27 31h1M28 31h1M29 31h1M30 31h1M31 31h1M32 31h1M33 31h1M34 31h1M35 31h1M36 31h1M37 31h1M38 31h1M39 31h1M40 31h1M41 31h1M42 31h1M43 31h1M44 31h1M45 31h1M46 31h1M47 31h1M48 31h1M49 31h1M50 31h1M51 31h1M52 31h1M53 31h1M54 31h1M55 31h1M56 31h1M57 31h1M58 31h1M59 31h1M60 31h1M61 31h1M62 31h1M63 31h1M64 31h1M65 31h1M66 31h1M67 31h1M68 31h1M69 31h1M70 31h1M71 31h1M72 31h1M73 31h1M74 31h1M75 31h1M76 31h1M77 31h1M78 31h1M79 31h1M80 31h1M81 31h1M82 31h1M83 31h1M84 31h1M85 31h1M86 31h1M87 31h1M88 31h1M89 31h1M90 31h1M91 31h1M92 31h1M93 31h1M94 31h1M1 32h1M2 32h1M3 32h1M4 32h1M5 32h1M6 32h1M7 32h1M8 32h1M9 32h1M10 32h1M11 32h1M12 32h1M13 32h1M14 32h1M15 32h1M16 32h1M17 32h1M18 32h1M19 32h1M20 32h1M21 32h1M22 32h1M23 32h1M24 32h1M25 32h1M26 32h1M27 32h1M28 32h1M29 32h1M30 32h1M31 32h1M32 32h1M33 32h1M34 32h1M35 32h1M36 32h1M37 32h1M38 32h1M39 32h1M40 32h1M41 32h1M42 32h1M43 32h1M44 32h1M45 32h1M46 32h1M47 32h1M48 32h1M49 32h1M50 32h1M51 32h1M52 32h1M53 32h1M54 32h1M55 32h1M56 32h1M57 32h1M58 32h1M59 32h1M60 32h1M61 32h1M62 32h1M63 32h1M64 32h1M65 32h1M66 32h1M67 32h1M68 32h1M69 32h1M70 32h1M71 32h1M72 32h1M73 32h1M74 32h1M75 32h1M76 32h1M77 32h1M78 32h1M79 32h1M80 32h1M81 32h1M82 32h1M83 32h1M84 32h1M85 32h1M86 32h1M87 32h1M88 32h1M89 32h1M90 32h1M91 32h1M92 32h1M93 32h1M94 32h1M1 33h1M2 33h1M3 33h1M4 33h1M5 33h1M6 33h1M7 33h1M8 33h1M9 33h1M10 33h1M11 33h1M12 33h1M13 33h1M14 33h1M15 33h1M16 33h1M17 33h1M18 33h1M19 33h1M20 33h1M21 33h1M22 33h1M23 33h1M24 33h1M25 33h1M26 33h1M27 33h1M28 33h1M29 33h1M30 33h1M31 33h1M32 33h1M33 33h1M34 33h1M35 33h1M36 33h1M37 33h1M38 33h1M39 33h1M40 33h1M41 33h1M42 33h1M43 33h1M44 33h1M45 33h1M46 33h1M47 33h1M48 33h1M49 33h1M50 33h1M51 33h1M52 33h1M53 33h1M54 33h1M55 33h1M56 33h1M57 33h1M58 33h1M59 33h1M60 33h1M61 33h1M62 33h1M63 33h1M64 33h1M65 33h1M66 33h1M67 33h1M68 33h1M69 33h1M70 33h1M71 33h1M72 33h1M73 33h1M74 33h1M75 33h1M76 33h1M77 33h1M78 33h1M79 33h1M80 33h1M81 33h1M82 33h1M83 33h1M84 33h1M85 33h1M86 33h1M87 33h1M88 33h1M89 33h1M90 33h1M91 33h1M92 33h1M93 33h1M94 33h1M1 34h1M2 34h1M3 34h1M4 34h1M5 34h1M6 34h1M7 34h1M8 34h1M9 34h1M10 34h1M11 34h1M12 34h1M13 34h1M14 34h1M15 34h1M16 34h1M17 34h1M18 34h1M19 34h1M20 34h1M21 34h1M22 34h1M23 34h1M24 34h1M25 34h1M26 34h1M27 34h1M28 34h1M29 34h1M30 34h1M31 34h1M32 34h1M33 34h1M34 34h1M35 34h1M36 34h1M37 34h1M38 34h1M39 34h1M40 34h1M41 34h1M42 34h1M43 34h1M44 34h1M45 34h1M46 34h1M47 34h1M48 34h1M49 34h1M50 34h1M51 34h1M52 34h1M53 34h1M54 34h1M55 34h1M56 34h1M57 34h1M58 34h1M59 34h1M60 34h1M61 34h1M62 34h1M63 34h1M64 34h1M65 34h1M66 34h1M67 34h1M68 34h1M69 34h1M70 34h1M71 34h1M72 34h1M73 34h1M74 34h1M75 34h1M76 34h1M77 34h1M78 34h1M79 34h1M80 34h1M81 34h1M82 34h1M83 34h1M84 34h1M85 34h1M86 34h1M87 34h1M88 34h1M89 34h1M90 34h1M91 34h1M92 34h1M93 34h1M94 34h1M1 35h1M2 35h1M3 35h1M4 35h1M5 35h1M6 35h1M7 35h1M8 35h1M9 35h1M10 35h1M11 35h1M12 35h1M13 35h1M14 35h1M15 35h1M16 35h1M17 35h1M18 35h1M19 35h1M20 35h1M21 35h1M22 35h1M23 35h1M24 35h1M25 35h1M26 35h1M27 35h1M28 35h1M29 35h1M30 35h1M31 35h1M32 35h1M33 35h1M34 35h1M35 35h1M36 35h1M37 35h1M38 35h1M39 35h1M40 35h1M41 35h1M42 35h1M43 35h1M44 35h1M45 35h1M46 35h1M47 35h1M48 35h1M49 35h1M50 35h1M51 35h1M52 35h1M53 35h1M54 35h1M55 35h1M56 35h1M57 35h1M58 35h1M59 35h1M60 35h1M61 35h1M62 35h1M63 35h1M64 35h1M65 35h1M66 35h1M67 35h1M68 35h1M69 35h1M70 35h1M71 35h1M72 35h1M73 35h1M74 35h1M75 35h1M76 35h1M77 35h1M78 35h1M79 35h1M80 35h1M81 35h1M82 35h1M83 35h1M84 35h1M85 35h1M86 35h1M87 35h1M88 35h1M89 35h1M90 35h1M91 35h1M92 35h1M93 35h1M94 35h1M1 36h1M2 36h1M3 36h1M4 36h1M5 36h1M6 36h1M7 36h1M8 36h1M9 36h1M10 36h1M11 36h1M12 36h1M13 36h1M14 36h1M15 36h1M16 36h1M17 36h1M18 36h1M19 36h1M20 36h1M21 36h1M22 36h1M23 36h1M24 36h1M25 36h1M26 36h1M27 36h1M28 36h1M29 36h1M30 36h1M31 36h1M32 36h1M33 36h1M34 36h1M35 36h1M36 36h1M37 36h1M38 36h1M39 36h1M40 36h1M41 36h1M42 36h1M43 36h1M44 36h1M45 36h1M46 36h1M47 36h1M48 36h1M49 36h1M50 36h1M51 36h1M52 36h1M53 36h1M54 36h1M55 36h1M56 36h1M57 36h1M58 36h1M59 36h1M60 36h1M61 36h1M62 36h1M63 36h1M64 36h1M65 36h1M66 36h1M67 36h1M68 36h1M69 36h1M70 36h1M71 36h1M72 36h1M73 36h1M74 36h1M75 36h1M76 36h1M77 36h1M78 36h1M79 36h1M80 36h1M81 36h1M82 36h1M83 36h1M84 36h1M85 36h1M86 36h1M87 36h1M88 36h1M89 36h1M90 36h1M91 36h1M92 36h1M93 36h1M94 36h1M1 37h1M2 37h1M3 37h1M4 37h1M5 37h1M6 37h1M7 37h1M8 37h1M9 37h1M10 37h1M11 37h1M12 37h1M13 37h1M14 37h1M15 37h1M16 37h1M17 37h1M18 37h1M19 37h1M20 37h1M21 37h1M22 37h1M23 37h1M24 37h1M25 37h1M26 37h1M27 37h1M28 37h1M29 37h1M30 37h1M31 37h1M32 37h1M33 37h1M34 37h1M35 37h1M36 37h1M37 37h1M38 37h1M39 37h1M40 37h1M41 37h1M42 37h1M43 37h1M44 37h1M45 37h1M46 37h1M47 37h1M48 37h1M49 37h1M50 37h1M51 37h1M52 37h1M53 37h1M54 37h1M55 37h1M56 37h1M57 37h1M58 37h1M59 37h1M60 37h1M61 37h1M62 37h1M63 37h1M64 37h1M65 37h1M66 37h1M67 37h1M68 37h1M69 37h1M70 37h1M71 37h1M72 37h1M73 37h1M74 37h1M75 37h1M76 37h1M77 37h1M78 37h1M79 37h1M80 37h1M81 37h1M82 37h1M83 37h1M84 37h1M85 37h1M86 37h1M87 37h1M88 37h1M89 37h1M90 37h1M91 37h1M92 37h1M93 37h1M94 37h1M1 38h1M2 38h1M3 38h1M4 38h1M5 38h1M6 38h1M7 38h1M8 38h1M9 38h1M10 38h1M11 38h1M12 38h1M13 38h1M14 38h1M15 38h1M16 38h1M17 38h1M18 38h1M19 38h1M20 38h1M21 38h1M22 38h1M23 38h1M24 38h1M25 38h1M26 38h1M27 38h1M28 38h1M29 38h1M30 38h1M31 38h1M32 38h1M33 38h1M34 38h1M35 38h1M36 38h1M37 38h1M38 38h1M39 38h1M40 38h1M41 38h1M42 38h1M43 38h1M44 38h1M45 38h1M46 38h1M47 38h1M48 38h1M49 38h1M50 38h1M51 38h1M52 38h1M53 38h1M54 38h1M55 38h1M56 38h1M57 38h1M58 38h1M59 38h1M60 38h1M61 38h1M62 38h1M63 38h1M64 38h1M65 38h1M66 38h1M67 38h1M68 38h1M69 38h1M70 38h1M71 38h1M72 38h1M73 38h1M74 38h1M75 38h1M76 38h1M77 38h1M78 38h1M79 38h1M80 38h1M81 38h1M82 38h1M83 38h1M84 38h1M85 38h1M86 38h1M87 38h1M88 38h1M89 38h1M90 38h1M91 38h1M92 38h1M93 38h1M94 38h1M1 39h1M2 39h1M3 39h1M4 39h1M5 39h1M6 39h1M7 39h1M8 39h1M9 39h1M10 39h1M11 39h1M12 39h1M13 39h1M14 39h1M15 39h1M16 39h1M17 39h1M18 39h1M19 39h1M20 39h1M21 39h1M22 39h1M23 39h1M24 39h1M25 39h1M26 39h1M27 39h1M28 39h1M29 39h1M30 39h1M31 39h1M32 39h1M33 39h1M34 39h1M35 39h1M36 39h1M37 39h1M38 39h1M39 39h1M40 39h1M41 39h1M42 39h1M43 39h1M44 39h1M45 39h1M46 39h1M47 39h1M48 39h1M49 39h1M50 39h1M51 39h1M52 39h1M53 39h1M54 39h1M55 39h1M56 39h1M57 39h1M58 39h1M59 39h1M60 39h1M61 39h1M62 39h1M63 39h1M64 39h1M65 39h1M66 39h1M67 39h1M68 39h1M69 39h1M70 39h1M71 39h1M72 39h1M73 39h1M74 39h1M75 39h1M76 39h1M77 39h1M78 39h1M79 39h1M80 39h1M81 39h1M82 39h1M83 39h1M84 39h1M85 39h1M86 39h1M87 39h1M88 39h1M89 39h1M90 39h1M91 39h1M92 39h1M93 39h1M94 39h1M1 40h1M2 40h1M3 40h1M4 40h1M5 40h1M6 40h1M7 40h1M8 40h1M9 40h1M10 40h1M11 40h1M12 40h1M13 40h1M14 40h1M15 40h1M16 40h1M17 40h1M18 40h1M19 40h1M20 40h1M21 40h1M22 40h1M23 40h1M24 40h1M25 40h1M26 40h1M27 40h1M28 40h1M29 40h1M30 40h1M31 40h1M32 40h1M33 40h1M34 40h1M35 40h1M36 40h1M37 40h1M38 40h1M39 40h1M40 40h1M41 40h1M42 40h1M43 40h1M44 40h1M45 40h1M46 40h1M47 40h1M48 40h1M49 40h1M50 40h1M51 40h1M52 40h1M53 40h1M54 40h1M55 40h1M56 40h1M57 40h1M58 40h1M59 40h1M60 40h1M61 40h1M62 40h1M63 40h1M64 40h1M65 40h1M66 40h1M67 40h1M68 40h1M69 40h1M70 40h1M71 40h1M72 40h1M73 40h1M74 40h1M75 40h1M76 40h1M77 40h1M78 40h1M79 40h1M80 40h1M81 40h1M82 40h1M83 40h1M84 40h1M85 40h1M86 40h1M87 40h1M88 40h1M89 40h1M90 40h1M91 40h1M92 40h1M93 40h1M94 40h1M1 41h1M2 41h1M3 41h1M4 41h1M5 41h1M6 41h1M7 41h1M8 41h1M9 41h1M10 41h1M11 41h1M12 41h1M13 41h1M14 41h1M15 41h1M16 41h1M17 41h1M18 41h1M19 41h1M20 41h1M21 41h1M22 41h1M23 41h1M24 41h1M25 41h1M26 41h1M27 41h1M28 41h1M29 41h1M30 41h1M31 41h1M32 41h1M33 41h1M34 41h1M35 41h1M36 41h1M37 41h1M38 41h1M39 41h1M40 41h1M41 41h1M42 41h1M43 41h1M44 41h1M45 41h1M46 41h1M47 41h1M48 41h1M49 41h1M50 41h1M51 41h1M52 41h1M53 41h1M54 41h1M55 41h1M56 41h1M57 41h1M58 41h1M59 41h1M60 41h1M61 41h1M62 41h1M63 41h1M64 41h1M65 41h1M66 41h1M67 41h1M68 41h1M69 41h1M70 41h1M71 41h1M72 41h1M73 41h1M74 41h1M75 41h1M76 41h1M77 41h1M78 41h1M79 41h1M80 41h1M81 41h1M82 41h1M83 41h1M84 41h1M85 41h1M86 41h1M87 41h1M88 41h1M89 41h1M90 41h1M91 41h1M92 41h1M93 41h1M94 41h1M1 42h1M2 42h1M3 42h1M4 42h1M5 42h1M6 42h1M7 42h1M8 42h1M9 42h1M10 42h1M11 42h1M12 42h1M13 42h1M14 42h1M15 42h1M16 42h1M17 42h1M18 42h1M19 42h1M20 42h1M21 42h1M22 42h1M23 42h1M24 42h1M25 42h1M26 42h1M27 42h1M28 42h1M29 42h1M30 42h1M31 42h1M32 42h1M33 42h1M34 42h1M35 42h1M36 42h1M37 42h1M38 42h1M39 42h1M40 42h1M41 42h1M42 42h1M43 42h1M44 42h1M45 42h1M46 42h1M47 42h1M48 42h1M49 42h1M50 42h1M51 42h1M52 42h1M53 42h1M54 42h1M55 42h1M56 42h1M57 42h1M58 42h1M59 42h1M60 42h1M61 42h1M62 42h1M63 42h1M64 42h1M65 42h1M66 42h1M67 42h1M68 42h1M69 42h1M70 42h1M71 42h1M72 42h1M73 42h1M74 42h1M75 42h1M76 42h1M77 42h1M78 42h1M79 42h1M80 42h1M81 42h1M82 42h1M83 42h1M84 42h1M85 42h1M86 42h1M87 42h1M88 42h1M89 42h1M90 42h1M91 42h1M92 42h1M93 42h1M94 42h1M1 43h1M2 43h1M3 43h1M4 43h1M5 43h1M6 43h1M7 43h1M8 43h1M9 43h1M10 43h1M11 43h1M12 43h1M13 43h1M14 43h1M15 43h1M16 43h1M17 43h1M18 43h1M19 43h1M20 43h1M21 43h1M22 43h1M23 43h1M24 43h1M25 43h1M26 43h1M27 43h1M28 43h1M29 43h1M30 43h1M31 43h1M32 43h1M33 43h1M34 43h1M35 43h1M36 43h1M37 43h1M38 43h1M39 43h1M40 43h1M41 43h1M42 43h1M43 43h1M44 43h1M45 43h1M46 43h1M47 43h1M48 43h1M49 43h1M50 43h1M51 43h1M52 43h1M53 43h1M54 43h1M55 43h1M56 43h1M57 43h1M58 43h1M59 43h1M60 43h1M61 43h1M62 43h1M63 43h1M64 43h1M65 43h1M66 43h1M67 43h1M68 43h1M69 43h1M70 43h1M71 43h1M72 43h1M73 43h1M74 43h1M75 43h1M76 43h1M77 43h1M78 43h1M79 43h1M80 43h1M81 43h1M82 43h1M83 43h1M84 43h1M85 43h1M86 43h1M87 43h1M88 43h1M89 43h1M90 43h1M91 43h1M92 43h1M93 43h1M94 43h1M1 44h1M2 44h1M3 44h1M4 44h1M5 44h1M6 44h1M7 44h1M8 44h1M9 44h1M10 44h1M11 44h1M12 44h1M13 44h1M14 44h1M15 44h1M16 44h1M17 44h1M18 44h1M19 44h1M20 44h1M21 44h1M22 44h1M23 44h1M24 44h1M25 44h1M26 44h1M27 44h1M28 44h1M29 44h1M30 44h1M31 44h1M32 44h1M33 44h1M34 44h1M35 44h1M36 44h1M37 44h1M38 44h1M39 44h1M40 44h1M41 44h1M42 44h1M43 44h1M44 44h1M45 44h1M46 44h1M47 44h1M48 44h1M49 44h1M50 44h1M51 44h1M52 44h1M53 44h1M54 44h1M55 44h1M56 44h1M57 44h1M58 44h1M59 44h1M60 44h1M61 44h1M62 44h1M63 44h1M64 44h1M65 44h1M66 44h1M67 44h1M68 44h1M69 44h1M70 44h1M71 44h1M72 44h1M73 44h1M74 44h1M75 44h1M76 44h1M77 44h1M78 44h1M79 44h1M80 44h1M81 44h1M82 44h1M83 44h1M84 44h1M85 44h1M86 44h1M87 44h1M88 44h1M89 44h1M90 44h1M91 44h1M92 44h1M93 44h1M94 44h1M1 45h1M2 45h1M3 45h1M4 45h1M5 45h1M6 45h1M7 45h1M8 45h1M9 45h1M10 45h1M11 45h1M12 45h1M13 45h1M14 45h1M15 45h1M16 45h1M17 45h1M18 45h1M19 45h1M20 45h1M21 45h1M22 45h1M23 45h1M24 45h1M25 45h1M26 45h1M27 45h1M28 45h1M29 45h1M30 45h1M31 45h1M32 45h1M33 45h1M34 45h1M35 45h1M36 45h1M37 45h1M38 45h1M39 45h1M40 45h1M41 45h1M42 45h1M43 45h1M44 45h1M45 45h1M46 45h1M47 45h1M48 45h1M49 45h1M50 45h1M51 45h1M52 45h1M53 45h1M54 45h1M55 45h1M56 45h1M57 45h1M58 45h1M59 45h1M60 45h1M61 45h1M62 45h1M63 45h1M64 45h1M65 45h1M66 45h1M67 45h1M68 45h1M69 45h1M70 45h1M71 45h1M72 45h1M73 45h1M74 45h1M75 45h1M76 45h1M77 45h1M78 45h1M79 45h1M80 45h1M81 45h1M82 45h1M83 45h1M84 45h1M85 45h1M86 45h1M87 45h1M88 45h1M89 45h1M90 45h1M91 45h1M92 45h1M93 45h1M94 45h1M1 46h1M2 46h1M3 46h1M4 46h1M5 46h1M6 46h1M7 46h1M8 46h1M9 46h1M10 46h1M11 46h1M12 46h1M13 46h1M14 46h1M15 46h1M16 46h1M17 46h1M18 46h1M19 46h1M20 46h1M21 46h1M22 46h1M23 46h1M24 46h1M25 46h1M26 46h1M27 46h1M28 46h1M29 46h1M30 46h1M31 46h1M32 46h1M33 46h1M34 46h1M35 46h1M36 46h1M37 46h1M38 46h1M39 46h1M40 46h1M41 46h1M42 46h1M43 46h1M44 46h1M45 46h1M46 46h1M47 46h1M48 46h1M49 46h1M50 46h1M51 46h1M52 46h1M53 46h1M54 46h1M55 46h1M56 46h1M57 46h1M58 46h1M59 46h1M60 46h1M61 46h1M62 46h1M63 46h1M64 46h1M65 46h1M66 46h1M67 46h1M68 46h1M69 46h1M70 46h1M71 46h1M72 46h1M73 46h1M74 46h1M75 46h1M76 46h1M77 46h1M78 46h1M79 46h1M80 46h1M81 46h1M82 46h1M83 46h1M84 46h1M85 46h1M86 46h1M87 46h1M88 46h1M89 46h1M90 46h1M91 46h1M92 46h1M93 46h1M94 46h1M1 47h1M2 47h1M3 47h1M4 47h1M5 47h1M6 47h1M7 47h1M8 47h1M9 47h1M10 47h1M11 47h1M12 47h1M13 47h1M14 47h1M15 47h1M16 47h1M17 47h1M18 47h1M19 47h1M20 47h1M21 47h1M22 47h1M23 47h1M24 47h1M25 47h1M26 47h1M27 47h1M28 47h1M29 47h1M30 47h1M31 47h1M32 47h1M33 47h1M34 47h1M35 47h1M36 47h1M37 47h1M38 47h1M39 47h1M40 47h1M41 47h1M42 47h1M43 47h1M44 47h1M45 47h1M46 47h1M47 47h1M48 47h1M49 47h1M50 47h1M51 47h1M52 47h1M53 47h1M54 47h1M55 47h1M56 47h1M57 47h1M58 47h1M59 47h1M60 47h1M61 47h1M62 47h1M63 47h1M64 47h1M65 47h1M66 47h1M67 47h1M68 47h1M69 47h1M70 47h1M71 47h1M72 47h1M73 47h1M74 47h1M75 47h1M76 47h1M77 47h1M78 47h1M79 47h1M80 47h1M81 47h1M82 47h1M83 47h1M84 47h1M85 47h1M86 47h1M87 47h1M88 47h1M89 47h1M90 47h1M91 47h1M92 47h1M93 47h1M94 47h1" />
</svg>