<svg xmlns="http://www.w3.org/2000/svg" viewBox="0 -0.5 96 16" shape-rendering="crispEdges">
  <path stroke="#000000" d="M2 0h1M3 0h1M4 0h1M5 0h1M6 0h1M7 0h1M8 0h1M9 0h1M10 0h1M11 0h1M12 0h1M13 0h1M14 0h1M15 0h1M16 0h1M17 0h1M18 0h1M19 0h1M20 0h1M21 0h1M22 0h1M23 0h1M24 0h1M25 0h1M26 0h1M27 0h1M28 0h1M29 0h1M30 0h1M31 0h1M32 0h1M33 0h1M34 0h1M35 0h1M36 0h1M37 0h1M38 0h1M39 0h1M40 0h1M41 0h1M42 0h1M43 0h1M44 0h1M45 0h1M46 0h1M47 0h1M48 0h1M49 0h1M50 0h1M51 0h1M52 0h1M53 0h1M54 0h1M55 0h1M56 0h1M57 0h1M58 0h1M59 0h1M60 0h1M61 0h1M62 0h1M63 0h1M64 0h1M65 0h1M66 0h1M67 0h1M68 0h1M69 0h1M70 0h1M71 0h1M72 0h1M73 0h1M74 0h1M75 0h1M76 0h1M77 0h1M78 0h1M79 0h1M80 0h1M81 0h1M82 0h1M83 0h1M84 0h1M85 0h1M86 0h1M87 0h1M88 0h1M89 0h1M90 0h1M91 0h1M92 0h1M93 0h1M1 1h1M94 1h1M0 2h1M95 2h1M0 3h1M95 3h1M0 4h1M95 4h1M0 5h1M95 5h1M0 6h1M95 6h1M0 7h1M95 7h1M0 8h1M95 8h1M0 9h1M95 9h1M0 10h1M95 10h1M0 11h1M95 11h1M0 12h1M95 12h1M0 13h1M95 13h1M0 14h1M95 14h1M0 15h1M95 15h1" />
<path stroke="#4fb8ff" d="M2 1h1M3 1h1M4 1h1M5 1h1M6 1h1M7 1h1M8 1h1M9 1h1M10 1h1M11 1h1M12 1h1M13 1h1M14 1h1M15 1h1M16 1h1M17 1h1M18 1h1M19 1h1M20 1h1M21 1h1M22 1h1M23 1h1M24 1h1M25 1h1M26 1h1M27 1h1M28 1h1M29 1h1M30 1h1M31 1h1M32 1h1M33 1h1M34 1h1M35 1h1M36 1h1M37 1h1M38 1h1M39 1h1M40 1h1M41 1h1M42 1h1M43 1h1M44 1h1M45 1h1M46 1h1M47 1h1M48 1h1M49 1h1M50 1h1M51 1h1M52 1h1M53 1h1M54 1h1M55 1h1M56 1h1M57 1h1M58 1h1M59 1h1M60 1h1M61 1h1M62 1h1M63 1h1M64 1h1M65 1h1M66 1h1M67 1h1M68 1h1M69 1h1M70 1h1M71 1h1M72 1h1M73 1h1M74 1h1M75 1h1M76 1h1M77 1h1M78 1h1M79 1h1M80 1h1M81 1h1M82 1h1M83 1h1M84 1h1M85 1h1M86 1h1M87 1h1M88 1h1M89 1h1M90 1h1M91 1h1M92 1h1M93 1h1M1 2h1M94 2h1M94 3h1M94 4h1M94 5h1M94 6h1M94 7h1M94 8h1M94 9h1M94 10h1M94 11h1M94 12h1M94 13h1M94 14h1M94 15h1" />
<path stroke="#267ae9" d="M2 2h1M3 2h1M4 2h1M5 2h1M6 2h1M7 2h1M8 2h1M9 2h1M10 2h1M11 2h1M12 2h1M13 2h1M14 2h1M15 2h1M16 2h1M17 2h1M18 2h1M19 2h1M20 2h1M21 2h1M22 2h1M23 2h1M24 2h1M25 2h1M26 2h1M27 2h1M28 2h1M29 2h1M30 2h1M31 2h1M32 2h1M33 2h1M34 2h1M35 2h1M36 2h1M37 2h1M38 2h1M39 2h1M40 2h1M41 2h1M42 2h1M43 2h1M44 2h1M45 2h1M46 2h1M47 2h1M48 2h1M49 2h1M50 2h1M51 2h1M52 2h1M53 2h1M54 2h1M55 2h1M56 2h1M57 2h1M58 2h1M59 2h1M60 2h1M61 2h1M62 2h1M63 2h1M64 2h1M65 2h1M66 2h1M67 2h1M68 2h1M69 2h1M70 2h1M71 2h1M72 2h1M73 2h1M74 2h1M75 2h1M76 2h1M77 2h1M78 2h1M79 2h1M80 2h1M81 2h1M82 2h1M83 2h1M84 2h1M85 2h1M86 2h1M87 2h1M88 2h1M89 2h1M90 2h1M91 2h1M92 2h1M93 2h1M2 3h1M3 3h1M4 3h1M5 3h1M6 3h1M7 3h1M8 3h1M9 3h1M10 3h1M11 3h1M12 3h1M13 3h1M14 3h1M15 3h1M16 3h1M17 3h1M18 3h1M19 3h1M20 3h1M21 3h1M22 3h1M23 3h1M24 3h1M25 3h1M26 3h1M27 3h1M28 3h1M29 3h1M30 3h1M31 3h1M32 3h1M33 3h1M34 3h1M35 3h1M36 3h1M37 3h1M38 3h1M39 3h1M40 3h1M41 3h1M42 3h1M43 3h1M44 3h1M45 3h1M46 3h1M47 3h1M48 3h1M49 3h1M50 3h1M51 3h1M52 3h1M53 3h1M54 3h1M55 3h1M56 3h1M57 3h1M58 3h1M59 3h1M60 3h1M61 3h1M62 3h1M63 3h1M64 3h1M65 3h1M66 3h1M67 3h1M68 3h1M69 3h1M70 3h1M71 3h1M72 3h1M73 3h1M74 3h1M75 3h1M76 3h1M77 3h1M78 3h1M79 3h1M80 3h1M81 3h1M82 3h1M83 3h1M84 3h1M85 3h1M86 3h1M87 3h1M88 3h1M89 3h1M90 3h1M91 3h1M92 3h1M93 3h1M2 4h1M3 4h1M4 4h1M5 4h1M6 4h1M7 4h1M8 4h1M9 4h1M10 4h1M11 4h1M12 4h1M13 4h1M14 4h1M15 4h1M16 4h1M17 4h1M18 4h1M19 4h1M20 4h1M21 4h1M22 4h1M23 4h1M24 4h1M25 4h1M26 4h1M27 4h1M28 4h1M29 4h1M30 4h1M31 4h1M32 4h1M33 4h1M34 4h1M35 4h1M36 4h1M37 4h1M38 4h1M39 4h1M40 4h1M41 4h1M42 4h1M43 4h1M44 4h1M45 4h1M46 4h1M47 4h1M48 4h1M49 4h1M50 4h1M51 4h1M52 4h1M53 4h1M54 4h1M55 4h1M56 4h1M57 4h1M58 4h1M59 4h1M60 4h1M61 4h1M62 4h1M63 4h1M64 4h1M65 4h1M66 4h1M67 4h1M68 4h1M69 4h1M70 4h1M71 4h1M72 4h1M73 4h1M74 4h1M75 4h1M76 4h1M77 4h1M78 4h1M79 4h1M80 4h1M81 4h1M82 4h1M83 4h1M84 4h1M85 4h1M86 4h1M87 4h1M88 4h1M89 4h1M90 4h1M91 4h1M92 4h1M93 4h1M2 5h1M3 5h1M4 5h1M5 5h1M6 5h1M7 5h1M8 5h1M9 5h1M10 5h1M11 5h1M12 5h1M13 5h1M14 5h1M15 5h1M16 5h1M17 5h1M18 5h1M19 5h1M20 5h1M21 5h1M22 5h1M23 5h1M24 5h1M25 5h1M26 5h1M27 5h1M28 5h1M29 5h1M30 5h1M31 5h1M32 5h1M33 5h1M34 5h1M35 5h1M36 5h1M37 5h1M38 5h1M39 5h1M40 5h1M41 5h1M42 5h1M43 5h1M44 5h1M45 5h1M46 5h1M47 5h1M48 5h1M49 5h1M50 5h1M51 5h1M52 5h1M53 5h1M54 5h1M55 5h1M56 5h1M57 5h1M58 5h1M59 5h1M60 5h1M61 5h1M62 5h1M63 5h1M64 5h1M65 5h1M66 5h1M67 5h1M68 5h1M69 5h1M70 5h1M71 5h1M72 5h1M73 5h1M74 5h1M75 5h1M76 5h1M77 5h1M78 5h1M79 5h1M80 5h1M81 5h1M82 5h1M83 5h1M84 5h1M85 5h1M86 5h1M87 5h1M88 5h1M89 5h1M90 5h1M91 5h1M92 5h1M93 5h1M2 6h1M3 6h1M4 6h1M5 6h1M6 6h1M7 6h1M8 6h1M9 6h1M10 6h1M11 6h1M12 6h1M13 6h1M14 6h1M15 6h1M16 6h1M17 6h1M18 6h1M19 6h1M20 6h1M21 6h1M22 6h1M23 6h1M24 6h1M25 6h1M26 6h1M27 6h1M28 6h1M29 6h1M30 6h1M31 6h1M32 6h1M33 6h1M34 6h1M35 6h1M36 6h1M37 6h1M38 6h1M39 6h1M40 6h1M41 6h1M42 6h1M43 6h1M44 6h1M45 6h1M46 6h1M47 6h1M48 6h1M49 6h1M50 6h1M51 6h1M52 6h1M53 6h1M54 6h1M55 6h1M56 6h1M57 6h1M58 6h1M59 6h1M60 6h1M61 6h1M62 6h1M63 6h1M64 6h1M65 6h1M66 6h1M67 6h1M68 6h1M69 6h1M70 6h1M71 6h1M72 6h1M73 6h1M74 6h1M75 6h1M76 6h1M77 6h1M78 6h1M79 6h1M80 6h1M81 6h1M82 6h1M83 6h1M84 6h1M85 6h1M86 6h1M87 6h1M88 6h1M89 6h1M90 6h1M91 6h1M92 6h1M93 6h1M2 7h1M3 7h1M4 7h1M5 7h1M6 7h1M7 7h1M8 7h1M9 7h1M10 7h1M11 7h1M12 7h1M13 7h1M14 7h1M15 7h1M16 7h1M17 7h1M18 7h1M19 7h1M20 7h1M21 7h1M22 7h1M23 7h1M24 7h1M25 7h1M26 7h1M27 7h1M28 7h1M29 7h1M30 7h1M31 7h1M32 7h1M33 7h1M34 7h1M35 7h1M36 7h1M37 7h1M38 7h1M39 7h1M40 7h1M41 7h1M42 7h1M43 7h1M44 7h1M45 7h1M46 7h1M47 7h1M48 7h1M49 7h1M50 7h1M51 7h1M52 7h1M53 7h1M54 7h1M55 7h1M56 7h1M57 7h1M58 7h1M59 7h1M60 7h1M61 7h1M62 7h1M63 7h1M64 7h1M65 7h1M66 7h1M67 7h1M68 7h1M69 7h1M70 7h1M71 7h1M72 7h1M73 7h1M74 7h1M75 7h1M76 7h1M77 7h1M78 7h1M79 7h1M80 7h1M81 7h1M82 7h1M83 7h1M84 7h1M85 7h1M86 7h1M87 7h1M88 7h1M89 7h1M90 7h1M91 7h1M92 7h1M93 7h1M2 8h1M3 8h1M4 8h1M5 8h1M6 8h1M7 8h1M8 8h1M9 8h1M10 8h1M11 8h1M12 8h1M13 8h1M14 8h1M15 8h1M16 8h1M17 8h1M18 8h1M19 8h1M20 8h1M21 8h1M22 8h1M23 8h1M24 8h1M25 8h1M26 8h1M27 8h1M28 8h1M29 8h1M30 8h1M31 8h1M32 8h1M33 8h1M34 8h1M35 8h1M36 8h1M37 8h1M38 8h1M39 8h1M40 8h1M41 8h1M42 8h1M43 8h1M44 8h1M45 8h1M46 8h1M47 8h1M48 8h1M49 8h1M50 8h1M51 8h1M52 8h1M53 8h1M54 8h1M55 8h1M56 8h1M57 8h1M58 8h1M59 8h1M60 8h1M61 8h1M62 8h1M63 8h1M64 8h1M65 8h1M66 8h1M67 8h1M68 8h1M69 8h1M70 8h1M71 8h1M72 8h1M73 8h1M74 8h1M75 8h1M76 8h1M77 8h1M78 8h1M79 8h1M80 8h1M81 8h1M82 8h1M83 8h1M84 8h1M85 8h1M86 8h1M87 8h1M88 8h1M89 8h1M90 8h1M91 8h1M92 8h1M93 8h1M2 9h1M3 9h1M4 9h1M5 9h1M6 9h1M7 9h1M8 9h1M9 9h1M10 9h1M11 9h1M12 9h1M13 9h1M14 9h1M15 9h1M16 9h1M17 9h1M18 9h1M19 9h1M20 9h1M21 9h1M22 9h1M23 9h1M24 9h1M25 9h1M26 9h1M27 9h1M28 9h1M29 9h1M30 9h1M31 9h1M32 9h1M33 9h1M34 9h1M35 9h1M36 9h1M37 9h1M38 9h1M39 9h1M40 9h1M41 9h1M42 9h1M43 9h1M44 9h1M45 9h1M46 9h1M47 9h1M48 9h1M49 9h1M50 9h1M51 9h1M52 9h1M53 9h1M54 9h1M55 9h1M56 9h1M57 9h1M58 9h1M59 9h1M60 9h1M61 9h1M62 9h1M63 9h1M64 9h1M65 9h1M66 9h1M67 9h1M68 9h1M69 9h1M70 9h1M71 9h1M72 9h1M73 9h1M74 9h1M75 9h1M76 9h1M77 9h1M78 9h1M79 9h1M80 9h1M81 9h1M82 9h1M83 9h1M84 9h1M85 9h1M86 9h1M87 9h1M88 9h1M89 9h1M90 9h1M91 9h1M92 9h1M93 9h1M2 10h1M3 10h1M4 10h1M5 10h1M6 10h1M7 10h1M8 10h1M9 10h1M10 10h1M11 10h1M12 10h1M13 10h1M14 10h1M15 10h1M16 10h1M17 10h1M18 10h1M19 10h1M20 10h1M21 10h1M22 10h1M23 10h1M24 10h1M25 10h1M26 10h1M27 10h1M28 10h1M29 10h1M30 10h1M31 10h1M32 10h1M33 10h1M34 10h1M35 10h1M36 10h1M37 10h1M38 10h1M39 10h1M40 10h1M41 10h1M42 10h1M43 10h1M44 10h1M45 10h1M46 10h1M47 10h1M48 10h1M49 10h1M50 10h1M51 10h1M52 10h1M53 10h1M54 10h1M55 10h1M56 10h1M57 10h1M58 10h1M59 10h1M60 10h1M61 10h1M62 10h1M63 10h1M64 10h1M65 10h1M66 10h1M67 10h1M68 10h1M69 10h1M70 10h1M71 10h1M72 10h1M73 10h1M74 10h1M75 10h1M76 10h1M77 10h1M78 10h1M79 10h1M80 10h1M81 10h1M82 10h1M83 10h1M84 10h1M85 10h1M86 10h1M87 10h1M88 10h1M89 10h1M90 10h1M91 10h1M92 10h1M93 10h1M2 11h1M3 11h1M4 11h1M5 11h1M6 11h1M7 11h1M8 11h1M9 11h1M10 11h1M11 11h1M12 11h1M13 11h1M14 11h1M15 11h1M16 11h1M17 11h1M18 11h1M19 11h1M20 11h1M21 11h1M22 11h1M23 11h1M24 11h1M25 11h1M26 11h1M27 11h1M28 11h1M29 11h1M30 11h1M31 11h1M32 11h1M33 11h1M34 11h1M35 11h1M36 11h1M37 11h1M38 11h1M39 11h1M40 11h1M41 11h1M42 11h1M43 11h1M44 11h1M45 11h1M46 11h1M47 11h1M48 11h1M49 11h1M50 11h1M51 11h1M52 11h1M53 11h1M54 11h1M55 11h1M56 11h1M57 11h1M58 11h1M59 11h1M60 11h1M61 11h1M62 11h1M63 11h1M64 11h1M65 11h1M66 11h1M67 11h1M68 11h1M69 11h1M70 11h1M71 11h1M72 11h1M73 11h1M74 11h1M75 11h1M76 11h1M77 11h1M78 11h1M79 11h1M80 11h1M81 11h1M82 11h1M83 11h1M84 11h1M85 11h1M86 11h1M87 11h1M88 11h1M89 11h1M90 11h1M91 11h1M92 11h1M93 11h1M2 12h1M3 12h1M4 12h1M5 12h1M6 12h1M7 12h1M8 12h1M9 12h1M10 12h1M11 12h1M12 12h1M13 12h1M14 12h1M15 12h1M16 12h1M17 12h1M18 12h1M19 12h1M20 12h1M21 12h1M22 12h1M23 12h1M24 12h1M25 12h1M26 12h1M27 12h1M28 12h1M29 12h1M30 12h1M31 12h1M32 12h1M33 12h1M34 12h1M35 12h1M36 12h1M37 12h1M38 12h1M39 12h1M40 12h1M41 12h1M42 12h1M43 12h1M44 12h1M45 12h1M46 12h1M47 12h1M48 12h1M49 12h1M50 12h1M51 12h1M52 12h1M53 12h1M54 12h1M55 12h1M56 12h1M57 12h1M58 12h1M59 12h1M60 12h1M61 12h1M62 12h1M63 12h1M64 12h1M65 12h1M66 12h1M67 12h1M68 12h1M69 12h1M70 12h1M71 12h1M72 12h1M73 12h1M74 12h1M75 12h1M76 12h1M77 12h1M78 12h1M79 12h1M80 12h1M81 12h1M82 12h1M83 12h1M84 12h1M85 12h1M86 12h1M87 12h1M88 12h1M89 12h1M90 12h1M91 12h1M92 12h1M93 12h1M2 13h1M3 13h1M4 13h1M5 13h1M6 13h1M7 13h1M8 13h1M9 13h1M10 13h1M11 13h1M12 13h1M13 13h1M14 13h1M15 13h1M16 13h1M17 13h1M18 13h1M19 13h1M20 13h1M21 13h1M22 13h1M23 13h1M24 13h1M25 13h1M26 13h1M27 13h1M28 13h1M29 13h1M30 13h1M31 13h1M32 13h1M33 13h1M34 13h1M35 13h1M36 13h1M37 13h1M38 13h1M39 13h1M40 13h1M41 13h1M42 13h1M43 13h1M44 13h1M45 13h1M46 13h1M47 13h1M48 13h1M49 13h1M50 13h1M51 13h1M52 13h1M53 13h1M54 13h1M55 13h1M56 13h1M57 13h1M58 13h1M59 13h1M60 13h1M61 13h1M62 13h1M63 13h1M64 13h1M65 13h1M66 13h1M67 13h1M68 13h1M69 13h1M70 13h1M71 13h1M72 13h1M73 13h1M74 13h1M75 13h1M76 13h1M77 13h1M78 13h1M79 13h1M80 13h1M81 13h1M82 13h1M83 13h1M84 13h1M85 13h1M86 13h1M87 13h1M88 13h1M89 13h1M90 13h1M91 13h1M92 13h1M93 13h1M2 14h1M3 14h1M4 14h1M5 14h1M6 14h1M7 14h1M8 14h1M9 14h1M10 14h1M11 14h1M12 14h1M13 14h1M14 14h1M15 14h1M16 14h1M17 14h1M18 14h1M19 14h1M20 14h1M21 14h1M22 14h1M23 14h1M24 14h1M25 14h1M26 14h1M27 14h1M28 14h1M29 14h1M30 14h1M31 14h1M32 14h1M33 14h1M34 14h1M35 14h1M36 14h1M37 14h1M38 14h1M39 14h1M40 14h1M41 14h1M42 14h1M43 14h1M44 14h1M45 14h1M46 14h1M47 14h1M48 14h1M49 14h1M50 14h1M51 14h1M52 14h1M53 14h1M54 14h1M55 14h1M56 14h1M57 14h1M58 14h1M59 14h1M60 14h1M61 14h1M62 14h1M63 14h1M64 14h1M65 14h1M66 14h1M67 14h1M68 14h1M69 14h1M70 14h1M71 14h1M72 14h1M73 14h1M74 14h1M75 14h1M76 14h1M77 14h1M78 14h1M79 14h1M80 14h1M81 14h1M82 14h1M83 14h1M84 14h1M85 14h1M86 14h1M87 14h1M88 14h1M89 14h1M90 14h1M91 14h1M92 14h1M93 14h1M2 15h1M3 15h1M4 15h1M5 15h1M6 15h1M7 15h1M8 15h1M9 15h1M10 15h1M11 15h1M12 15h1M13 15h1M14 15h1M15 15h1M16 15h1M17 15h1M18 15h1M19 15h1M20 15h1M21 15h1M22 15h1M23 15h1M24 15h1M25 15h1M26 15h1M27 15h1M28 15h1M29 15h1M30 15h1M31 15h1M32 15h1M33 15h1M34 15h1M35 15h1M36 15h1M37 15h1M38 15h1M39 15h1M40 15h1M41 15h1M42 15h1M43 15h1M44 15h1M45 15h1M46 15h1M47 15h1M48 15h1M49 15h1M50 15h1M51 15h1M52 15h1M53 15h1M54 15h1M55 15h1M56 15h1M57 15h1M58 15h1M59 15h1M60 15h1M61 15h1M62 15h1M63 15h1M64 15h1M65 15h1M66 15h1M67 15h1M68 15h1M69 15h1M70 15h1M71 15h1M72 15h1M73 15h1M74 15h1M75 15h1M76 15h1M77 15h1M78 15h1M79 15h1M80 15h1M81 15h1M82 15h1M83 15h1M84 15h1M85 15h1M86 15h1M87 15h1M88 15h1M89 15h1M90 15h1M91 15h1M92 15h1M93 15h1" />
<path stroke="#1b4ab9" d="M1 3h1M1 4h1M1 5h1M1 6h1M1 7h1M1 8h1M1 9h1M1 10h1M1 11h1M1 12h1M1 13h1M1 14h1M1 15h1" />
</svg>