<svg xmlns="http://www.w3.org/2000/svg" viewBox="0 -0.5 10 14" shape-rendering="crispEdges">
  <path stroke="#262525" d="M0 0h1M1 0h1M2 0h1M3 0h1M0 1h1M4 1h1M0 2h1M5 2h1M0 3h1M6 3h1M0 4h1M7 4h1M0 5h1M8 5h1M0 6h1M9 6h1M0 7h1M9 7h1M0 8h1M8 8h1M0 9h1M7 9h1M0 10h1M6 10h1M0 11h1M5 11h1M0 12h1M4 12h1M0 13h1M1 13h1M2 13h1M3 13h1" />
<path stroke="#a4a197" d="M1 1h1M2 1h1M3 1h1M1 2h1M2 2h1M3 2h1M4 2h1M1 3h1M2 3h1M3 3h1M4 3h1M5 3h1M1 4h1M2 4h1M3 4h1M4 4h1M5 4h1M6 4h1M1 5h1M2 5h1M3 5h1M4 5h1M5 5h1M6 5h1M7 5h1M1 6h1M2 6h1M3 6h1M4 6h1M5 6h1M6 6h1M7 6h1M1 7h1M2 7h1M3 7h1M4 7h1M5 7h1M6 7h1M1 8h1M2 8h1M3 8h1M4 8h1M5 8h1M1 9h1M2 9h1M3 9h1M4 9h1M1 10h1M2 10h1M3 10h1" />
<path stroke="#6b5231" d="M8 6h1M7 7h1M8 7h1M6 8h1M7 8h1M5 9h1M6 9h1M4 10h1M5 10h1M1 11h1M2 11h1M3 11h1M4 11h1M1 12h1M2 12h1M3 12h1" />
</svg>