<svg xmlns="http://www.w3.org/2000/svg" viewBox="0 -0.5 10 14" shape-rendering="crispEdges">
  <path stroke="#000000" d="M6 0h1M7 0h1M8 0h1M9 0h1M5 1h1M9 1h1M4 2h1M9 2h1M3 3h1M9 3h1M2 4h1M9 4h1M1 5h1M9 5h1M0 6h1M9 6h1M0 7h1M9 7h1M1 8h1M9 8h1M2 9h1M9 9h1M3 10h1M9 10h1M4 11h1M9 11h1M5 12h1M9 12h1M6 13h1M7 13h1M8 13h1M9 13h1" />
<path stroke="#fffdf5" d="M6 1h1M7 1h1M8 1h1M5 2h1M6 2h1M7 2h1M8 2h1M4 3h1M5 3h1M6 3h1M7 3h1M8 3h1M3 4h1M4 4h1M5 4h1M6 4h1M7 4h1M8 4h1M2 5h1M3 5h1M4 5h1M5 5h1M6 5h1M7 5h1M8 5h1M2 6h1M3 6h1M4 6h1M5 6h1M6 6h1M7 6h1M8 6h1M3 7h1M4 7h1M5 7h1M6 7h1M7 7h1M8 7h1M4 8h1M5 8h1M6 8h1M7 8h1M8 8h1M5 9h1M6 9h1M7 9h1M8 9h1M6 10h1M7 10h1M8 10h1" />
<path stroke="#ffc579" d="M1 6h1M1 7h1M2 7h1M2 8h1M3 8h1M3 9h1M4 9h1M4 10h1M5 10h1M5 11h1M6 11h1M7 11h1M8 11h1M6 12h1M7 12h1M8 12h1" />
</svg>